<svg width="59" height="43" viewBox="0 0 59 43" fill="none" xmlns="http://www.w3.org/2000/svg">
<g clip-path="url(#clip0_0_874)">
<path d="M32.4689 23.517H26.3818L26.3818 35.1521H32.4689V23.517Z" fill="white"/>
<path d="M50.7365 0.148315L44.6494 0.148315V11.7834L50.7365 11.7834V0.148315Z" fill="white"/>
<path d="M44.6476 0.148315L38.5605 0.148315V11.7834L44.6476 11.7834V0.148315Z" fill="white"/>
<path d="M56.7321 11.832L50.645 11.832V23.4676H56.7321V11.832Z" fill="white"/>
<path d="M38.6445 11.832L32.5575 11.832V23.4676H38.6445V11.832Z" fill="white"/>
<path d="M26.2902 11.832L20.2031 11.832L20.2031 23.4676H26.2902V11.832Z" fill="white"/>
<path d="M8.19446 11.832L2.10742 11.832L2.10742 23.4676H8.19446L8.19446 11.832Z" fill="white"/>
<path d="M14.1964 0.148315L8.10938 0.148315L8.10937 11.7834L14.1964 11.7834L14.1964 0.148315Z" fill="white"/>
<path d="M20.295 0.148315L14.201 0.148315L14.201 11.7834L20.295 11.7834V0.148315Z" fill="white"/>
<path d="M0.144073 42.9444C0.007089 42.8364 -0.00808032 42.7076 0.00203256 41.7267L0.0112261 40.8226L0.0958065 40.7169C0.172572 40.6217 0.207968 40.6118 0.465846 40.6118H0.750845L0.750845 39.8383C0.750845 39.1484 0.757281 39.0507 0.809224 38.9338C0.841402 38.8621 1.1264 38.4108 1.4422 37.9311L2.01725 37.0596L2.01725 33.9649L2.01863 30.8702L1.30797 30.0901C0.917248 29.6615 0.584442 29.2752 0.568354 29.2323C0.551805 29.187 0.539394 28.514 0.539394 27.6241C0.539394 25.9499 0.544451 25.898 0.713611 25.7971C0.775208 25.7603 1.06343 25.749 1.72582 25.7584C2.87225 25.774 2.78445 25.7122 2.79916 26.513L2.80928 27.0568H3.83068V26.5979C3.83068 26.065 3.87113 25.8773 4.00214 25.799C4.06695 25.7603 4.38689 25.7495 5.21246 25.7589C6.58736 25.774 6.46784 25.7032 6.48255 26.5135L6.49266 27.0572H7.51406V26.5757C7.51406 26.0348 7.54854 25.881 7.68828 25.7976C7.74988 25.7608 8.03809 25.7495 8.70049 25.7589C9.618 25.7716 9.62674 25.7726 9.69523 25.8707C9.74089 25.9367 9.76663 26.5014 9.77245 27.5647C9.77981 28.8828 9.77383 29.1757 9.73844 29.2526C9.71499 29.3035 9.38173 29.6888 8.9979 30.1081L8.30011 30.8707L8.30011 37.0601L8.90688 37.9962C9.24061 38.5112 9.52607 38.9781 9.54078 39.0347C9.55549 39.0904 9.56744 39.4667 9.56744 39.8704V40.6042L9.86899 40.6193C10.3254 40.642 10.3075 40.5929 10.3075 41.8111C10.3075 42.7713 10.3061 42.7916 10.239 42.8887L10.1701 42.9882L5.19683 42.9976C0.941151 43.0057 0.212105 42.9976 0.144073 42.9448V42.9444Z" fill="#161618"/>
<path d="M9.23525 27.6012V26.5334H8.06261L8.0525 27.0772C8.03779 27.8738 8.11364 27.8162 7.055 27.8323C6.44915 27.8412 6.17978 27.8299 6.11818 27.7936C5.97844 27.7096 5.94396 27.5564 5.94396 27.0154V26.5339H4.37371V27.0546C4.37371 27.5417 4.36911 27.5828 4.30108 27.6974L4.22845 27.8195L3.37483 27.8327C2.76668 27.8417 2.49639 27.8304 2.43479 27.7941C2.29505 27.7101 2.26058 27.5568 2.26058 27.0159V26.5344H1.08289L1.08289 28.6698H9.23525V27.6021V27.6012Z" fill="white"/>
<path d="M8.33756 29.8785L8.70392 29.4762L6.93141 29.4649C5.95644 29.4588 4.36182 29.4588 3.38823 29.4649L1.61755 29.4762L1.97656 29.8766L2.33557 30.277L5.15338 30.2794L7.9712 30.2818L8.33756 29.8795V29.8785Z" fill="white"/>
<path d="M7.75727 33.9441L7.75727 31.0673H2.56384L2.56384 36.8204H7.75727V33.9436V33.9441Z" fill="white"/>
<path d="M8.60928 38.6806C8.57894 38.6254 8.41162 38.3604 8.23694 38.0925L7.91977 37.6053H2.39032L2.00557 38.1934L1.62036 38.7815H8.6649L8.60974 38.6811L8.60928 38.6806Z" fill="white"/>
<path d="M9.02511 40.0885V39.5664H1.29565L1.29565 40.6106H9.02511V40.0885Z" fill="white"/>
<path d="M9.77883 41.8105V41.3973H0.539795L0.539795 41.8105V42.2241H9.77883V41.8105Z" fill="white"/>
<path d="M48.6783 42.9444C48.5413 42.8364 48.5266 42.7076 48.5367 41.7267L48.5459 40.8226L48.6305 40.7169C48.7073 40.6217 48.7427 40.6118 49.0005 40.6118H49.2855V39.8383C49.286 39.1484 49.292 39.0507 49.3439 38.9338C49.3766 38.8621 49.6611 38.4108 49.9769 37.9311L50.5519 37.0596V33.9649L50.5533 30.8702L49.8427 30.0901C49.4519 29.6615 49.1191 29.2752 49.103 29.2323C49.0865 29.187 49.0741 28.514 49.0741 27.6241C49.0741 25.9499 49.0791 25.898 49.2483 25.7971C49.3099 25.7603 49.5981 25.749 50.2605 25.7584C51.4069 25.774 51.3192 25.7122 51.3339 26.513L51.344 27.0568H52.3654V26.5979C52.3654 26.065 52.4058 25.8773 52.5368 25.799C52.6012 25.7603 52.9216 25.7495 53.7472 25.7589C55.1221 25.774 55.0021 25.7032 55.0172 26.5135L55.0274 27.0572H56.0488V26.5757C56.0488 26.0348 56.0832 25.881 56.223 25.7976C56.2846 25.7608 56.5728 25.7495 57.2352 25.7589C58.1527 25.7716 58.1614 25.7726 58.2295 25.8707C58.2754 25.9367 58.3013 26.5014 58.3071 27.5647C58.314 28.8828 58.3081 29.1757 58.2727 29.2526C58.2492 29.3035 57.9164 29.6888 57.5321 30.1081L56.8343 30.8707V37.0601L57.4411 37.9962C57.7753 38.5112 58.0608 38.9781 58.0755 39.0347C58.0902 39.0904 58.1021 39.4667 58.1021 39.8704V40.6042L58.4032 40.6193C58.8597 40.642 58.8418 40.5929 58.8418 41.8111C58.8418 42.7713 58.8404 42.7916 58.7733 42.8887L58.7043 42.9882L53.7311 42.9976C49.4754 43.0057 48.7459 42.9976 48.6783 42.9448V42.9444Z" fill="#161618"/>
<path d="M57.7699 27.6026V26.5349H56.5973L56.5876 27.0787C56.5725 27.8752 56.6483 27.8177 55.5897 27.8337C54.9843 27.8427 54.7144 27.8314 54.6528 27.7951C54.5131 27.7111 54.4786 27.5578 54.4786 27.0169V26.5354H52.9088V27.056C52.9088 27.5432 52.9042 27.5842 52.8357 27.6988L52.7631 27.821L51.9095 27.8342C51.3013 27.8432 51.0311 27.8318 50.9695 27.7955C50.8297 27.7116 50.7952 27.5583 50.7952 27.0174V26.5359H49.6176V28.6713H57.7699V27.6036V27.6026Z" fill="white"/>
<path d="M56.8718 29.8785L57.2386 29.4762L55.4656 29.4649C54.4907 29.4588 52.8965 29.4588 51.9224 29.4649L50.1522 29.4762L50.5112 29.8766L50.8702 30.277L53.6876 30.2794L56.5054 30.2818L56.8718 29.8795V29.8785Z" fill="white"/>
<path d="M56.2891 33.9441V31.0673H51.0957V36.8204H56.2891V33.9436V33.9441Z" fill="white"/>
<path d="M57.1444 38.6806C57.1141 38.6254 56.9467 38.3604 56.7725 38.0925L56.4554 37.6053H50.9254L50.5402 38.1934L50.155 38.7815H57.1996L57.1444 38.6811V38.6806Z" fill="white"/>
<path d="M57.5598 40.0885V39.5664H49.8303V40.6106H57.5598V40.0885Z" fill="white"/>
<path d="M58.314 41.8105V41.3973H49.0745V41.8105L49.0749 42.2241H58.3135V41.8105H58.314Z" fill="white"/>
</g>
<defs>
<clipPath id="clip0_0_874">
<rect width="58.8423" height="43" fill="white"/>
</clipPath>
</defs>
</svg>
