<svg width="1920" height="960" viewBox="0 0 1920 960" fill="none" xmlns="http://www.w3.org/2000/svg">
<g clip-path="url(#clip0_102_298)">
<rect width="1920" height="960" fill="#FFFEFE"/>
<g opacity="0.1">
<path fill-rule="evenodd" clip-rule="evenodd" d="M842.955 378.989L726.267 242.891C709.376 274.958 693.001 331.554 716.544 372.41C705.117 373.427 694.197 375.36 685.75 378.75C631.86 400.376 572.729 456.25 543.667 572.5C535.251 606.161 520.105 622.281 502.103 641.44C485.123 659.512 465.601 680.288 446.792 721.042C408.042 805 512.619 888.958 588.875 812.702C631.747 769.83 669.221 752.132 700.684 737.273C745.967 715.886 778.797 700.381 797.342 624.167C806.164 659.717 802.635 743.616 717.936 794.809C633.236 846.001 615.591 953.837 617.355 985.833H1099.08C1099.08 682.075 1058.87 419.629 842.955 378.989Z" fill="#DF8600"/>
</g>
<g filter="url(#filter0_d_102_298)">
<rect x="910" y="350.043" width="839.327" height="880.996" rx="8" transform="rotate(-16.6895 910 350.043)" fill="#FFFEFE"/>
<rect width="823.327" height="864.996" transform="translate(919.96 355.408) rotate(-16.6895)" fill="#FFFEFE"/>
<g clip-path="url(#clip1_102_298)">
<rect width="102.916" height="108.125" transform="translate(919.96 355.408) rotate(-16.6895)" fill="#E8EDF9"/>
<path d="M934.937 359.971C935.077 360.438 935.082 360.891 934.952 361.33C934.82 361.764 934.579 362.148 934.227 362.482C934.794 362.564 935.271 362.766 935.657 363.088C936.048 363.409 936.32 363.822 936.472 364.328C936.723 365.166 936.639 365.917 936.219 366.581C935.798 367.24 935.116 367.711 934.173 367.993C933.226 368.277 932.393 368.258 931.673 367.937C930.958 367.613 930.475 367.035 930.225 366.201C930.072 365.69 930.07 365.192 930.219 364.704C930.368 364.217 930.654 363.791 931.077 363.426C930.604 363.34 930.193 363.152 929.844 362.861C929.499 362.565 929.256 362.184 929.116 361.717C928.872 360.905 928.941 360.182 929.322 359.549C929.704 358.916 930.339 358.467 931.23 358.2C932.125 357.931 932.906 357.956 933.572 358.275C934.239 358.594 934.694 359.159 934.937 359.971ZM934.857 364.727C934.716 364.255 934.46 363.918 934.09 363.715C933.723 363.506 933.308 363.471 932.845 363.61C932.382 363.749 932.054 364.004 931.861 364.376C931.673 364.747 931.65 365.17 931.792 365.646C931.933 366.113 932.18 366.445 932.534 366.644C932.893 366.84 933.312 366.867 933.793 366.723C934.273 366.579 934.605 366.332 934.791 365.981C934.98 365.63 935.002 365.211 934.857 364.727ZM933.37 360.505C933.246 360.091 933.024 359.786 932.704 359.592C932.382 359.393 932.019 359.355 931.613 359.476C931.207 359.598 930.925 359.823 930.766 360.151C930.606 360.475 930.592 360.858 930.725 361.298C930.856 361.735 931.077 362.047 931.39 362.234C931.708 362.419 932.069 362.451 932.475 362.329C932.881 362.208 933.164 361.983 933.322 361.654C933.485 361.325 933.501 360.942 933.37 360.505Z" fill="#B7C0D8"/>
<path d="M964.481 362.049C965.229 361.825 965.993 361.825 966.708 362.011C967.202 361.463 967.84 361.042 968.588 360.818L979.884 357.431C980.632 357.207 981.397 357.207 982.111 357.393C982.605 356.845 983.243 356.424 983.992 356.2L994.26 353.121C996.529 352.441 998.947 353.822 999.662 356.205L1002.57 365.915C1002.98 367.273 1002.75 368.735 1001.96 369.86L997.124 376.754L1004.01 393.185C1005.83 397.536 1008.5 399.218 1012.62 402.41C1013.38 402.997 1013.94 403.82 1014.22 404.753L1016.8 413.384C1017.52 415.767 1016.26 418.251 1013.99 418.931L973.943 430.938C971.674 431.618 969.256 430.238 968.541 427.854L965.954 419.223C965.674 418.29 965.69 417.295 965.999 416.388C967.681 411.457 968.988 408.581 968.116 403.946L964.823 386.438L956.987 383.345C955.709 382.84 954.717 381.743 954.309 380.385L951.398 370.675C950.684 368.292 951.943 365.808 954.212 365.128L964.481 362.049Z" fill="#FFFEFE"/>
<path d="M955.506 369.444L965.775 366.365L967.715 372.838L971.823 371.606L969.882 365.133L981.178 361.747L983.119 368.22L987.226 366.988L985.285 360.515L995.554 357.436L998.465 367.146L992.191 376.082L1000.07 394.886L972.341 403.198L968.573 383.163L958.417 379.153L955.506 369.444Z" fill="#34364C"/>
<path d="M973.635 407.514L1001.36 399.201L1010.11 405.985L1012.7 414.616L972.649 426.623L970.061 417.992L973.635 407.514Z" fill="#34364C"/>
</g>
<rect width="102.916" height="108.125" transform="translate(982.064 562.548) rotate(-16.6895)" fill="#E8EDF9"/>
<path d="M995.219 564.867L995.613 566.183L995.417 566.242C994.53 566.522 993.892 566.98 993.502 567.615C993.112 568.251 992.998 569.02 993.159 569.923C993.509 569.233 994.081 568.769 994.876 568.531C995.718 568.278 996.471 568.376 997.133 568.824C997.8 569.271 998.274 569.964 998.556 570.903C998.846 571.872 998.796 572.743 998.405 573.517C998.016 574.285 997.36 574.808 996.434 575.086C995.483 575.371 994.605 575.251 993.8 574.726C993 574.2 992.429 573.368 992.088 572.228L991.925 571.685C991.424 570.013 991.437 568.582 991.965 567.391C992.497 566.199 993.527 565.374 995.055 564.916L995.219 564.867ZM994.874 569.93C994.525 570.035 994.233 570.229 994 570.513C993.771 570.796 993.638 571.121 993.6 571.489L993.746 571.974C993.958 572.681 994.275 573.2 994.697 573.53C995.119 573.855 995.565 573.948 996.036 573.806C996.508 573.665 996.828 573.376 996.997 572.94C997.166 572.504 997.164 571.998 996.991 571.422C996.819 570.846 996.538 570.418 996.15 570.14C995.762 569.861 995.337 569.791 994.874 569.93Z" fill="#B7C0D8"/>
<rect width="102.916" height="108.125" transform="translate(1044.17 769.687) rotate(-16.6895)" fill="#E8EDF9"/>
<path d="M1059.61 778.058L1060.79 777.703L1061.18 778.979L1059.99 779.335L1060.63 781.456L1059.04 781.933L1058.4 779.812L1054.28 781.047L1053.94 780.091L1056.12 772.415L1057.77 771.922L1059.61 778.058ZM1055.52 779.283L1058.02 778.535L1056.82 774.554L1056.77 774.799L1055.52 779.283Z" fill="#B7C0D8"/>
<g clip-path="url(#clip2_102_298)">
<rect width="102.916" height="108.125" transform="translate(1106.27 976.827) rotate(-16.6895)" fill="#E8EDF9"/>
</g>
<g clip-path="url(#clip3_102_298)">
<rect width="102.916" height="108.125" transform="translate(951.012 458.978) rotate(-16.6895)" fill="#B7C0D8"/>
<path d="M965.84 461.809L964.623 471.601L962.953 472.102L964.282 462.704L959.351 464.182L958.968 462.905L965.575 460.925L965.84 461.809Z" fill="#E8EDF9"/>
<path d="M1004.25 505.485C1003.97 506.335 1003.6 507.242 1003.15 508.2C1001.54 511.578 999.244 514.649 997.682 516.363L997.42 516.651C996.37 517.803 996.009 519.47 996.473 521.019L999.593 531.424C1000.31 533.807 1002.73 535.188 1004.99 534.508L1045.04 522.501C1047.31 521.821 1048.57 519.337 1047.86 516.954L1044.74 506.548C1044.27 505 1043.05 503.807 1041.54 503.422L1041.17 503.326C1038.92 502.754 1035.31 501.452 1032.11 499.516C1031.2 498.967 1030.4 498.411 1029.7 497.855C1031.36 496.858 1032.19 494.751 1031.58 492.717L1029.48 485.692C1029.06 484.29 1028.01 483.17 1026.68 482.688L1024.55 481.918C1024.94 479.561 1024.81 477.058 1024.07 474.589C1021.59 466.304 1013.18 461.504 1005.29 463.869C997.408 466.233 993.029 474.866 995.513 483.151C996.295 485.759 997.666 488.023 999.42 489.825L998.423 491.16C997.575 492.296 997.321 493.805 997.742 495.207L999.848 502.232C1000.46 504.266 1002.31 505.57 1004.25 505.485Z" fill="#FFFEFE"/>
<path d="M1019.96 475.82C1020.89 478.919 1020.47 482.087 1019.05 484.64L1025.37 486.924L1027.48 493.949L1022.42 495.466C1023.64 498.649 1026.6 501.311 1030.03 503.382C1033.66 505.58 1037.68 507.028 1040.25 507.684L1040.63 507.78L1043.75 518.185L1003.7 530.193L1000.58 519.787L1000.84 519.499C1002.63 517.535 1005.19 514.117 1007.02 510.281C1008.74 506.667 1009.75 502.813 1009.02 499.483L1003.96 501L1001.85 493.976L1005.59 488.962C1002.84 487.653 1000.59 485.16 999.62 481.919C997.851 476.018 1000.97 469.868 1006.59 468.184C1012.2 466.5 1018.19 469.919 1019.96 475.82Z" fill="#34364C"/>
</g>
<rect width="102.916" height="108.125" transform="translate(1013.12 666.117) rotate(-16.6895)" fill="#B7C0D8"/>
<path d="M1023.2 674.645L1022.28 669.684L1027.4 668.148L1027.81 669.524L1024.01 670.662L1024.43 673.019C1024.8 672.634 1025.26 672.358 1025.81 672.192C1026.72 671.92 1027.51 671.999 1028.19 672.429C1028.87 672.858 1029.36 673.563 1029.65 674.545C1029.94 675.514 1029.89 676.371 1029.51 677.114C1029.12 677.854 1028.44 678.369 1027.47 678.661C1026.59 678.923 1025.79 678.894 1025.07 678.573C1024.35 678.247 1023.84 677.685 1023.55 676.888L1025.09 676.426C1025.29 676.871 1025.56 677.177 1025.91 677.344C1026.25 677.508 1026.64 677.524 1027.08 677.393C1027.57 677.246 1027.9 676.958 1028.06 676.528C1028.23 676.096 1028.23 675.579 1028.05 674.976C1027.87 674.396 1027.58 673.983 1027.18 673.737C1026.78 673.487 1026.31 673.441 1025.78 673.599C1025.5 673.685 1025.26 673.798 1025.09 673.937C1024.91 674.071 1024.73 674.285 1024.57 674.578L1023.2 674.645Z" fill="#E8EDF9"/>
<rect width="102.916" height="108.125" transform="translate(1075.22 873.257) rotate(-16.6895)" fill="#B7C0D8"/>
<path d="M1086.49 880.594L1087.46 880.304C1087.95 880.153 1088.29 879.91 1088.5 879.577C1088.72 879.241 1088.75 878.838 1088.61 878.367C1088.48 877.913 1088.25 877.597 1087.94 877.42C1087.62 877.238 1087.22 877.22 1086.73 877.366C1086.31 877.495 1085.99 877.724 1085.79 878.056C1085.59 878.383 1085.55 878.745 1085.67 879.142L1084.08 879.619C1083.93 879.13 1083.93 878.646 1084.06 878.167C1084.2 877.687 1084.47 877.267 1084.87 876.905C1085.27 876.538 1085.76 876.268 1086.33 876.095C1087.28 875.81 1088.1 875.826 1088.79 876.144C1089.48 876.457 1089.95 877.038 1090.2 877.89C1090.33 878.317 1090.31 878.762 1090.15 879.225C1090 879.681 1089.73 880.07 1089.35 880.392C1089.93 880.414 1090.41 880.576 1090.8 880.879C1091.19 881.181 1091.46 881.598 1091.62 882.131C1091.88 882.986 1091.79 883.756 1091.35 884.439C1090.92 885.12 1090.22 885.605 1089.27 885.891C1088.35 886.166 1087.53 886.147 1086.8 885.833C1086.06 885.52 1085.58 884.957 1085.33 884.145L1086.93 883.668C1087.05 884.087 1087.29 884.386 1087.65 884.564C1088.01 884.741 1088.43 884.758 1088.91 884.615C1089.4 884.467 1089.75 884.22 1089.96 883.873C1090.16 883.526 1090.19 883.103 1090.04 882.606C1089.89 882.104 1089.62 881.762 1089.25 881.58C1088.87 881.399 1088.39 881.395 1087.8 881.571L1086.87 881.852L1086.49 880.594Z" fill="#E8EDF9"/>
<g clip-path="url(#clip4_102_298)">
<rect width="102.916" height="108.125" transform="translate(1148.17 399.866) rotate(-16.6895)" fill="#B7C0D8"/>
<path d="M1201.41 446.373C1201.13 447.223 1200.76 448.13 1200.31 449.088C1198.7 452.466 1196.4 455.537 1194.84 457.251L1194.58 457.539C1193.53 458.691 1193.17 460.358 1193.63 461.907L1196.75 472.312C1197.47 474.695 1199.89 476.076 1202.16 475.396L1242.2 463.389C1244.47 462.709 1245.73 460.225 1245.02 457.842L1241.9 447.437C1241.43 445.888 1240.22 444.695 1238.71 444.31L1238.33 444.214C1236.08 443.642 1232.47 442.34 1229.27 440.404C1228.37 439.855 1227.56 439.299 1226.86 438.743C1228.53 437.746 1229.35 435.639 1228.74 433.605L1226.64 426.581C1226.22 425.178 1225.18 424.058 1223.84 423.576L1221.71 422.806C1222.1 420.449 1221.97 417.946 1221.23 415.477C1218.75 407.192 1210.34 402.392 1202.45 404.757C1194.57 407.121 1190.19 415.754 1192.67 424.039C1193.46 426.647 1194.83 428.911 1196.58 430.713L1195.58 432.048C1194.74 433.184 1194.48 434.693 1194.9 436.095L1197.01 443.12C1197.62 445.154 1199.47 446.458 1201.41 446.373Z" fill="#FFFEFE"/>
<path d="M1217.12 416.708C1218.05 419.808 1217.63 422.975 1216.21 425.528L1222.53 427.812L1224.64 434.837L1219.58 436.354C1220.8 439.537 1223.76 442.199 1227.19 444.27C1230.82 446.468 1234.84 447.916 1237.41 448.572L1237.79 448.668L1240.91 459.073L1200.86 471.081L1197.74 460.675L1198 460.387C1199.79 458.423 1202.35 455.005 1204.18 451.169C1205.9 447.556 1206.91 443.701 1206.18 440.371L1201.12 441.889L1199.01 434.864L1202.75 429.85C1200 428.541 1197.75 426.049 1196.78 422.807C1195.01 416.906 1198.13 410.756 1203.75 409.072C1209.37 407.388 1215.35 410.807 1217.12 416.708Z" fill="#34364C"/>
</g>
<rect width="102.916" height="108.125" transform="translate(1210.28 607.006) rotate(-16.6895)" fill="#B7C0D8"/>
<rect width="102.916" height="108.125" transform="translate(1272.38 814.145) rotate(-16.6895)" fill="#B7C0D8"/>
<g clip-path="url(#clip5_102_298)">
<rect width="102.916" height="108.125" transform="translate(1345.33 340.754) rotate(-16.6895)" fill="#B7C0D8"/>
<path d="M1398.57 387.262C1398.29 388.111 1397.93 389.019 1397.47 389.976C1395.86 393.354 1393.57 396.425 1392 398.139L1391.74 398.427C1390.69 399.579 1390.33 401.246 1390.8 402.795L1393.92 413.2C1394.63 415.583 1397.05 416.964 1399.32 416.284L1439.37 404.277C1441.63 403.597 1442.89 401.113 1442.18 398.73L1439.06 388.325C1438.59 386.776 1437.38 385.583 1435.87 385.198L1435.49 385.102C1433.24 384.53 1429.64 383.228 1426.43 381.292C1425.53 380.743 1424.72 380.187 1424.02 379.631C1425.69 378.634 1426.52 376.527 1425.91 374.493L1423.8 367.469C1423.38 366.066 1422.34 364.946 1421 364.464L1418.87 363.694C1419.26 361.337 1419.13 358.834 1418.39 356.365C1415.91 348.08 1407.5 343.28 1399.62 345.645C1391.73 348.009 1387.35 356.642 1389.83 364.927C1390.62 367.535 1391.99 369.799 1393.74 371.601L1392.75 372.937C1391.9 374.072 1391.64 375.581 1392.06 376.983L1394.17 384.008C1394.78 386.042 1396.63 387.346 1398.57 387.262Z" fill="#FFFEFE"/>
<path d="M1414.28 357.596C1415.21 360.696 1414.79 363.863 1413.37 366.416L1419.69 368.7L1421.8 375.725L1416.74 377.242C1417.96 380.425 1420.92 383.087 1424.35 385.158C1427.98 387.356 1432 388.804 1434.57 389.46L1434.95 389.556L1438.07 399.962L1398.02 411.969L1394.9 401.563L1395.17 401.275C1396.96 399.311 1399.51 395.893 1401.34 392.058C1403.06 388.444 1404.07 384.589 1403.34 381.259L1398.28 382.777L1396.17 375.752L1399.92 370.738C1397.16 369.429 1394.91 366.937 1393.94 363.695C1392.17 357.794 1395.29 351.644 1400.91 349.96C1406.53 348.276 1412.52 351.695 1414.28 357.596Z" fill="#34364C"/>
</g>
<rect width="102.916" height="108.125" transform="translate(1407.44 547.894) rotate(-16.6895)" fill="#B7C0D8"/>
<rect width="102.916" height="108.125" transform="translate(1469.54 755.033) rotate(-16.6895)" fill="#B7C0D8"/>
<g clip-path="url(#clip6_102_298)">
<rect width="102.916" height="108.125" transform="translate(1531.65 962.173) rotate(-16.6895)" fill="#B7C0D8"/>
<g clip-path="url(#clip7_102_298)">
<path fill-rule="evenodd" clip-rule="evenodd" d="M1579.91 966.368C1579.28 964.018 1580.54 961.622 1582.76 960.957L1588.92 959.109C1591.14 958.444 1593.52 959.75 1594.28 962.059L1594.68 963.262L1596.7 962.656C1598.97 961.976 1601.39 963.357 1602.1 965.74L1602.89 968.358C1607.05 965.951 1612.09 965.213 1617.27 967.574C1628.03 972.48 1631.93 988.354 1624.39 999.94C1622.56 1002.74 1621.16 1005.02 1620.37 1007.18C1620.19 1007.67 1620.05 1008.14 1619.94 1008.59L1624.28 1007.93C1626.41 1007.61 1628.48 1008.98 1629.12 1011.14L1631.55 1019.23C1632.26 1021.61 1631 1024.1 1628.74 1024.78L1585.65 1037.7C1583.38 1038.38 1580.96 1037 1580.25 1034.61L1577.82 1026.52C1577.17 1024.36 1578.15 1022.08 1580.1 1021.18L1584.08 1019.34C1583.75 1019.02 1583.38 1018.71 1582.95 1018.4C1581.1 1017.03 1578.67 1015.89 1575.62 1014.56C1562.94 1009.04 1557.46 993.636 1563.75 983.621C1566.77 978.8 1571.39 976.64 1576.19 976.362L1575.41 973.745C1574.69 971.362 1575.95 968.878 1578.22 968.198L1580.24 967.593L1579.91 966.368Z" fill="#34364C"/>
<path fill-rule="evenodd" clip-rule="evenodd" d="M1584.06 965.272L1590.22 963.425L1592 968.771L1598 966.972L1599.94 973.445L1594.13 975.186L1596.61 982.43C1596.68 982.257 1596.75 982.086 1596.83 981.917C1600.57 973.97 1607.88 968.143 1615.64 971.678C1623.41 975.225 1627.13 987.632 1620.8 997.351C1617.22 1002.86 1614.09 1008.07 1616.02 1013.73L1625.02 1012.37L1627.44 1020.46L1584.35 1033.38L1581.93 1025.29L1590.19 1021.48C1588.69 1015.68 1583.21 1013.05 1577.18 1010.43C1566.55 1005.8 1562.83 993.39 1567.37 986.148C1571.9 978.931 1581.22 979.771 1588.71 984.353C1588.87 984.451 1589.02 984.553 1589.18 984.659L1587.26 977.245L1581.45 978.987L1579.51 972.514L1585.51 970.714L1584.06 965.272ZM1585.68 991.797C1591.39 997.148 1594.16 1004.57 1595.15 1007.87C1593.26 1008.44 1585.16 1007.28 1579.78 1003.01C1575.9 999.938 1573.46 994.384 1575.12 991.448C1576.77 988.513 1582.12 988.453 1585.68 991.797ZM1603.45 986.469C1601.63 994.078 1603.4 1001.8 1604.39 1005.1C1606.28 1004.53 1612.41 999.112 1614.56 992.584C1616.1 987.885 1615.08 981.907 1612.09 980.365C1609.09 978.823 1604.59 981.714 1603.45 986.469Z" fill="#FFFEFE"/>
</g>
</g>
<g clip-path="url(#clip8_102_298)">
<rect width="102.916" height="108.125" transform="translate(1542.5 281.642) rotate(-16.6895)" fill="#B7C0D8"/>
<path d="M1595.73 328.15C1595.45 328.999 1595.09 329.907 1594.63 330.864C1593.02 334.242 1590.73 337.313 1589.17 339.027L1588.9 339.315C1587.85 340.467 1587.49 342.134 1587.96 343.683L1591.08 354.088C1591.79 356.472 1594.21 357.852 1596.48 357.172L1636.53 345.165C1638.8 344.485 1640.05 342.001 1639.34 339.618L1636.22 329.213C1635.76 327.664 1634.54 326.471 1633.03 326.086L1632.65 325.99C1630.4 325.418 1626.8 324.116 1623.59 322.18C1622.69 321.631 1621.88 321.075 1621.18 320.519C1622.85 319.522 1623.68 317.415 1623.07 315.381L1620.96 308.357C1620.54 306.955 1619.5 305.834 1618.16 305.352L1616.03 304.582C1616.42 302.225 1616.29 299.723 1615.55 297.253C1613.07 288.968 1604.66 284.168 1596.78 286.533C1588.89 288.897 1584.51 297.53 1587 305.815C1587.78 308.423 1589.15 310.687 1590.9 312.489L1589.91 313.825C1589.06 314.96 1588.8 316.469 1589.23 317.871L1591.33 324.896C1591.94 326.93 1593.79 328.234 1595.73 328.15Z" fill="#FFFEFE"/>
<path d="M1611.45 298.485C1612.37 301.584 1611.96 304.751 1610.53 307.305L1616.85 309.588L1618.96 316.613L1613.9 318.13C1615.12 321.313 1618.08 323.976 1621.51 326.046C1625.15 328.244 1629.16 329.692 1631.74 330.348L1632.11 330.444L1635.23 340.85L1595.18 352.857L1592.06 342.451L1592.33 342.163C1594.12 340.199 1596.67 336.781 1598.5 332.946C1600.22 329.332 1601.23 325.477 1600.5 322.148L1595.44 323.665L1593.33 316.64L1597.08 311.627C1594.32 310.317 1592.08 307.825 1591.1 304.583C1589.33 298.682 1592.45 292.532 1598.07 290.848C1603.69 289.164 1609.68 292.583 1611.45 298.485Z" fill="#34364C"/>
</g>
<rect width="102.916" height="108.125" transform="translate(1604.6 488.782) rotate(-16.6895)" fill="#B7C0D8"/>
<rect width="102.916" height="108.125" transform="translate(1666.7 695.921) rotate(-16.6895)" fill="#B7C0D8"/>
<g clip-path="url(#clip9_102_298)">
<rect width="102.916" height="108.125" transform="translate(1728.81 903.061) rotate(-16.6895)" fill="#B7C0D8"/>
<path d="M1775.66 903.719C1776.97 903.154 1778.47 903.306 1779.68 904.126L1791.14 911.882C1801.52 911.495 1809.37 917.437 1815.31 926.017C1821.42 934.858 1825.94 947.055 1829.76 959.805C1830.47 962.189 1829.21 964.672 1826.94 965.352L1788.65 976.834C1786.47 977.488 1784.13 976.238 1783.32 973.986C1782.6 971.977 1781.99 968.301 1782.27 964.274L1782.27 964.201C1779.06 967.542 1774.61 968.307 1770.71 966.878C1765.96 965.142 1762.11 960.116 1762.89 953.778C1763.45 949.207 1764.73 946.495 1765.69 944.443C1766.59 942.527 1766.95 941.694 1766.85 939.9C1766.22 929.025 1769.43 921.688 1773.97 917.419C1773.55 916.286 1773.28 915.153 1773.11 914.101C1772.69 911.482 1772.83 908.905 1773.17 906.948C1773.43 905.493 1774.36 904.284 1775.66 903.719Z" fill="#34364C"/>
<path fill-rule="evenodd" clip-rule="evenodd" d="M1790.09 916.456L1777.41 907.869C1776.87 910.95 1776.98 916.068 1779.88 918.919C1778.99 919.276 1778.17 919.698 1777.59 920.183C1773.85 923.273 1770.54 929.35 1771.14 939.752C1771.32 942.764 1770.52 944.472 1769.57 946.501C1768.67 948.415 1767.64 950.616 1767.16 954.468C1766.18 962.404 1776.6 966.924 1780.75 958.737C1783.09 954.134 1785.62 951.763 1787.75 949.772C1790.82 946.906 1793.04 944.829 1792.61 938.021C1794.2 940.78 1796.02 947.872 1790.57 954.166C1785.11 960.461 1786.41 969.889 1787.35 972.519L1825.65 961.037C1818.04 935.666 1808.27 914.704 1790.09 916.456Z" fill="#FFFEFE"/>
<ellipse cx="1782.5" cy="932.821" rx="3.21612" ry="3.37889" transform="rotate(-16.6895 1782.5 932.821)" fill="#34364C"/>
</g>
<g clip-path="url(#clip10_102_298)">
<rect width="102.916" height="108.125" transform="translate(1314.28 237.184) rotate(-16.6895)" fill="#E8EDF9"/>
<g clip-path="url(#clip11_102_298)">
<path fill-rule="evenodd" clip-rule="evenodd" d="M1362.55 241.38C1361.92 239.029 1363.18 236.633 1365.4 235.968L1371.56 234.121C1373.78 233.456 1376.15 234.762 1376.92 237.071L1377.32 238.274L1379.34 237.668C1381.61 236.988 1384.03 238.369 1384.74 240.752L1385.53 243.369C1389.69 240.962 1394.73 240.225 1399.91 242.586C1410.67 247.492 1414.57 263.365 1407.02 274.951C1405.2 277.747 1403.8 280.034 1403.01 282.193C1402.83 282.685 1402.68 283.152 1402.58 283.598L1406.92 282.942C1409.05 282.62 1411.11 283.992 1411.76 286.152L1414.19 294.243C1414.9 296.626 1413.64 299.11 1411.37 299.79L1368.29 312.708C1366.02 313.388 1363.6 312.007 1362.88 309.624L1360.46 301.533C1359.81 299.373 1360.78 297.09 1362.73 296.19L1366.72 294.35C1366.39 294.034 1366.01 293.722 1365.59 293.41C1363.74 292.043 1361.31 290.906 1358.25 289.574C1345.58 284.052 1340.1 268.648 1346.39 258.633C1349.41 253.812 1354.03 251.652 1358.83 251.374L1358.04 248.757C1357.33 246.373 1358.59 243.89 1360.86 243.21L1362.88 242.604L1362.55 241.38Z" fill="#F4F7FA"/>
<path fill-rule="evenodd" clip-rule="evenodd" d="M1366.69 240.284L1372.86 238.436L1374.63 243.783L1380.63 241.984L1382.58 248.457L1376.77 250.198L1379.25 257.442C1379.32 257.269 1379.39 257.098 1379.47 256.928C1383.2 248.982 1390.52 243.155 1398.27 246.69C1406.05 250.237 1409.77 262.643 1403.44 272.362C1399.85 277.868 1396.72 283.077 1398.65 288.744L1407.65 287.383L1410.08 295.474L1366.99 308.393L1364.57 300.301L1372.83 296.487C1371.32 290.692 1365.84 288.064 1359.82 285.44C1349.19 280.808 1345.47 268.401 1350.01 261.16C1354.54 253.943 1363.86 254.783 1371.34 259.365C1371.5 259.463 1371.66 259.565 1371.81 259.67L1369.9 252.257L1364.09 253.998L1362.15 247.525L1368.15 245.726L1366.69 240.284ZM1368.32 266.808C1374.03 272.159 1376.8 279.584 1377.79 282.878C1375.9 283.448 1367.8 282.292 1362.41 278.023C1358.54 274.95 1356.1 269.396 1357.75 266.46C1359.41 263.524 1364.75 263.464 1368.32 266.808ZM1386.09 261.481C1384.27 269.089 1386.04 276.813 1387.03 280.107C1388.92 279.545 1395.05 274.124 1397.19 267.596C1398.74 262.896 1397.72 256.918 1394.72 255.377C1391.73 253.835 1387.23 256.726 1386.09 261.481Z" fill="#34364D"/>
</g>
</g>
<rect width="102.916" height="108.125" transform="translate(1376.39 444.324) rotate(-16.6895)" fill="#E8EDF9"/>
<rect width="102.916" height="108.125" transform="translate(1438.49 651.463) rotate(-16.6895)" fill="#E8EDF9"/>
<g clip-path="url(#clip12_102_298)">
<rect width="102.916" height="108.125" transform="translate(1500.59 858.603) rotate(-16.6895)" fill="#E8EDF9"/>
<path d="M1553.83 905.11C1553.55 905.96 1553.18 906.867 1552.73 907.825C1551.12 911.203 1548.83 914.274 1547.26 915.988L1547 916.276C1545.95 917.428 1545.59 919.095 1546.05 920.644L1549.17 931.049C1549.89 933.432 1552.31 934.813 1554.58 934.133L1594.62 922.126C1596.89 921.446 1598.15 918.962 1597.44 916.579L1594.32 906.173C1593.85 904.625 1592.64 903.432 1591.13 903.047L1590.75 902.951C1588.5 902.379 1584.89 901.077 1581.69 899.141C1580.79 898.592 1579.98 898.036 1579.28 897.48C1580.95 896.483 1581.77 894.376 1581.16 892.342L1579.06 885.317C1578.64 883.915 1577.6 882.795 1576.26 882.313L1574.13 881.543C1574.52 879.186 1574.39 876.683 1573.65 874.214C1571.17 865.929 1562.76 861.129 1554.87 863.494C1546.99 865.858 1542.61 874.491 1545.09 882.776C1545.88 885.384 1547.25 887.648 1549 889.45L1548 890.785C1547.16 891.921 1546.9 893.43 1547.32 894.832L1549.43 901.857C1550.04 903.891 1551.89 905.195 1553.83 905.11Z" fill="#34364C"/>
<path d="M1569.54 875.445C1570.47 878.544 1570.05 881.712 1568.63 884.265L1574.95 886.549L1577.06 893.574L1572 895.091C1573.22 898.274 1576.18 900.936 1579.61 903.007C1583.24 905.205 1587.26 906.653 1589.83 907.309L1590.21 907.405L1593.33 917.81L1553.28 929.818L1550.16 919.412L1550.43 919.124C1552.21 917.16 1554.77 913.742 1556.6 909.906C1558.32 906.292 1559.33 902.438 1558.6 899.108L1553.54 900.625L1551.43 893.601L1555.17 888.587C1552.42 887.278 1550.17 884.785 1549.2 881.544C1547.43 875.643 1550.55 869.493 1556.17 867.809C1561.79 866.125 1567.77 869.544 1569.54 875.445Z" fill="#FFFEFE"/>
</g>
<g clip-path="url(#clip13_102_298)">
<rect width="102.916" height="108.125" transform="translate(1117.12 296.296) rotate(-16.6895)" fill="#E8EDF9"/>
<path d="M1165.81 315.662C1165.04 314.594 1164.43 313.376 1164.03 312.037C1162.18 305.872 1165.44 299.448 1171.3 297.689C1177.17 295.93 1183.43 299.501 1185.27 305.666C1185.82 307.472 1185.92 309.307 1185.64 311.038C1186.71 310.8 1187.88 310.991 1188.89 311.66C1194.38 315.293 1199.98 321.14 1202.37 329.143C1204.09 334.865 1203.49 339.667 1201.87 343.481L1206.95 342.925C1209.02 342.698 1210.99 344.061 1211.62 346.157L1214.05 354.249C1214.39 355.393 1214.28 356.62 1213.76 357.661C1213.23 358.701 1212.32 359.469 1211.23 359.795L1172.13 371.518C1169.86 372.198 1167.44 370.818 1166.73 368.434L1164.3 360.343C1163.68 358.25 1164.57 356.03 1166.42 355.077L1170.52 352.968C1167.03 350.678 1163.85 346.986 1162.12 341.212C1160.25 334.968 1160.92 328.84 1162.37 323.863C1163.28 320.734 1164.54 317.934 1165.81 315.662Z" fill="#FFFEFE"/>
<path d="M1184.36 333.922L1180.25 335.153C1177.88 327.229 1177.79 318.633 1181.12 311.325C1181.57 309.953 1181.62 308.413 1181.17 306.897C1180.03 303.116 1176.2 300.926 1172.6 302.005C1169 303.084 1167 307.024 1168.13 310.805C1168.69 312.671 1169.91 314.149 1171.43 315.038C1168.28 319.308 1163.16 329.749 1166.23 339.981C1169.32 350.307 1178.28 352.177 1182.58 351.823L1168.41 359.112L1170.84 367.203L1209.94 355.48L1207.51 347.389L1191.3 349.164C1195.11 346.993 1201.32 340.543 1198.27 330.375C1196.27 323.716 1191.54 318.666 1186.65 315.428C1183.67 319.848 1182.7 328.372 1184.36 333.922Z" fill="#34364C"/>
</g>
<rect width="102.916" height="108.125" transform="translate(1179.23 503.436) rotate(-16.6895)" fill="#E8EDF9"/>
<rect width="102.916" height="108.125" transform="translate(1241.33 710.575) rotate(-16.6895)" fill="#E8EDF9"/>
<g clip-path="url(#clip14_102_298)">
<rect width="102.916" height="108.125" transform="translate(1303.43 917.715) rotate(-16.6895)" fill="#E8EDF9"/>
<path d="M1356.67 964.222C1356.39 965.072 1356.02 965.979 1355.57 966.937C1353.96 970.315 1351.66 973.386 1350.1 975.1L1349.84 975.388C1348.79 976.54 1348.43 978.207 1348.89 979.755L1352.01 990.161C1352.73 992.544 1355.15 993.925 1357.41 993.245L1397.46 981.238C1399.73 980.558 1400.99 978.074 1400.28 975.691L1397.16 965.285C1396.69 963.737 1395.47 962.544 1393.96 962.159L1393.59 962.063C1391.34 961.491 1387.73 960.189 1384.53 958.253C1383.62 957.704 1382.82 957.148 1382.12 956.592C1383.79 955.595 1384.61 953.488 1384 951.454L1381.9 944.429C1381.48 943.027 1380.43 941.907 1379.1 941.425L1376.97 940.654C1377.36 938.298 1377.23 935.795 1376.49 933.326C1374.01 925.041 1365.6 920.241 1357.71 922.605C1349.83 924.97 1345.45 933.603 1347.93 941.888C1348.71 944.496 1350.09 946.76 1351.84 948.562L1350.84 949.897C1350 951.033 1349.74 952.542 1350.16 953.944L1352.27 960.969C1352.88 963.003 1354.73 964.307 1356.67 964.222Z" fill="#34364C"/>
<path d="M1372.38 934.557C1373.31 937.656 1372.89 940.824 1371.47 943.377L1377.79 945.661L1379.9 952.686L1374.84 954.203C1376.06 957.386 1379.02 960.048 1382.45 962.119C1386.08 964.317 1390.1 965.765 1392.67 966.421L1393.05 966.517L1396.17 976.922L1356.12 988.929L1353 978.524L1353.26 978.236C1355.05 976.272 1357.61 972.854 1359.44 969.018C1361.16 965.404 1362.17 961.55 1361.44 958.22L1356.38 959.737L1354.27 952.713L1358.01 947.699C1355.26 946.39 1353.01 943.897 1352.04 940.656C1350.27 934.755 1353.39 928.605 1359.01 926.921C1364.62 925.237 1370.61 928.656 1372.38 934.557Z" fill="#FFFEFE"/>
</g>
<g clip-path="url(#clip15_102_298)">
<rect width="102.916" height="108.125" transform="translate(1511.44 178.072) rotate(-16.6895)" fill="#E8EDF9"/>
<path d="M1558.3 178.73C1559.6 178.165 1561.11 178.318 1562.32 179.137L1573.78 186.894C1584.15 186.507 1592.01 192.449 1597.95 201.029C1604.06 209.869 1608.57 222.067 1612.4 234.817C1613.11 237.2 1611.85 239.684 1609.58 240.364L1571.28 251.846C1569.1 252.5 1566.77 251.249 1565.96 248.998C1565.24 246.989 1564.63 243.312 1564.9 239.286L1564.91 239.212C1561.69 242.554 1557.24 243.318 1553.34 241.89C1548.6 240.154 1544.75 235.128 1545.53 228.789C1546.09 224.218 1547.36 221.506 1548.32 219.455C1549.22 217.539 1549.59 216.705 1549.48 214.912C1548.86 204.037 1552.07 196.699 1556.61 192.431C1556.18 191.297 1555.91 190.164 1555.74 189.112C1555.33 186.494 1555.46 183.916 1555.81 181.96C1556.06 180.505 1557 179.295 1558.3 178.73Z" fill="#FFFEFE"/>
<path fill-rule="evenodd" clip-rule="evenodd" d="M1572.73 191.467L1560.04 182.881C1559.5 185.962 1559.62 191.079 1562.52 193.931C1561.63 194.288 1560.81 194.71 1560.23 195.194C1556.48 198.285 1553.18 204.361 1553.78 214.764C1553.96 217.776 1553.16 219.483 1552.2 221.513C1551.31 223.427 1550.27 225.627 1549.8 229.48C1548.82 237.416 1559.24 241.936 1563.39 233.749C1565.73 229.146 1568.26 226.775 1570.39 224.784C1573.46 221.918 1575.68 219.84 1575.24 213.033C1576.83 215.792 1578.66 222.883 1573.2 229.178C1567.75 235.473 1569.05 244.9 1569.99 247.531L1608.29 236.048C1600.68 210.677 1590.91 189.715 1572.73 191.467Z" fill="#34364C"/>
<ellipse cx="1565.13" cy="207.833" rx="3.21612" ry="3.37889" transform="rotate(-16.6895 1565.13 207.833)" fill="#FFFEFE"/>
</g>
<rect width="102.916" height="108.125" transform="translate(1573.55 385.212) rotate(-16.6895)" fill="#E8EDF9"/>
<rect width="102.916" height="108.125" transform="translate(1635.65 592.351) rotate(-16.6895)" fill="#E8EDF9"/>
<g clip-path="url(#clip16_102_298)">
<rect width="102.916" height="108.125" transform="translate(1697.75 799.491) rotate(-16.6895)" fill="#E8EDF9"/>
<path d="M1750.99 845.998C1750.71 846.848 1750.35 847.755 1749.89 848.713C1748.28 852.091 1745.99 855.162 1744.43 856.876L1744.16 857.164C1743.11 858.316 1742.75 859.983 1743.22 861.532L1746.34 871.937C1747.05 874.32 1749.47 875.701 1751.74 875.021L1791.79 863.014C1794.05 862.334 1795.31 859.85 1794.6 857.467L1791.48 847.061C1791.02 845.513 1789.8 844.32 1788.29 843.935L1787.91 843.839C1785.66 843.267 1782.06 841.965 1778.85 840.029C1777.95 839.48 1777.14 838.924 1776.44 838.368C1778.11 837.371 1778.94 835.264 1778.33 833.23L1776.22 826.206C1775.8 824.803 1774.76 823.683 1773.42 823.201L1771.29 822.431C1771.68 820.074 1771.55 817.571 1770.81 815.102C1768.33 806.817 1759.92 802.017 1752.04 804.382C1744.15 806.746 1739.77 815.379 1742.26 823.664C1743.04 826.272 1744.41 828.536 1746.16 830.338L1745.17 831.673C1744.32 832.809 1744.06 834.318 1744.48 835.72L1746.59 842.745C1747.2 844.779 1749.05 846.083 1750.99 845.998Z" fill="#34364C"/>
<path d="M1766.7 816.333C1767.63 819.433 1767.21 822.6 1765.79 825.153L1772.11 827.437L1774.22 834.462L1769.16 835.979C1770.38 839.162 1773.34 841.824 1776.77 843.895C1780.4 846.093 1784.42 847.541 1786.99 848.197L1787.37 848.293L1790.49 858.698L1750.44 870.706L1747.32 860.3L1747.59 860.012C1749.38 858.048 1751.93 854.63 1753.76 850.794C1755.48 847.181 1756.49 843.326 1755.76 839.996L1750.7 841.513L1748.59 834.489L1752.34 829.475C1749.58 828.166 1747.33 825.674 1746.36 822.432C1744.59 816.531 1747.71 810.381 1753.33 808.697C1758.95 807.013 1764.94 810.432 1766.7 816.333Z" fill="#FFFEFE"/>
</g>
<g clip-path="url(#clip17_102_298)">
<rect width="102.916" height="108.125" transform="translate(1018.54 325.852) rotate(-16.6895)" fill="#B7C0D8"/>
<path d="M1065.4 326.51C1066.7 325.945 1068.21 326.097 1069.42 326.917L1080.88 334.674C1091.25 334.287 1099.11 340.229 1105.04 348.808C1111.16 357.649 1115.67 369.847 1119.49 382.597C1120.21 384.98 1118.95 387.463 1116.68 388.144L1078.38 399.626C1076.2 400.28 1073.86 399.029 1073.06 396.778C1072.34 394.768 1071.72 391.092 1072 387.066L1072.01 386.992C1068.79 390.334 1064.34 391.098 1060.44 389.67C1055.7 387.934 1051.84 382.908 1052.63 376.569C1053.19 371.998 1054.46 369.286 1055.42 367.235C1056.32 365.319 1056.68 364.485 1056.58 362.692C1055.95 351.817 1059.17 344.479 1063.7 340.21C1063.28 339.077 1063.01 337.944 1062.84 336.892C1062.42 334.274 1062.56 331.696 1062.9 329.739C1063.16 328.285 1064.09 327.075 1065.4 326.51Z" fill="#FFFEFE"/>
<path fill-rule="evenodd" clip-rule="evenodd" d="M1079.83 339.247L1067.14 330.661C1066.6 333.742 1066.72 338.859 1069.61 341.711C1068.73 342.068 1067.91 342.49 1067.32 342.974C1063.58 346.065 1060.28 352.141 1060.88 362.544C1061.05 365.556 1060.25 367.263 1059.3 369.292C1058.4 371.207 1057.37 373.407 1056.9 377.259C1055.92 385.196 1066.34 389.715 1070.49 381.529C1072.82 376.926 1075.36 374.554 1077.49 372.563C1080.55 369.698 1082.77 367.62 1082.34 360.812C1083.93 363.571 1085.75 370.663 1080.3 376.958C1074.85 383.253 1076.15 392.68 1077.09 395.31L1115.39 383.828C1107.78 358.457 1098.01 337.495 1079.83 339.247Z" fill="#34364C"/>
<ellipse cx="1072.23" cy="355.612" rx="3.21612" ry="3.37889" transform="rotate(-16.6895 1072.23 355.612)" fill="#FFFEFE"/>
</g>
<rect width="102.916" height="108.125" transform="translate(1080.64 532.992) rotate(-16.6895)" fill="#B7C0D8"/>
<rect width="102.916" height="108.125" transform="translate(1142.75 740.131) rotate(-16.6895)" fill="#B7C0D8"/>
<g clip-path="url(#clip18_102_298)">
<rect width="102.916" height="108.125" transform="translate(1204.85 947.271) rotate(-16.6895)" fill="#B7C0D8"/>
<path d="M1258.09 993.778C1257.81 994.628 1257.44 995.535 1256.99 996.493C1255.38 999.871 1253.08 1002.94 1251.52 1004.66L1251.26 1004.94C1250.21 1006.1 1249.85 1007.76 1250.31 1009.31L1253.43 1019.72C1254.15 1022.1 1256.57 1023.48 1258.83 1022.8L1298.88 1010.79C1301.15 1010.11 1302.41 1007.63 1301.7 1005.25L1298.58 994.841C1298.11 993.293 1296.89 992.1 1295.38 991.715L1295.01 991.619C1292.76 991.047 1289.15 989.745 1285.95 987.809C1285.04 987.26 1284.24 986.704 1283.54 986.148C1285.2 985.151 1286.03 983.044 1285.42 981.01L1283.32 973.985C1282.9 972.583 1281.85 971.463 1280.52 970.981L1278.39 970.21C1278.78 967.854 1278.65 965.351 1277.91 962.882C1275.43 954.597 1267.02 949.797 1259.13 952.161C1251.25 954.526 1246.87 963.159 1249.35 971.444C1250.13 974.052 1251.51 976.316 1253.26 978.118L1252.26 979.453C1251.42 980.589 1251.16 982.098 1251.58 983.5L1253.69 990.525C1254.3 992.559 1256.15 993.863 1258.09 993.778Z" fill="#34364C"/>
<path d="M1273.8 964.113C1274.73 967.212 1274.31 970.38 1272.89 972.933L1279.21 975.217L1281.32 982.242L1276.26 983.759C1277.48 986.942 1280.44 989.604 1283.87 991.675C1287.5 993.873 1291.52 995.321 1294.09 995.977L1294.47 996.073L1297.59 1006.48L1257.54 1018.49L1254.42 1008.08L1254.68 1007.79C1256.47 1005.83 1259.03 1002.41 1260.85 998.574C1262.58 994.96 1263.59 991.105 1262.86 987.776L1257.79 989.293L1255.69 982.269L1259.43 977.255C1256.68 975.946 1254.43 973.453 1253.46 970.212C1251.69 964.31 1254.81 958.161 1260.43 956.477C1266.04 954.793 1272.03 958.212 1273.8 964.113Z" fill="#FFFEFE"/>
</g>
<g clip-path="url(#clip19_102_298)">
<rect width="102.916" height="108.125" transform="translate(1049.59 429.422) rotate(-16.6895)" fill="#E8EDF9"/>
<path d="M1102.83 475.929C1102.55 476.779 1102.18 477.686 1101.73 478.644C1100.12 482.022 1097.82 485.093 1096.26 486.807L1096 487.095C1094.95 488.247 1094.59 489.914 1095.05 491.463L1098.17 501.868C1098.89 504.251 1101.31 505.632 1103.58 504.952L1143.62 492.945C1145.89 492.265 1147.15 489.781 1146.44 487.398L1143.32 476.992C1142.85 475.444 1141.63 474.251 1140.12 473.866L1139.75 473.77C1137.5 473.198 1133.89 471.896 1130.69 469.96C1129.78 469.411 1128.98 468.855 1128.28 468.299C1129.95 467.302 1130.77 465.195 1130.16 463.161L1128.06 456.137C1127.64 454.734 1126.59 453.614 1125.26 453.132L1123.13 452.362C1123.52 450.005 1123.39 447.502 1122.65 445.033C1120.17 436.748 1111.76 431.948 1103.87 434.313C1095.99 436.677 1091.61 445.31 1094.09 453.595C1094.88 456.203 1096.25 458.467 1098 460.269L1097 461.604C1096.16 462.74 1095.9 464.249 1096.32 465.651L1098.43 472.676C1099.04 474.71 1100.89 476.014 1102.83 475.929Z" fill="#FFFEFE"/>
<path d="M1118.54 446.264C1119.47 449.364 1119.05 452.531 1117.63 455.084L1123.95 457.368L1126.06 464.393L1121 465.91C1122.22 469.093 1125.18 471.755 1128.61 473.826C1132.24 476.024 1136.26 477.472 1138.83 478.128L1139.21 478.224L1142.33 488.629L1102.28 500.637L1099.16 490.231L1099.42 489.943C1101.21 487.979 1103.77 484.561 1105.6 480.725C1107.32 477.112 1108.33 473.257 1107.6 469.927L1102.54 471.444L1100.43 464.42L1104.17 459.406C1101.42 458.097 1099.17 455.605 1098.2 452.363C1096.43 446.462 1099.55 440.312 1105.17 438.628C1110.79 436.944 1116.77 440.363 1118.54 446.264Z" fill="#34364C"/>
</g>
<rect width="102.916" height="108.125" transform="translate(1111.7 636.562) rotate(-16.6895)" fill="#E8EDF9"/>
<rect width="102.916" height="108.125" transform="translate(1173.8 843.701) rotate(-16.6895)" fill="#E8EDF9"/>
<g clip-path="url(#clip20_102_298)">
<rect width="102.916" height="108.125" transform="translate(1246.75 370.31) rotate(-16.6895)" fill="#E8EDF9"/>
<rect opacity="0.5" x="1246.75" y="370.31" width="102.916" height="108.125" transform="rotate(-16.6895 1246.75 370.31)" fill="#7B61FF"/>
</g>
<g clip-path="url(#clip21_102_298)">
<rect width="102.916" height="108.125" transform="translate(1308.86 577.45) rotate(-16.6895)" fill="#E8EDF9"/>
<rect opacity="0.5" x="1308.86" y="577.45" width="102.916" height="108.125" transform="rotate(-16.6895 1308.86 577.45)" fill="#7B61FF"/>
<path d="M1362.09 623.957C1361.81 624.807 1361.45 625.714 1360.99 626.671C1359.38 630.05 1357.09 633.121 1355.53 634.835L1355.27 635.123C1354.22 636.275 1353.85 637.942 1354.32 639.49L1357.44 649.896C1358.15 652.279 1360.57 653.66 1362.84 652.98L1402.89 640.972C1405.16 640.292 1406.42 637.809 1405.7 635.426L1402.58 625.02C1402.12 623.471 1400.9 622.278 1399.39 621.894L1399.01 621.797C1396.76 621.225 1393.16 619.924 1389.96 617.988C1389.05 617.439 1388.25 616.882 1387.54 616.326C1389.21 615.33 1390.04 613.223 1389.43 611.189L1387.32 604.164C1386.9 602.762 1385.86 601.642 1384.53 601.16L1382.39 600.389C1382.78 598.033 1382.66 595.53 1381.91 593.06C1379.43 584.776 1371.02 579.976 1363.14 582.34C1355.25 584.704 1350.87 593.337 1353.36 601.622C1354.14 604.231 1355.51 606.494 1357.27 608.297L1356.27 609.632C1355.42 610.768 1355.17 612.277 1355.59 613.679L1357.69 620.704C1358.3 622.738 1360.15 624.041 1362.09 623.957Z" fill="#FFFEFE"/>
<path d="M1377.81 594.292C1378.74 597.391 1378.32 600.559 1376.9 603.112L1383.22 605.396L1385.32 612.42L1380.26 613.937C1381.48 617.12 1384.45 619.783 1387.87 621.854C1391.51 624.052 1395.52 625.5 1398.1 626.155L1398.47 626.252L1401.59 636.657L1361.55 648.664L1358.43 638.259L1358.69 637.97C1360.48 636.006 1363.03 632.588 1364.86 628.753C1366.58 625.139 1367.59 621.284 1366.86 617.955L1361.8 619.472L1359.69 612.447L1363.44 607.434C1360.68 606.125 1358.44 603.632 1357.47 600.391C1355.7 594.489 1358.82 588.34 1364.43 586.656C1370.05 584.971 1376.04 588.39 1377.81 594.292Z" fill="#34364C"/>
</g>
<rect width="102.916" height="108.125" transform="translate(1370.96 784.589) rotate(-16.6895)" fill="#E8EDF9"/>
<g clip-path="url(#clip22_102_298)">
<rect width="102.916" height="108.125" transform="translate(1443.92 311.198) rotate(-16.6895)" fill="#E8EDF9"/>
<path d="M1497.15 357.706C1496.87 358.555 1496.51 359.463 1496.05 360.42C1494.44 363.798 1492.15 366.869 1490.59 368.583L1490.32 368.871C1489.27 370.023 1488.91 371.69 1489.38 373.239L1492.5 383.644C1493.21 386.028 1495.63 387.408 1497.9 386.728L1537.95 374.721C1540.21 374.041 1541.47 371.557 1540.76 369.174L1537.64 358.769C1537.18 357.22 1535.96 356.027 1534.45 355.642L1534.07 355.546C1531.82 354.974 1528.22 353.672 1525.01 351.736C1524.11 351.187 1523.3 350.631 1522.6 350.075C1524.27 349.078 1525.1 346.971 1524.49 344.937L1522.38 337.913C1521.96 336.51 1520.92 335.39 1519.58 334.908L1517.45 334.138C1517.84 331.781 1517.71 329.278 1516.97 326.809C1514.49 318.524 1506.08 313.724 1498.2 316.089C1490.31 318.453 1485.93 327.086 1488.42 335.371C1489.2 337.979 1490.57 340.243 1492.32 342.045L1491.33 343.381C1490.48 344.516 1490.22 346.025 1490.64 347.427L1492.75 354.452C1493.36 356.486 1495.21 357.79 1497.15 357.706Z" fill="#FFFEFE"/>
<path d="M1512.87 328.04C1513.79 331.14 1513.38 334.307 1511.95 336.861L1518.27 339.144L1520.38 346.169L1515.32 347.686C1516.54 350.869 1519.5 353.531 1522.93 355.602C1526.56 357.8 1530.58 359.248 1533.15 359.904L1533.53 360L1536.65 370.406L1496.6 382.413L1493.48 372.007L1493.75 371.719C1495.54 369.755 1498.09 366.337 1499.92 362.502C1501.64 358.888 1502.65 355.033 1501.92 351.703L1496.86 353.221L1494.75 346.196L1498.5 341.182C1495.74 339.873 1493.49 337.381 1492.52 334.139C1490.75 328.238 1493.87 322.088 1499.49 320.404C1505.11 318.72 1511.1 322.139 1512.87 328.04Z" fill="#34364C"/>
</g>
<rect width="102.916" height="108.125" transform="translate(1506.02 518.338) rotate(-16.6895)" fill="#E8EDF9"/>
<rect width="102.916" height="108.125" transform="translate(1568.12 725.477) rotate(-16.6895)" fill="#E8EDF9"/>
<g clip-path="url(#clip23_102_298)">
<rect width="102.916" height="108.125" transform="translate(1630.23 932.617) rotate(-16.6895)" fill="#E8EDF9"/>
<path d="M1678.91 951.982C1678.14 950.915 1677.53 949.697 1677.13 948.357C1675.28 942.192 1678.54 935.769 1684.41 934.01C1690.28 932.25 1696.53 935.822 1698.38 941.986C1698.92 943.792 1699.02 945.627 1698.75 947.359C1699.82 947.121 1700.99 947.312 1702 947.98C1707.48 951.614 1713.08 957.46 1715.48 965.464C1717.19 971.185 1716.59 975.987 1714.97 979.802L1720.05 979.246C1722.12 979.019 1724.1 980.382 1724.72 982.478L1727.15 990.569C1727.49 991.714 1727.39 992.941 1726.86 993.981C1726.33 995.021 1725.43 995.789 1724.34 996.116L1685.24 1007.84C1682.97 1008.52 1680.55 1007.14 1679.83 1004.75L1677.41 996.664C1676.78 994.57 1677.67 992.35 1679.53 991.397L1683.62 989.289C1680.14 986.998 1676.95 983.306 1675.22 977.533C1673.35 971.289 1674.02 965.16 1675.48 960.183C1676.39 957.054 1677.64 954.254 1678.91 951.982Z" fill="#34364C"/>
<path d="M1697.47 970.242L1693.36 971.474C1690.98 963.55 1690.9 954.953 1694.22 947.646C1694.68 946.274 1694.73 944.733 1694.27 943.218C1693.14 939.437 1689.3 937.246 1685.7 938.325C1682.1 939.404 1680.1 943.344 1681.24 947.126C1681.8 948.991 1683.01 950.469 1684.54 951.359C1681.38 955.628 1676.26 966.069 1679.33 976.301C1682.43 986.627 1691.39 988.497 1695.69 988.144L1681.52 995.432L1683.94 1003.52L1723.04 991.801L1720.62 983.709L1704.4 985.484C1708.21 983.313 1714.42 976.864 1711.37 966.695C1709.38 960.037 1704.64 954.987 1699.76 951.749C1696.78 956.169 1695.8 964.693 1697.47 970.242Z" fill="#FFFEFE"/>
</g>
<g clip-path="url(#clip24_102_298)">
<rect width="102.916" height="108.125" transform="translate(1641.08 252.086) rotate(-16.6895)" fill="#E8EDF9"/>
<path d="M1694.31 298.594C1694.03 299.443 1693.67 300.351 1693.21 301.308C1691.6 304.686 1689.31 307.757 1687.75 309.471L1687.48 309.759C1686.43 310.911 1686.07 312.578 1686.54 314.127L1689.66 324.532C1690.37 326.916 1692.79 328.296 1695.06 327.616L1735.11 315.609C1737.38 314.929 1738.64 312.445 1737.92 310.062L1734.8 299.657C1734.34 298.108 1733.12 296.915 1731.61 296.53L1731.23 296.434C1728.98 295.862 1725.38 294.56 1722.18 292.624C1721.27 292.076 1720.46 291.519 1719.76 290.963C1721.43 289.966 1722.26 287.859 1721.65 285.825L1719.54 278.801C1719.12 277.399 1718.08 276.278 1716.75 275.796L1714.61 275.026C1715 272.669 1714.87 270.167 1714.13 267.697C1711.65 259.412 1703.24 254.613 1695.36 256.977C1687.47 259.341 1683.09 267.974 1685.58 276.259C1686.36 278.867 1687.73 281.131 1689.48 282.933L1688.49 284.269C1687.64 285.404 1687.39 286.913 1687.81 288.316L1689.91 295.34C1690.52 297.374 1692.37 298.678 1694.31 298.594Z" fill="#FFFEFE"/>
<path d="M1710.03 268.929C1710.96 272.028 1710.54 275.195 1709.12 277.749L1715.43 280.032L1717.54 287.057L1712.48 288.574C1713.7 291.757 1716.67 294.42 1720.09 296.49C1723.73 298.688 1727.74 300.136 1730.32 300.792L1730.69 300.888L1733.81 311.294L1693.76 323.301L1690.65 312.895L1690.91 312.607C1692.7 310.643 1695.25 307.225 1697.08 303.39C1698.8 299.776 1699.81 295.921 1699.08 292.592L1694.02 294.109L1691.91 287.084L1695.66 282.071C1692.9 280.761 1690.66 278.269 1689.68 275.027C1687.91 269.126 1691.03 262.976 1696.65 261.292C1702.27 259.608 1708.26 263.027 1710.03 268.929Z" fill="#34364C"/>
</g>
<rect width="102.916" height="108.125" transform="translate(1703.18 459.226) rotate(-16.6895)" fill="#E8EDF9"/>
<rect width="102.916" height="108.125" transform="translate(1765.28 666.365) rotate(-16.6895)" fill="#E8EDF9"/>
<g clip-path="url(#clip25_102_298)">
<rect width="102.916" height="108.125" transform="translate(1827.39 873.505) rotate(-16.6895)" fill="#E8EDF9"/>
<path d="M1871.91 880.146C1872.66 879.922 1873.42 879.922 1874.13 880.108C1874.63 879.559 1875.27 879.139 1876.02 878.915L1887.31 875.528C1888.06 875.304 1888.82 875.303 1889.54 875.49C1890.03 874.941 1890.67 874.521 1891.42 874.296L1901.69 871.218C1903.96 870.538 1906.37 871.918 1907.09 874.302L1910 884.011C1910.41 885.37 1910.18 886.831 1909.39 887.956L1904.55 894.851L1911.43 911.282C1913.26 915.632 1915.93 917.315 1920.05 920.507C1920.8 921.094 1921.36 921.916 1921.64 922.85L1924.23 931.481C1924.95 933.864 1923.69 936.347 1921.42 937.028L1881.37 949.035C1879.1 949.715 1876.68 948.334 1875.97 945.951L1873.38 937.32C1873.1 936.386 1873.12 935.391 1873.43 934.484C1875.11 929.554 1876.41 926.678 1875.54 922.042L1872.25 904.535L1864.41 901.441C1863.14 900.936 1862.14 899.84 1861.74 898.481L1858.83 888.772C1858.11 886.388 1859.37 883.905 1861.64 883.225L1871.91 880.146Z" fill="#34364C"/>
<path d="M1862.93 887.54L1873.2 884.461L1875.14 890.935L1879.25 889.703L1877.31 883.23L1888.6 879.843L1890.55 886.316L1894.65 885.085L1892.71 878.612L1902.98 875.533L1905.89 885.243L1899.62 894.179L1907.49 912.982L1879.77 921.295L1876 901.26L1865.84 897.25L1862.93 887.54Z" fill="#FFFEFE"/>
<path d="M1881.06 925.61L1908.79 917.298L1917.54 924.081L1920.12 932.712L1880.08 944.719L1877.49 936.089L1881.06 925.61Z" fill="#FFFEFE"/>
</g>
<g clip-path="url(#clip26_102_298)">
<rect width="102.916" height="108.125" transform="translate(1412.86 207.628) rotate(-16.6895)" fill="#B7C0D8"/>
<path d="M1461.55 226.994C1460.78 225.926 1460.17 224.708 1459.77 223.369C1457.92 217.204 1461.18 210.781 1467.05 209.021C1472.91 207.262 1479.17 210.833 1481.02 216.998C1481.56 218.804 1481.66 220.639 1481.39 222.371C1482.46 222.133 1483.62 222.323 1484.63 222.992C1490.12 226.625 1495.72 232.472 1498.12 240.475C1499.83 246.197 1499.23 250.999 1497.61 254.814L1502.69 254.257C1504.76 254.03 1506.73 255.394 1507.36 257.489L1509.79 265.581C1510.13 266.725 1510.03 267.953 1509.5 268.993C1508.97 270.033 1508.06 270.801 1506.97 271.128L1467.87 282.85C1465.6 283.531 1463.19 282.15 1462.47 279.767L1460.05 271.675C1459.42 269.582 1460.31 267.362 1462.16 266.409L1466.26 264.301C1462.78 262.01 1459.59 258.318 1457.86 252.544C1455.99 246.3 1456.66 240.172 1458.11 235.195C1459.03 232.066 1460.28 229.266 1461.55 226.994Z" fill="#FFFEFE"/>
<path d="M1480.1 245.254L1476 246.485C1473.62 238.562 1473.54 229.965 1476.86 222.657C1477.31 221.285 1477.36 219.745 1476.91 218.229C1475.77 214.448 1471.94 212.258 1468.34 213.337C1464.74 214.416 1462.74 218.356 1463.87 222.137C1464.43 224.003 1465.65 225.481 1467.17 226.371C1464.02 230.64 1458.9 241.081 1461.97 251.313C1465.06 261.639 1474.02 263.509 1478.32 263.155L1464.15 270.444L1466.58 278.535L1505.68 266.812L1503.25 258.721L1487.04 260.496C1490.85 258.325 1497.06 251.875 1494.01 241.707C1492.01 235.048 1487.28 229.998 1482.39 226.76C1479.42 231.18 1478.44 239.704 1480.1 245.254Z" fill="#34364C"/>
</g>
<rect width="102.916" height="108.125" transform="translate(1474.97 414.768) rotate(-16.6895)" fill="#B7C0D8"/>
<g clip-path="url(#clip27_102_298)">
<rect width="102.916" height="108.125" transform="translate(1537.07 621.907) rotate(-16.6895)" fill="#B7C0D8"/>
<path d="M1590.31 668.415C1590.03 669.265 1589.66 670.172 1589.21 671.129C1587.6 674.508 1585.3 677.578 1583.74 679.292L1583.48 679.581C1582.43 680.733 1582.07 682.399 1582.53 683.948L1585.65 694.353C1586.37 696.737 1588.78 698.118 1591.05 697.437L1631.1 685.43C1633.37 684.75 1634.63 682.267 1633.92 679.883L1630.8 669.478C1630.33 667.929 1629.11 666.736 1627.6 666.352L1627.22 666.255C1624.98 665.683 1621.37 664.381 1618.17 662.445C1617.26 661.897 1616.46 661.34 1615.76 660.784C1617.42 659.788 1618.25 657.681 1617.64 655.647L1615.54 648.622C1615.12 647.22 1614.07 646.099 1612.74 645.618L1610.61 644.847C1611 642.49 1610.87 639.988 1610.13 637.518C1607.64 629.233 1599.24 624.434 1591.35 626.798C1583.47 629.162 1579.09 637.795 1581.57 646.08C1582.35 648.689 1583.72 650.952 1585.48 652.755L1584.48 654.09C1583.63 655.225 1583.38 656.735 1583.8 658.137L1585.91 665.161C1586.52 667.195 1588.37 668.499 1590.31 668.415Z" fill="#34364C"/>
<path d="M1606.02 638.75C1606.95 641.849 1606.53 645.017 1605.11 647.57L1611.43 649.853L1613.53 656.878L1608.47 658.395C1609.69 661.578 1612.66 664.241 1616.09 666.312C1619.72 668.51 1623.74 669.957 1626.31 670.613L1626.69 670.709L1629.81 681.115L1589.76 693.122L1586.64 682.717L1586.9 682.428C1588.69 680.464 1591.25 677.046 1593.07 673.211C1594.79 669.597 1595.81 665.742 1595.07 662.413L1590.01 663.93L1587.91 656.905L1591.65 651.892C1588.89 650.582 1586.65 648.09 1585.68 644.849C1583.91 638.947 1587.03 632.798 1592.65 631.113C1598.26 629.429 1604.25 632.848 1606.02 638.75Z" fill="#FFFEFE"/>
</g>
<rect width="102.916" height="108.125" transform="translate(1599.17 829.047) rotate(-16.6895)" fill="#B7C0D8"/>
<g clip-path="url(#clip28_102_298)">
<rect width="102.916" height="108.125" transform="translate(1215.7 266.74) rotate(-16.6895)" fill="#B7C0D8"/>
<path d="M1253.62 281.239C1253.94 282.304 1254.41 283.28 1255 284.148L1253.28 285.755C1251.05 284.429 1248.35 283.998 1245.73 284.781C1240.63 286.311 1237.79 291.899 1239.4 297.261C1240.84 302.041 1245.31 305.029 1249.89 304.538L1260.01 320.618C1260.23 320.954 1260.48 321.26 1260.77 321.529L1265.02 325.512L1265 325.521C1263.15 326.474 1262.26 328.694 1262.88 330.787L1265.31 338.878C1266.02 341.262 1268.44 342.643 1270.71 341.962L1309.81 330.239C1310.9 329.913 1311.81 329.145 1312.34 328.105C1312.87 327.064 1312.97 325.837 1312.63 324.693L1310.2 316.601C1309.57 314.505 1307.6 313.142 1305.53 313.369L1305.44 313.379L1306.8 307.728C1306.89 307.346 1306.93 306.951 1306.92 306.555L1306.53 287.554C1310.62 285.449 1312.72 280.49 1311.28 275.71C1309.68 270.347 1304.24 267.241 1299.13 268.771C1296.52 269.555 1294.5 271.405 1293.36 273.743L1291.04 273.353C1291.06 272.301 1290.91 271.224 1290.59 270.155C1288.98 264.793 1283.54 261.686 1278.44 263.217C1273.34 264.747 1270.5 270.335 1272.11 275.697C1270.5 270.335 1265.06 267.228 1259.96 268.758C1254.85 270.289 1252.02 275.876 1253.62 281.239Z" fill="#FFFEFE"/>
<path d="M1266.22 282.952C1267.91 281.596 1268.69 279.225 1268 276.929C1267.11 273.949 1264.09 272.224 1261.25 273.074C1258.41 273.924 1256.84 277.028 1257.73 280.007C1258.56 282.76 1261.2 284.443 1263.84 284.012L1267.38 304.159L1253.32 297.396C1254.04 296.108 1254.25 294.512 1253.78 292.951C1252.89 289.972 1249.86 288.246 1247.03 289.096C1244.19 289.946 1242.62 293.051 1243.51 296.03C1244.4 299.009 1247.43 300.735 1250.26 299.885C1250.76 299.735 1251.22 299.515 1251.64 299.239L1263.6 318.228L1272.61 326.668L1266.99 329.556L1269.42 337.647L1308.52 325.924L1306.09 317.833L1299.74 318.529L1302.62 306.528L1302.16 284.092C1302.66 284.095 1303.16 284.025 1303.66 283.875C1306.5 283.025 1308.07 279.921 1307.18 276.941C1306.28 273.962 1303.26 272.236 1300.42 273.087C1297.59 273.937 1296.01 277.041 1296.91 280.02C1297.38 281.582 1298.43 282.799 1299.73 283.481L1291.72 296.863L1283.59 278.089C1286.03 277 1287.31 274.14 1286.48 271.387C1285.59 268.408 1282.57 266.682 1279.73 267.532C1276.9 268.382 1275.32 271.486 1276.22 274.466C1276.9 276.762 1278.86 278.314 1281.02 278.515L1278.9 298.353L1266.22 282.952Z" fill="#34364C"/>
</g>
<rect width="102.916" height="108.125" transform="translate(1277.81 473.88) rotate(-16.6895)" fill="#B7C0D8"/>
<rect opacity="0.5" x="1327.22" y="502.91" width="24" height="24" rx="12" transform="rotate(-16.6895 1327.22 502.91)" fill="#7B61FF"/>
<rect width="102.916" height="108.125" transform="translate(1339.91 681.019) rotate(-16.6895)" fill="#B7C0D8"/>
<g clip-path="url(#clip29_102_298)">
<rect width="102.916" height="108.125" transform="translate(1402.01 888.159) rotate(-16.6895)" fill="#B7C0D8"/>
<path d="M1455.25 934.666C1454.97 935.516 1454.6 936.423 1454.15 937.381C1452.54 940.759 1450.24 943.83 1448.68 945.544L1448.42 945.832C1447.37 946.984 1447.01 948.651 1447.47 950.2L1450.59 960.605C1451.31 962.988 1453.73 964.369 1456 963.689L1496.04 951.682C1498.31 951.002 1499.57 948.518 1498.86 946.135L1495.74 935.729C1495.27 934.181 1494.05 932.988 1492.54 932.603L1492.17 932.507C1489.92 931.935 1486.31 930.633 1483.11 928.697C1482.2 928.148 1481.4 927.592 1480.7 927.036C1482.37 926.039 1483.19 923.932 1482.58 921.898L1480.48 914.873C1480.06 913.471 1479.01 912.351 1477.68 911.869L1475.55 911.099C1475.94 908.742 1475.81 906.239 1475.07 903.77C1472.59 895.485 1464.18 890.685 1456.29 893.05C1448.41 895.414 1444.03 904.047 1446.51 912.332C1447.3 914.94 1448.67 917.204 1450.42 919.006L1449.42 920.341C1448.58 921.477 1448.32 922.986 1448.74 924.388L1450.85 931.413C1451.46 933.447 1453.31 934.751 1455.25 934.666Z" fill="#34364C"/>
<path d="M1470.96 905.001C1471.89 908.1 1471.47 911.268 1470.05 913.821L1476.37 916.105L1478.48 923.13L1473.42 924.647C1474.64 927.83 1477.6 930.492 1481.03 932.563C1484.66 934.761 1488.68 936.209 1491.25 936.865L1491.63 936.961L1494.75 947.366L1454.7 959.374L1451.58 948.968L1451.84 948.68C1453.63 946.716 1456.19 943.298 1458.02 939.462C1459.74 935.848 1460.75 931.994 1460.02 928.664L1454.96 930.181L1452.85 923.157L1456.59 918.143C1453.84 916.834 1451.59 914.341 1450.62 911.1C1448.85 905.199 1451.97 899.049 1457.59 897.365C1463.21 895.681 1469.19 899.1 1470.96 905.001Z" fill="#FFFEFE"/>
</g>
<g clip-path="url(#clip30_102_298)">
<rect width="102.916" height="108.125" transform="translate(1610.02 148.516) rotate(-16.6895)" fill="#B7C0D8"/>
<path d="M1654.55 155.158C1655.29 154.933 1656.06 154.933 1656.77 155.119C1657.27 154.571 1657.9 154.151 1658.65 153.926L1669.95 150.54C1670.7 150.315 1671.46 150.315 1672.18 150.501C1672.67 149.953 1673.31 149.532 1674.06 149.308L1684.32 146.229C1686.59 145.549 1689.01 146.93 1689.73 149.313L1692.64 159.023C1693.04 160.381 1692.82 161.843 1692.03 162.968L1687.19 169.862L1694.07 186.294C1695.89 190.644 1698.57 192.326 1702.68 195.519C1703.44 196.106 1704 196.928 1704.28 197.862L1706.87 206.492C1707.58 208.876 1706.32 211.359 1704.06 212.039L1664.01 224.046C1661.74 224.727 1659.32 223.346 1658.61 220.962L1656.02 212.332C1655.74 211.398 1655.75 210.403 1656.06 209.496C1657.74 204.565 1659.05 201.689 1658.18 197.054L1654.89 179.547L1647.05 176.453C1645.77 175.948 1644.78 174.851 1644.37 173.493L1641.46 163.783C1640.75 161.4 1642.01 158.917 1644.28 158.236L1654.55 155.158Z" fill="#FFFEFE"/>
<path d="M1645.57 162.552L1655.84 159.473L1657.78 165.946L1661.89 164.715L1659.95 158.242L1671.24 154.855L1673.18 161.328L1677.29 160.097L1675.35 153.623L1685.62 150.545L1688.53 160.254L1682.26 169.19L1690.13 187.994L1662.41 196.307L1658.64 176.272L1648.48 172.261L1645.57 162.552Z" fill="#34364C"/>
<path d="M1663.7 200.622L1691.42 192.309L1700.17 199.093L1702.76 207.724L1662.71 219.731L1660.13 211.1L1663.7 200.622Z" fill="#34364C"/>
</g>
<rect width="102.916" height="108.125" transform="translate(1672.13 355.656) rotate(-16.6895)" fill="#B7C0D8"/>
<rect width="102.916" height="108.125" transform="translate(1734.23 562.796) rotate(-16.6895)" fill="#B7C0D8"/>
<g clip-path="url(#clip31_102_298)">
<rect width="102.916" height="108.125" transform="translate(1796.34 769.935) rotate(-16.6895)" fill="#B7C0D8"/>
<path d="M1849.57 816.443C1849.29 817.292 1848.93 818.2 1848.47 819.157C1846.86 822.535 1844.57 825.606 1843.01 827.32L1842.74 827.608C1841.69 828.76 1841.33 830.427 1841.8 831.976L1844.92 842.381C1845.63 844.765 1848.05 846.145 1850.32 845.465L1890.37 833.458C1892.63 832.778 1893.89 830.294 1893.18 827.911L1890.06 817.506C1889.6 815.957 1888.38 814.764 1886.87 814.379L1886.49 814.283C1884.24 813.711 1880.64 812.409 1877.43 810.473C1876.53 809.924 1875.72 809.368 1875.02 808.812C1876.69 807.815 1877.52 805.708 1876.91 803.674L1874.8 796.65C1874.38 795.247 1873.34 794.127 1872 793.645L1869.87 792.875C1870.26 790.518 1870.13 788.015 1869.39 785.546C1866.91 777.261 1858.5 772.461 1850.62 774.826C1842.73 777.19 1838.35 785.823 1840.84 794.108C1841.62 796.716 1842.99 798.98 1844.74 800.782L1843.75 802.118C1842.9 803.253 1842.64 804.762 1843.06 806.164L1845.17 813.189C1845.78 815.223 1847.63 816.527 1849.57 816.443Z" fill="#34364C"/>
<path d="M1865.29 786.777C1866.21 789.877 1865.8 793.044 1864.37 795.597L1870.69 797.881L1872.8 804.906L1867.74 806.423C1868.96 809.606 1871.92 812.268 1875.35 814.339C1878.99 816.537 1883 817.985 1885.57 818.641L1885.95 818.737L1889.07 829.143L1849.02 841.15L1845.9 830.744L1846.17 830.456C1847.96 828.492 1850.51 825.074 1852.34 821.239C1854.06 817.625 1855.07 813.77 1854.34 810.44L1849.28 811.958L1847.17 804.933L1850.92 799.919C1848.16 798.61 1845.92 796.118 1844.94 792.876C1843.17 786.975 1846.29 780.825 1851.91 779.141C1857.53 777.457 1863.52 780.876 1865.29 786.777Z" fill="#FFFEFE"/>
</g>
</g>
<path d="M273.438 559.972C272.603 561.112 271.606 562.3 270.445 563.521C266.345 567.831 261.318 571.378 258.073 573.232L257.527 573.544C255.346 574.79 254 577.109 254 579.621V596.5C254 600.366 257.134 603.5 261 603.5H329.25C333.116 603.5 336.25 600.366 336.25 596.5V579.621C336.25 577.109 334.904 574.79 332.723 573.544L332.177 573.232C328.932 571.378 323.905 567.831 319.805 563.521C318.644 562.3 317.647 561.112 316.812 559.972C319.884 559.232 322.167 556.466 322.167 553.167V541.772C322.167 539.498 321.062 537.365 319.203 536.053L316.23 533.955C317.946 530.621 318.917 526.839 318.917 522.833C318.917 509.394 308.022 498.5 294.583 498.5C281.144 498.5 270.25 509.394 270.25 522.833C270.25 527.064 271.333 531.045 273.232 534.511L271.047 536.053C269.188 537.365 268.083 539.498 268.083 541.772V553.167C268.083 556.466 270.366 559.232 273.438 559.972Z" fill="#FFFEFE"/>
<path d="M311.917 522.833C311.917 527.86 309.777 532.388 306.358 535.554L315.167 541.772V553.167H306.543C306.959 558.448 310.348 563.734 314.733 568.345C319.387 573.238 324.986 577.185 328.704 579.309L329.25 579.621V596.5H261V579.621L261.546 579.309C265.264 577.185 270.863 573.238 275.517 568.345C279.902 563.734 283.291 558.448 283.707 553.167H275.083V541.772L283.287 535.981C279.591 532.802 277.25 528.091 277.25 522.833C277.25 513.26 285.01 505.5 294.583 505.5C304.156 505.5 311.917 513.26 311.917 522.833Z" fill="#DF8600"/>
<path d="M437.957 488.887C440.261 488.628 442.544 489.527 444.054 491.287L458.335 507.944C474.736 511.997 484.239 524.347 489.495 539.764C494.91 555.651 496.25 575.818 496.25 596.5C496.25 600.366 493.116 603.5 489.25 603.5H423.984C420.267 603.5 417.199 600.596 416.994 596.885C416.812 593.574 417.573 587.829 419.895 581.96L419.938 581.853C413.345 585.391 406.028 584.544 400.597 580.677C393.996 575.977 390.326 566.777 394.519 557.692C397.543 551.14 400.802 547.671 403.267 545.047C405.57 542.596 406.53 541.518 407.209 538.802C411.325 522.337 419.794 512.851 428.889 508.522C428.757 506.647 428.864 504.839 429.094 503.199C429.667 499.114 431.093 495.34 432.546 492.581C433.627 490.53 435.653 489.146 437.957 488.887Z" fill="#FFFEFE"/>
<path fill-rule="evenodd" clip-rule="evenodd" d="M454.549 514.282L438.739 495.843C436.451 500.188 434.232 507.856 437.422 513.391C435.874 513.529 434.394 513.791 433.25 514.25C425.949 517.18 417.938 524.75 414 540.5C412.86 545.061 410.808 547.245 408.369 549.84C406.068 552.289 403.423 555.103 400.875 560.625C395.625 572 409.794 583.375 420.125 573.044C425.933 567.235 431.011 564.837 435.273 562.824C441.409 559.926 445.856 557.826 448.369 547.5C449.564 552.316 449.086 563.683 437.611 570.619C426.135 577.555 423.745 592.165 423.984 596.5H489.25C489.25 555.346 483.801 519.788 454.549 514.282Z" fill="#DF8600"/>
<circle cx="435" cy="535.25" r="5.25" fill="#FFFEFE"/>
<path d="M585.5 496.75C586.775 496.75 587.97 497.091 589 497.686C590.03 497.091 591.225 496.75 592.5 496.75H611.75C613.025 496.75 614.22 497.091 615.25 497.686C616.28 497.091 617.475 496.75 618.75 496.75H636.25C640.116 496.75 643.25 499.884 643.25 503.75V519.5C643.25 521.703 642.213 523.778 640.45 525.1L629.649 533.201L632.707 560.727C633.517 568.014 636.909 571.712 641.85 578.3C642.759 579.512 643.25 580.985 643.25 582.5V596.5C643.25 600.366 640.116 603.5 636.25 603.5H568C564.134 603.5 561 600.366 561 596.5V582.5C561 580.985 561.491 579.512 562.4 578.3C567.341 571.712 570.733 568.014 571.543 560.727L574.601 533.201L563.8 525.1C562.037 523.778 561 521.703 561 519.5V503.75C561 499.884 564.134 496.75 568 496.75H585.5Z" fill="#FFFEFE"/>
<path d="M568 503.75H585.5V514.25H592.5V503.75H611.75V514.25H618.75V503.75H636.25V519.5L622.25 530L625.75 561.5H578.5L582 530L568 519.5V503.75Z" fill="#DF8600"/>
<path d="M578.5 568.5H625.75L636.25 582.5V596.5H568V582.5L578.5 568.5Z" fill="#DF8600"/>
<path d="M280.05 680.547C279.346 678.614 278.962 676.529 278.962 674.356C278.962 664.356 287.068 656.25 297.067 656.25C307.067 656.25 315.173 664.356 315.173 674.356C315.173 677.285 314.473 680.061 313.232 682.517C315.018 682.64 316.753 683.445 318.018 684.89C324.891 692.746 330.906 703.946 330.906 716.928C330.906 726.209 327.711 733.087 323.393 738.042L331.594 739.48C334.942 740.067 337.385 742.976 337.385 746.375V759.5C337.385 761.357 336.647 763.137 335.334 764.45C334.022 765.763 332.241 766.5 330.385 766.5L263.75 766.5C259.884 766.5 256.75 763.366 256.75 759.5V746.375C256.75 742.979 259.187 740.074 262.531 739.482L269.928 738.173C265.551 733.209 262.303 726.293 262.303 716.928C262.303 706.799 266.228 697.979 270.832 691.219C273.725 686.97 277.001 683.362 280.05 680.547Z" fill="#FFFEFE"/>
<path d="M300.5 716.002H293.5C293.5 703.149 297.399 690.317 306.023 680.924C307.375 679.085 308.173 676.814 308.173 674.356C308.173 668.222 303.201 663.25 297.067 663.25C290.934 663.25 285.962 668.222 285.962 674.356C285.962 677.382 287.172 680.125 289.135 682.128C282.197 687.074 269.303 700.331 269.303 716.928C269.303 733.678 282.435 740.459 289.324 741.851L263.75 746.375V759.5L330.385 759.5V746.375L304.204 741.783C311.171 740.25 323.906 733.422 323.906 716.928C323.906 706.128 318.875 696.5 312.75 689.5C306.023 694.75 300.5 707 300.5 716.002Z" fill="#DF8600"/>
<path d="M419.5 668.5C419.5 670.228 419.778 671.89 420.292 673.445L416.836 675.066C413.972 672.097 409.952 670.25 405.5 670.25C396.802 670.25 389.75 677.302 389.75 686C389.75 693.754 395.353 700.199 402.731 701.507L411.03 729.96C411.203 730.554 411.454 731.122 411.777 731.65L416.56 739.477L416.531 739.482C413.187 740.074 410.75 742.979 410.75 746.375V759.5C410.75 763.366 413.884 766.5 417.75 766.5L484.385 766.5C486.241 766.5 488.022 765.763 489.334 764.45C490.647 763.137 491.385 761.357 491.385 759.5V746.375C491.385 742.976 488.942 740.067 485.594 739.48L485.453 739.456L490.223 731.65C490.546 731.122 490.797 730.554 490.97 729.96L499.269 701.507C506.647 700.199 512.25 693.754 512.25 686C512.25 677.302 505.198 670.25 496.5 670.25C492.043 670.25 488.018 672.101 485.153 675.077L481.704 673.459C482.22 671.9 482.5 670.233 482.5 668.5C482.5 659.802 475.448 652.75 466.75 652.75C458.052 652.75 451 659.802 451 668.5C451 659.802 443.948 652.75 435.25 652.75C426.552 652.75 419.5 659.802 419.5 668.5Z" fill="#FFFEFE"/>
<path d="M438.391 676.669C441.672 675.407 444 672.225 444 668.5C444 663.668 440.082 659.75 435.25 659.75C430.418 659.75 426.5 663.668 426.5 668.5C426.5 672.966 429.845 676.65 434.167 677.184L430.265 708.75L411.454 692.412C413.174 690.814 414.25 688.533 414.25 686C414.25 681.168 410.332 677.25 405.5 677.25C400.668 677.25 396.75 681.168 396.75 686C396.75 690.833 400.668 694.75 405.5 694.75C406.351 694.75 407.173 694.629 407.951 694.402L417.75 728L427.884 744.582L417.75 746.375V759.5L484.385 759.5V746.375L474.121 744.575L484.25 728L494.049 694.402C494.827 694.629 495.649 694.75 496.5 694.75C501.332 694.75 505.25 690.833 505.25 686C505.25 681.168 501.332 677.25 496.5 677.25C491.668 677.25 487.75 681.168 487.75 686C487.75 688.533 488.826 690.814 490.546 692.412L471.735 708.75L467.833 677.184C472.155 676.65 475.5 672.966 475.5 668.5C475.5 663.668 471.582 659.75 466.75 659.75C461.918 659.75 458 663.668 458 668.5C458 672.225 460.328 675.407 463.609 676.669L451 705.25L438.391 676.669Z" fill="#DF8600"/>
<path fill-rule="evenodd" clip-rule="evenodd" d="M593.503 657.781C593.622 654.002 596.719 651 600.5 651H611C614.781 651 617.878 654.002 617.997 657.781L618.058 659.75H621.5C625.366 659.75 628.5 662.884 628.5 666.75V670.996C636.13 669.269 644.366 670.422 651.356 676.247C665.878 688.349 664.542 713.717 647.308 727.592C643.149 730.94 639.881 733.716 637.631 736.577C637.118 737.229 636.678 737.861 636.308 738.479L643.402 739.438C646.874 739.908 649.464 742.872 649.464 746.375V759.5C649.464 763.366 646.33 766.5 642.464 766.5H569.036C565.17 766.5 562.036 763.366 562.036 759.5V746.375C562.036 742.872 564.626 739.908 568.098 739.438L575.192 738.479C574.822 737.861 574.382 737.229 573.869 736.577C571.619 733.716 568.351 730.94 564.192 727.592C546.958 713.717 545.622 688.349 560.144 676.247C567.134 670.422 575.37 669.269 583 670.996V666.75C583 662.884 586.134 659.75 590 659.75H593.442L593.503 657.781Z" fill="#FFFEFE"/>
<path fill-rule="evenodd" clip-rule="evenodd" d="M600.5 658H611L611.273 666.75H621.5V677.25H611.602L612.082 689.138C612.274 688.912 612.472 688.69 612.676 688.474C622.236 678.312 636.411 672.905 646.875 681.625C657.375 690.375 657.375 710.5 642.918 722.14C634.728 728.733 627.393 735.089 627.754 744.386L642.464 746.375V759.5H569.036V746.375L583.746 744.386C584.107 735.089 576.772 728.733 568.582 722.14C554.125 710.5 554.125 690.375 564.625 681.625C575.089 672.905 589.264 678.312 598.824 688.474C599.028 688.69 599.226 688.912 599.418 689.138L599.898 677.25H590V666.75H600.227L600.5 658ZM590.609 698.203C597.026 708.713 597.875 721 597.875 726.343C594.659 726.349 582.534 721.015 576.115 712.258C571.493 705.954 570.288 696.601 574.25 692.969C578.212 689.338 586.599 691.634 590.609 698.203ZM620.891 698.203C614.474 708.713 613.625 721 613.625 726.343C616.841 726.349 628.966 721.015 635.385 712.258C640.007 705.954 641.212 696.601 637.25 692.969C633.288 689.338 624.901 691.634 620.891 698.203Z" fill="#DF8600"/>
<path fill-rule="evenodd" clip-rule="evenodd" d="M261 206.772C261 200.27 266.321 195 272.885 195H356.079C382.335 195 403.619 216.082 403.619 242.087V359.804C403.619 385.81 382.335 406.891 356.079 406.891H272.885C266.321 406.891 261 401.621 261 395.119V206.772ZM307.113 244.912H362.781L354.746 267.26H336.431V288.435H354.746V309.68H336.431V334.235L354.746 334.216L362.735 356.564L307.113 356.583V244.912ZM301.409 329.688V270.658L280.491 264.218L280.491 337.203L301.409 329.688Z" fill="white"/>
<path fill-rule="evenodd" clip-rule="evenodd" d="M261 206.772C261 200.27 266.321 195 272.885 195H356.079C382.335 195 403.619 216.082 403.619 242.087V359.804C403.619 385.81 382.335 406.891 356.079 406.891H272.885C266.321 406.891 261 401.621 261 395.119V206.772ZM307.113 244.912H362.781L354.746 267.26H336.431V288.435H354.746V309.68H336.431V334.235L354.746 334.216L362.735 356.564L307.113 356.583V244.912ZM301.409 329.688V270.658L280.491 264.218L280.491 337.203L301.409 329.688Z" fill="url(#paint0_linear_102_298)" fill-opacity="0.7"/>
<path d="M779.451 285.792C779.451 267.115 795.202 253.873 817.364 253.873C839.526 253.873 853.465 266.139 853.465 285.653H831.024C831.024 278.405 825.588 273.945 817.085 273.945C807.886 273.945 802.032 278.126 802.032 284.956C802.032 291.228 805.238 294.295 812.486 295.828L827.957 299.034C846.356 302.797 855.137 311.578 855.137 327.886C855.137 347.818 839.526 360.781 815.831 360.781C792.832 360.781 777.918 348.376 777.918 329.001H800.359C800.359 336.528 805.934 340.71 815.97 340.71C826.145 340.71 832.557 336.668 832.557 330.117C832.557 324.402 829.909 321.475 823.079 320.081L807.328 316.875C788.93 313.112 779.451 302.658 779.451 285.792Z" fill="#1E1C1A"/>
<path d="M693.153 285.792C693.153 267.115 708.903 253.873 731.065 253.873C753.228 253.873 767.166 266.139 767.166 285.653H744.725C744.725 278.405 739.289 273.945 730.787 273.945C721.587 273.945 715.733 278.126 715.733 284.956C715.733 291.228 718.939 294.295 726.187 295.828L741.659 299.034C760.057 302.797 768.839 311.578 768.839 327.886C768.839 347.818 753.228 360.781 729.532 360.781C706.534 360.781 691.62 348.376 691.62 329.001H714.061C714.061 336.528 719.636 340.71 729.672 340.71C739.847 340.71 746.258 336.668 746.258 330.117C746.258 324.402 743.61 321.475 736.78 320.081L721.03 316.875C702.631 313.112 693.153 302.658 693.153 285.792Z" fill="#1E1C1A"/>
<path d="M680.394 358.969H614.883V255.825H680.394V276.732H637.463V296.943H675.515V316.736H637.463V338.061H680.394V358.969Z" fill="#1E1C1A"/>
<path d="M531.02 358.969H508.439V255.825H531.02V296.525H570.884V255.825H593.464V358.969H570.884V317.432H531.02V358.969Z" fill="#1E1C1A"/>
<path d="M444.693 360.642C413.749 360.642 394.375 340.152 394.375 307.536C394.375 275.338 414.864 254.152 445.668 254.152C471.455 254.152 489.993 268.927 493.199 292.065H469.364C466.297 281.75 457.516 275.896 445.111 275.896C428.385 275.896 418.21 287.744 418.21 307.397C418.21 326.771 428.524 338.898 445.111 338.898C457.795 338.898 467.134 332.625 469.921 322.45H493.338C489.714 345.449 470.479 360.642 444.693 360.642Z" fill="#1E1C1A"/>
</g>
<defs>
<filter id="filter0_d_102_298" x="894" y="95" width="1088.98" height="1116.93" filterUnits="userSpaceOnUse" color-interpolation-filters="sRGB">
<feFlood flood-opacity="0" result="BackgroundImageFix"/>
<feColorMatrix in="SourceAlpha" type="matrix" values="0 0 0 0 0 0 0 0 0 0 0 0 0 0 0 0 0 0 127 0" result="hardAlpha"/>
<feOffset dy="2"/>
<feGaussianBlur stdDeviation="8"/>
<feColorMatrix type="matrix" values="0 0 0 0 0.783854 0 0 0 0 0.809375 0 0 0 0 0.875 0 0 0 0.5 0"/>
<feBlend mode="normal" in2="BackgroundImageFix" result="effect1_dropShadow_102_298"/>
<feBlend mode="normal" in="SourceGraphic" in2="effect1_dropShadow_102_298" result="shape"/>
</filter>
<linearGradient id="paint0_linear_102_298" x1="261" y1="247.973" x2="401.592" y2="248.227" gradientUnits="userSpaceOnUse">
<stop stop-color="#67E4FF"/>
<stop offset="1" stop-color="#14C6FF"/>
</linearGradient>
<clipPath id="clip0_102_298">
<rect width="1920" height="960" fill="white"/>
</clipPath>
<clipPath id="clip1_102_298">
<rect width="102.916" height="108.125" fill="white" transform="translate(919.96 355.408) rotate(-16.6895)"/>
</clipPath>
<clipPath id="clip2_102_298">
<rect width="102.916" height="108.125" fill="white" transform="translate(1106.27 976.827) rotate(-16.6895)"/>
</clipPath>
<clipPath id="clip3_102_298">
<rect width="102.916" height="108.125" fill="white" transform="translate(951.012 458.978) rotate(-16.6895)"/>
</clipPath>
<clipPath id="clip4_102_298">
<rect width="102.916" height="108.125" fill="white" transform="translate(1148.17 399.866) rotate(-16.6895)"/>
</clipPath>
<clipPath id="clip5_102_298">
<rect width="102.916" height="108.125" fill="white" transform="translate(1345.33 340.754) rotate(-16.6895)"/>
</clipPath>
<clipPath id="clip6_102_298">
<rect width="102.916" height="108.125" fill="white" transform="translate(1531.65 962.173) rotate(-16.6895)"/>
</clipPath>
<clipPath id="clip7_102_298">
<rect width="77.1869" height="81.0934" fill="white" transform="translate(1547.85 971.424) rotate(-16.6895)"/>
</clipPath>
<clipPath id="clip8_102_298">
<rect width="102.916" height="108.125" fill="white" transform="translate(1542.5 281.642) rotate(-16.6895)"/>
</clipPath>
<clipPath id="clip9_102_298">
<rect width="102.916" height="108.125" fill="white" transform="translate(1728.81 903.061) rotate(-16.6895)"/>
</clipPath>
<clipPath id="clip10_102_298">
<rect width="102.916" height="108.125" fill="white" transform="translate(1314.28 237.184) rotate(-16.6895)"/>
</clipPath>
<clipPath id="clip11_102_298">
<rect width="77.187" height="81.0934" fill="white" transform="translate(1330.49 246.436) rotate(-16.6895)"/>
</clipPath>
<clipPath id="clip12_102_298">
<rect width="102.916" height="108.125" fill="white" transform="translate(1500.59 858.603) rotate(-16.6895)"/>
</clipPath>
<clipPath id="clip13_102_298">
<rect width="102.916" height="108.125" fill="white" transform="translate(1117.12 296.296) rotate(-16.6895)"/>
</clipPath>
<clipPath id="clip14_102_298">
<rect width="102.916" height="108.125" fill="white" transform="translate(1303.43 917.715) rotate(-16.6895)"/>
</clipPath>
<clipPath id="clip15_102_298">
<rect width="102.916" height="108.125" fill="white" transform="translate(1511.44 178.072) rotate(-16.6895)"/>
</clipPath>
<clipPath id="clip16_102_298">
<rect width="102.916" height="108.125" fill="white" transform="translate(1697.75 799.491) rotate(-16.6895)"/>
</clipPath>
<clipPath id="clip17_102_298">
<rect width="102.916" height="108.125" fill="white" transform="translate(1018.54 325.852) rotate(-16.6895)"/>
</clipPath>
<clipPath id="clip18_102_298">
<rect width="102.916" height="108.125" fill="white" transform="translate(1204.85 947.271) rotate(-16.6895)"/>
</clipPath>
<clipPath id="clip19_102_298">
<rect width="102.916" height="108.125" fill="white" transform="translate(1049.59 429.422) rotate(-16.6895)"/>
</clipPath>
<clipPath id="clip20_102_298">
<rect width="102.916" height="108.125" fill="white" transform="translate(1246.75 370.31) rotate(-16.6895)"/>
</clipPath>
<clipPath id="clip21_102_298">
<rect width="102.916" height="108.125" fill="white" transform="translate(1308.86 577.45) rotate(-16.6895)"/>
</clipPath>
<clipPath id="clip22_102_298">
<rect width="102.916" height="108.125" fill="white" transform="translate(1443.92 311.198) rotate(-16.6895)"/>
</clipPath>
<clipPath id="clip23_102_298">
<rect width="102.916" height="108.125" fill="white" transform="translate(1630.23 932.617) rotate(-16.6895)"/>
</clipPath>
<clipPath id="clip24_102_298">
<rect width="102.916" height="108.125" fill="white" transform="translate(1641.08 252.086) rotate(-16.6895)"/>
</clipPath>
<clipPath id="clip25_102_298">
<rect width="102.916" height="108.125" fill="white" transform="translate(1827.39 873.505) rotate(-16.6895)"/>
</clipPath>
<clipPath id="clip26_102_298">
<rect width="102.916" height="108.125" fill="white" transform="translate(1412.86 207.628) rotate(-16.6895)"/>
</clipPath>
<clipPath id="clip27_102_298">
<rect width="102.916" height="108.125" fill="white" transform="translate(1537.07 621.907) rotate(-16.6895)"/>
</clipPath>
<clipPath id="clip28_102_298">
<rect width="102.916" height="108.125" fill="white" transform="translate(1215.7 266.74) rotate(-16.6895)"/>
</clipPath>
<clipPath id="clip29_102_298">
<rect width="102.916" height="108.125" fill="white" transform="translate(1402.01 888.159) rotate(-16.6895)"/>
</clipPath>
<clipPath id="clip30_102_298">
<rect width="102.916" height="108.125" fill="white" transform="translate(1610.02 148.516) rotate(-16.6895)"/>
</clipPath>
<clipPath id="clip31_102_298">
<rect width="102.916" height="108.125" fill="white" transform="translate(1796.34 769.935) rotate(-16.6895)"/>
</clipPath>
</defs>
</svg>
