<svg width="387" height="46" viewBox="0 0 387 46" fill="none" xmlns="http://www.w3.org/2000/svg">
<g filter="url(#filter0_d_3103_5165)">
<path d="M375.846 10.9432H368.28C367.917 10.9432 367.641 11.1451 367.641 11.4048V13.6552H364.504C364.141 13.6552 363.865 13.8572 363.865 14.1169V16.3673H360.728C360.365 16.3673 360.089 16.5692 360.089 16.8289V19.4544L314.587 19.6852V17.7666C314.587 17.6368 314.515 17.5214 314.384 17.4348C314.283 17.3627 314.152 17.3338 314.007 17.3194L252.181 12.2126C252.123 12.2126 252.079 12.2126 252.021 12.2126C242.058 13.1936 229.786 14.3765 219.068 15.343L193.783 6.54328C193.609 6.48557 193.391 6.48557 193.217 6.54328L167.961 15.343C157.243 14.3621 144.971 13.1936 134.993 12.2126C134.935 12.2126 134.892 12.2126 134.833 12.2126L73.008 17.305C72.8773 17.3194 72.7321 17.3627 72.6304 17.4348C72.4997 17.5214 72.4271 17.6512 72.4271 17.7666V19.6852L26.9113 19.4544V16.8289C26.9113 16.5692 26.6208 16.3673 26.2722 16.3673H23.1352V14.1169C23.1352 13.8572 22.8447 13.6552 22.4962 13.6552H19.3592V11.4048C19.3592 11.1451 19.0687 10.9432 18.7201 10.9432H11.139C10.7759 10.9432 10.5 11.1451 10.5 11.4048V16.8433C10.5 17.103 10.7905 17.305 11.139 17.305H14.276V19.5554C14.276 19.8151 14.5665 20.017 14.9151 20.017H18.0521V22.2675C18.0521 22.5271 18.3425 22.7291 18.6911 22.7291H26.2577C26.6208 22.7291 26.8967 22.5271 26.8967 22.2675V20.4787L77.2197 27.6194C77.2924 27.6194 77.3795 27.6194 77.4521 27.6194L114.457 23.0032H167.801L193.202 31.4423C193.289 31.4712 193.377 31.4856 193.478 31.4856C193.58 31.4856 193.667 31.4712 193.754 31.4423L219.155 23.0032H272.499L309.504 27.6194C309.504 27.6194 309.577 27.6194 309.621 27.6194C309.664 27.6194 309.708 27.6194 309.751 27.6194L360.074 20.4787V22.2675C360.074 22.5271 360.365 22.7291 360.713 22.7291H368.28C368.643 22.7291 368.919 22.5271 368.919 22.2675V20.017H372.056C372.419 20.017 372.695 19.8151 372.695 19.5554V17.305H375.832C376.195 17.305 376.471 17.103 376.471 16.8433V11.4048C376.471 11.1451 376.181 10.9432 375.832 10.9432H375.846ZM21.8572 14.5785V16.3673H19.3592V14.5785H21.8572ZM18.0666 16.3817H15.5686V14.5929H18.0666V16.3817ZM19.3592 17.305H21.8572V19.0938H19.3592V17.305ZM11.7926 16.3817V11.8664H18.0666V13.6552H14.9296C14.5665 13.6552 14.2906 13.8572 14.2906 14.1169V16.3673H11.7926V16.3817ZM15.5686 19.0938V17.305H18.0666V19.0938H15.5686ZM25.6332 21.8203H19.3592V20.0314H22.4962C22.8593 20.0314 23.1352 19.8295 23.1352 19.5698V17.3194H25.6332V21.8347V21.8203ZM252.094 13.1359L306.28 17.5935L253.517 19.6852L223.222 15.9057C230.774 15.1988 240.243 14.3044 252.079 13.1359H252.094ZM313.266 18.2571V22.0799H272.615L259.167 20.4065L313.266 18.2571ZM193.769 17.3482C193.609 17.2905 193.391 17.2905 193.231 17.3482C192.069 17.4492 183.544 16.7568 172.55 15.7614L193.507 13.1503L214.479 15.7758C203.47 16.7568 194.931 17.4492 193.769 17.3482ZM213.578 16.8001L193.493 22.0655L173.407 16.8001C188.293 18.1128 192.316 18.2715 193.493 18.1849C194.669 18.2715 198.692 18.1128 213.578 16.8001ZM167.917 16.3384L189.194 21.9068L139.205 19.916L167.917 16.324V16.3384ZM219.083 16.3384L247.795 19.9305L197.806 21.9212L219.083 16.3529V16.3384ZM193.493 7.48096L214.61 14.8381L193.609 12.2126C193.536 12.2126 193.464 12.2126 193.391 12.2126L172.376 14.8381L193.493 7.48096ZM134.906 13.1359C146.757 14.3044 156.212 15.2132 163.764 15.9057L133.468 19.6852L80.7053 17.5935L134.892 13.1359H134.906ZM73.7342 18.2571L127.833 20.4065L114.385 22.0799H73.7342V18.2571ZM77.3795 26.7106L33.1127 20.4209L72.4271 20.6229V22.556C72.4271 22.8156 72.7175 23.0176 73.0661 23.0176H106.934L77.365 26.7106H77.3795ZM133.555 20.6373L170.125 22.0943H121.922L133.555 20.6373ZM193.493 30.519L173.901 24.013L193.348 27.2444C193.449 27.2588 193.536 27.2588 193.638 27.2444L213.085 24.013L193.493 30.519ZM193.493 26.3211L173.625 23.0176H193.493H213.361L193.493 26.3211ZM216.875 22.0799L253.445 20.6229L265.078 22.0799H216.875ZM309.606 26.7106L280.037 23.0176H313.905C314.268 23.0176 314.544 22.8156 314.544 22.556V20.6229L353.858 20.4209L309.591 26.7106H309.606ZM365.143 14.5785H367.641V16.3673H365.143V14.5785ZM371.417 16.3817H368.919V14.5929H371.417V16.3817ZM365.143 17.305H367.641V19.0938H365.143V17.305ZM367.641 21.8203H361.367V17.305H363.865V19.5554C363.865 19.8151 364.155 20.017 364.504 20.017H367.641V21.8058V21.8203ZM371.417 19.0938H368.919V17.305H371.417V19.0938ZM375.207 16.3817H372.709V14.1313C372.709 13.8716 372.419 13.6696 372.07 13.6696H368.933V11.8808H375.207V16.3961V16.3817Z" fill="#B37E42"/>
</g>
<defs>
<filter id="filter0_d_3103_5165" x="0.5" y="0.5" width="385.971" height="44.9856" filterUnits="userSpaceOnUse" color-interpolation-filters="sRGB">
<feFlood flood-opacity="0" result="BackgroundImageFix"/>
<feColorMatrix in="SourceAlpha" type="matrix" values="0 0 0 0 0 0 0 0 0 0 0 0 0 0 0 0 0 0 127 0" result="hardAlpha"/>
<feOffset dy="4"/>
<feGaussianBlur stdDeviation="5"/>
<feComposite in2="hardAlpha" operator="out"/>
<feColorMatrix type="matrix" values="0 0 0 0 0.968831 0 0 0 0 0.756423 0 0 0 0 0.210229 0 0 0 0.5 0"/>
<feBlend mode="normal" in2="BackgroundImageFix" result="effect1_dropShadow_3103_5165"/>
<feBlend mode="normal" in="SourceGraphic" in2="effect1_dropShadow_3103_5165" result="shape"/>
</filter>
</defs>
</svg>
