<svg width="168" height="196" viewBox="0 0 168 196" fill="none" xmlns="http://www.w3.org/2000/svg">
<g filter="url(#filter0_d_2838_3620)">
<path fill-rule="evenodd" clip-rule="evenodd" d="M47.5345 13.233C47.5345 9.23831 50.7518 6 54.7205 6H105.022C120.897 6 133.766 18.9532 133.766 34.9318V107.261C133.766 123.24 120.897 136.193 105.022 136.193H54.7205C50.7518 136.193 47.5345 132.955 47.5345 128.96V13.233ZM75.4161 36.6677H109.075L104.216 50.399H93.1425V63.4099H104.216V76.4631H93.1425V91.5506L104.216 91.5393L109.047 105.271L75.4161 105.282V36.6677ZM71.9668 88.7568V52.4866L59.3195 48.5298L59.3195 93.3741L71.9668 88.7568Z" fill="#FFFEFE"/>
<path d="M156.687 151.251L155.339 160.452H154.734C154.734 159.936 154.688 159.326 154.595 158.575C153.758 154.021 150.922 151.955 145.063 151.955C142.273 151.955 139.576 152.941 139.576 156.227C139.576 161.861 157.664 161.11 157.664 172.611C157.664 178.995 151.433 182 145.853 182C141.064 182 136.135 180.263 133.16 176.273H133.113L135.345 167.165H135.949C136.228 171.39 138.367 176.46 146.039 176.46C148.504 176.46 152.177 175.522 152.177 172.423C152.177 166.133 134.09 166.79 134.09 156.04C134.09 149.608 139.39 146.416 145.249 146.416C149.48 146.416 153.665 148.247 156.687 151.251Z" fill="#FFFEFE"/>
<path d="M126.991 151.251L125.642 160.452H125.038C125.038 159.936 124.991 159.326 124.898 158.575C124.061 154.021 121.225 151.955 115.366 151.955C112.576 151.955 109.88 152.941 109.88 156.227C109.88 161.861 127.967 161.11 127.967 172.611C127.967 178.995 121.736 182 116.157 182C111.367 182 106.439 180.263 103.463 176.273H103.416L105.648 167.165H106.253C106.532 171.39 108.671 176.46 116.343 176.46C118.807 176.46 122.48 175.522 122.48 172.423C122.48 166.133 104.393 166.79 104.393 156.04C104.393 149.608 109.694 146.416 115.552 146.416C119.783 146.416 123.968 148.247 126.991 151.251Z" fill="#FFFEFE"/>
<path d="M74.7759 147.777H98.257V155.476H97.6526C97.6526 153.035 95.1882 153.035 91.5149 153.035H82.7734V163.551H90.492C94.1653 163.551 97.3271 163.551 97.3271 161.11H97.9316L97.2341 168.808H74.7759V168.151C77.1937 168.151 77.1937 165.663 77.1937 162.002V154.584C77.1937 150.876 77.1937 148.388 74.7759 148.388V147.777ZM99.1405 172.94L98.443 180.638H76.3103L75.6593 172.94H76.2638C76.2638 175.381 79.3791 175.381 82.9594 175.381H91.7939C95.4207 175.381 98.536 175.381 98.536 172.94H99.1405Z" fill="#FFFEFE"/>
<path d="M51.4535 180.638H41.0381V180.028C43.4559 180.028 43.4559 177.54 43.4559 173.832V154.584C43.4559 150.876 43.4559 148.388 41.0381 148.388V147.777H51.4535V148.388C49.0356 148.388 49.0356 150.876 49.0356 154.584V161.579H64.6122V154.584C64.6122 150.876 64.6122 148.388 62.1944 148.388V147.777H72.5633V148.388C70.1919 148.388 70.1919 150.876 70.1919 154.584V173.832C70.1919 177.54 70.1919 180.028 72.5633 180.028V180.638H62.1944V180.028C64.6122 180.028 64.6122 177.54 64.6122 173.832V166.837H49.0356V173.832C49.0356 177.54 49.0356 180.028 51.4535 180.028V180.638Z" fill="#FFFEFE"/>
<path d="M36.8399 150.359V150.406L35.0265 160.452H34.4221C34.4221 159.842 34.3756 158.903 34.2826 157.917C33.4456 154.162 30.1443 152.754 27.4475 152.66H27.308C19.9149 152.613 16.1951 158.387 16.1951 164.208C16.1951 169.982 19.8684 175.756 27.1685 175.756C30.3303 175.756 34.3291 174.16 35.2125 170.78C35.2125 170.686 35.2125 170.592 35.2125 170.452H35.8635L36.8399 178.01C36.8399 178.057 36.8399 178.057 36.8399 178.057H36.7934C34.3291 180.122 31.7252 181.202 27.9125 181.343C27.401 181.343 26.936 181.343 26.4245 181.343C15.6837 180.967 10.3365 172.611 10.3365 164.208C10.3365 155.617 15.9161 147.073 27.122 147.073C30.6093 147.073 34.0501 148.294 36.7934 150.359H36.8399Z" fill="#FFFEFE"/>
</g>
<defs>
<filter id="filter0_d_2838_3620" x="0.336456" y="0" width="167.327" height="196" filterUnits="userSpaceOnUse" color-interpolation-filters="sRGB">
<feFlood flood-opacity="0" result="BackgroundImageFix"/>
<feColorMatrix in="SourceAlpha" type="matrix" values="0 0 0 0 0 0 0 0 0 0 0 0 0 0 0 0 0 0 127 0" result="hardAlpha"/>
<feOffset dy="4"/>
<feGaussianBlur stdDeviation="5"/>
<feComposite in2="hardAlpha" operator="out"/>
<feColorMatrix type="matrix" values="0 0 0 0 0 0 0 0 0 0 0 0 0 0 0 0 0 0 0.3 0"/>
<feBlend mode="normal" in2="BackgroundImageFix" result="effect1_dropShadow_2838_3620"/>
<feBlend mode="normal" in="SourceGraphic" in2="effect1_dropShadow_2838_3620" result="shape"/>
</filter>
</defs>
</svg>
