<svg width="112" height="40" viewBox="0 0 112 40" fill="none" xmlns="http://www.w3.org/2000/svg">
<path fill-rule="evenodd" clip-rule="evenodd" d="M0 2.22222C0 0.994924 0.994923 0 2.22222 0H17.7778C22.687 0 26.6667 3.97969 26.6667 8.88889V31.1111C26.6667 36.0203 22.687 40 17.7778 40H2.22222C0.994922 40 0 39.0051 0 37.7778V2.22222ZM8.62222 9.42222H19.0309L17.5285 13.641H14.104V17.6384H17.5285V21.6488H14.104V26.2842L17.5285 26.2807L19.0222 30.4995L8.62222 30.503V9.42222ZM7.55556 25.4259V14.2824L3.64444 13.0667L3.64444 26.8444L7.55556 25.4259Z" fill="url(#paint0_linear_2692_5051)"/>
<path d="M96.9392 17.1394C96.9392 13.6136 99.8842 11.1139 104.028 11.1139C108.172 11.1139 110.778 13.4294 110.778 17.1131H106.582C106.582 15.7449 105.566 14.9029 103.976 14.9029C102.256 14.9029 101.161 15.6922 101.161 16.9815C101.161 18.1656 101.761 18.7445 103.116 19.0339L106.009 19.6391C109.449 20.3495 111.091 22.0072 111.091 25.0858C111.091 28.8485 108.172 31.2955 103.741 31.2955C99.4411 31.2955 96.6525 28.9537 96.6525 25.2963H100.848C100.848 26.7172 101.891 27.5065 103.767 27.5065C105.67 27.5065 106.869 26.7435 106.869 25.5068C106.869 24.428 106.374 23.8754 105.097 23.6123L102.152 23.0071C98.7114 22.2967 96.9392 20.3232 96.9392 17.1394Z" fill="white"/>
<path d="M96.9392 17.1394C96.9392 13.6136 99.8842 11.1139 104.028 11.1139C108.172 11.1139 110.778 13.4294 110.778 17.1131H106.582C106.582 15.7449 105.566 14.9029 103.976 14.9029C102.256 14.9029 101.161 15.6922 101.161 16.9815C101.161 18.1656 101.761 18.7445 103.116 19.0339L106.009 19.6391C109.449 20.3495 111.091 22.0072 111.091 25.0858C111.091 28.8485 108.172 31.2955 103.741 31.2955C99.4411 31.2955 96.6525 28.9537 96.6525 25.2963H100.848C100.848 26.7172 101.891 27.5065 103.767 27.5065C105.67 27.5065 106.869 26.7435 106.869 25.5068C106.869 24.428 106.374 23.8754 105.097 23.6123L102.152 23.0071C98.7114 22.2967 96.9392 20.3232 96.9392 17.1394Z" fill="white"/>
<path d="M80.8032 17.1394C80.8032 13.6136 83.7482 11.1139 87.892 11.1139C92.0359 11.1139 94.6421 13.4294 94.6421 17.1131H90.4461C90.4461 15.7449 89.4297 14.9029 87.8399 14.9029C86.1198 14.9029 85.0252 15.6922 85.0252 16.9815C85.0252 18.1656 85.6247 18.7445 86.9799 19.0339L89.8727 19.6391C93.3129 20.3495 94.9548 22.0072 94.9548 25.0858C94.9548 28.8485 92.0359 31.2955 87.6054 31.2955C83.3051 31.2955 80.5165 28.9537 80.5165 25.2963H84.7125C84.7125 26.7172 85.755 27.5065 87.6314 27.5065C89.5339 27.5065 90.7328 26.7435 90.7328 25.5068C90.7328 24.428 90.2376 23.8754 88.9606 23.6123L86.0156 23.0071C82.5754 22.2967 80.8032 20.3232 80.8032 17.1394Z" fill="white"/>
<path d="M80.8032 17.1394C80.8032 13.6136 83.7482 11.1139 87.892 11.1139C92.0359 11.1139 94.6421 13.4294 94.6421 17.1131H90.4461C90.4461 15.7449 89.4297 14.9029 87.8399 14.9029C86.1198 14.9029 85.0252 15.6922 85.0252 16.9815C85.0252 18.1656 85.6247 18.7445 86.9799 19.0339L89.8727 19.6391C93.3129 20.3495 94.9548 22.0072 94.9548 25.0858C94.9548 28.8485 92.0359 31.2955 87.6054 31.2955C83.3051 31.2955 80.5165 28.9537 80.5165 25.2963H84.7125C84.7125 26.7172 85.755 27.5065 87.6314 27.5065C89.5339 27.5065 90.7328 26.7435 90.7328 25.5068C90.7328 24.428 90.2376 23.8754 88.9606 23.6123L86.0156 23.0071C82.5754 22.2967 80.8032 20.3232 80.8032 17.1394Z" fill="white"/>
<path d="M78.4176 30.9535H66.1685V11.4823H78.4176V15.4291H70.3905V19.2444H77.5054V22.9808H70.3905V27.0066H78.4176V30.9535Z" fill="white"/>
<path d="M78.4176 30.9535H66.1685V11.4823H78.4176V15.4291H70.3905V19.2444H77.5054V22.9808H70.3905V27.0066H78.4176V30.9535Z" fill="white"/>
<path d="M50.4878 30.9535H46.2658V11.4823H50.4878V19.1655H57.9415V11.4823H62.1635V30.9535H57.9415V23.1124H50.4878V30.9535Z" fill="white"/>
<path d="M50.4878 30.9535H46.2658V11.4823H50.4878V19.1655H57.9415V11.4823H62.1635V30.9535H57.9415V23.1124H50.4878V30.9535Z" fill="white"/>
<path d="M34.3466 31.2692C28.5608 31.2692 24.9382 27.4013 24.9382 21.2442C24.9382 15.166 28.7693 11.1665 34.529 11.1665C39.3504 11.1665 42.8167 13.9556 43.4161 18.3235H38.9595C38.3861 16.3764 36.7442 15.2712 34.4247 15.2712C31.2973 15.2712 29.3948 17.5078 29.3948 21.2179C29.3948 24.8753 31.3234 27.1645 34.4247 27.1645C36.7964 27.1645 38.5425 25.9804 39.0638 24.0596H43.4421C42.7645 28.4012 39.168 31.2692 34.3466 31.2692Z" fill="white"/>
<path d="M34.3466 31.2692C28.5608 31.2692 24.9382 27.4013 24.9382 21.2442C24.9382 15.166 28.7693 11.1665 34.529 11.1665C39.3504 11.1665 42.8167 13.9556 43.4161 18.3235H38.9595C38.3861 16.3764 36.7442 15.2712 34.4247 15.2712C31.2973 15.2712 29.3948 17.5078 29.3948 21.2179C29.3948 24.8753 31.3234 27.1645 34.4247 27.1645C36.7964 27.1645 38.5425 25.9804 39.0638 24.0596H43.4421C42.7645 28.4012 39.168 31.2692 34.3466 31.2692Z" fill="white"/>
<defs>
<linearGradient id="paint0_linear_2692_5051" x1="13.3333" y1="0" x2="13.3333" y2="40" gradientUnits="userSpaceOnUse">
<stop stop-color="#96B5FF"/>
<stop offset="1" stop-color="#2C4789"/>
</linearGradient>
</defs>
</svg>
