<svg width="112" height="40" viewBox="0 0 112 40" fill="none" xmlns="http://www.w3.org/2000/svg">
<path fill-rule="evenodd" clip-rule="evenodd" d="M0 2.22222C0 0.994924 0.994923 0 2.22222 0H17.7778C22.687 0 26.6667 3.97969 26.6667 8.88889V31.1111C26.6667 36.0203 22.687 40 17.7778 40H2.22222C0.994922 40 0 39.0051 0 37.7778V2.22222ZM8.62222 9.42222H19.0309L17.5285 13.641H14.104V17.6384H17.5285V21.6488H14.104V26.2842L17.5285 26.2807L19.0222 30.4995L8.62222 30.503V9.42222ZM7.55556 25.4259V14.2824L3.64444 13.0667L3.64444 26.8444L7.55556 25.4259Z" fill="white"/>
<path fill-rule="evenodd" clip-rule="evenodd" d="M0 2.22222C0 0.994924 0.994923 0 2.22222 0H17.7778C22.687 0 26.6667 3.97969 26.6667 8.88889V31.1111C26.6667 36.0203 22.687 40 17.7778 40H2.22222C0.994922 40 0 39.0051 0 37.7778V2.22222ZM8.62222 9.42222H19.0309L17.5285 13.641H14.104V17.6384H17.5285V21.6488H14.104V26.2842L17.5285 26.2807L19.0222 30.4995L8.62222 30.503V9.42222ZM7.55556 25.4259V14.2824L3.64444 13.0667L3.64444 26.8444L7.55556 25.4259Z" fill="url(#paint0_linear_3121_1822)" fill-opacity="0.7"/>
<path d="M110.606 11.9059L109.809 17.3477H109.451C109.451 17.0423 109.424 16.6813 109.369 16.2371C108.874 13.544 107.196 12.3223 103.731 12.3223C102.081 12.3223 100.486 12.9054 100.486 14.8489C100.486 18.1806 111.184 17.7364 111.184 24.5386C111.184 28.3146 107.499 30.0915 104.199 30.0915C101.366 30.0915 98.4511 29.0642 96.6911 26.7042H96.6636L97.9836 21.318H98.3411C98.5061 23.8168 99.7711 26.8153 104.309 26.8153C105.766 26.8153 107.939 26.26 107.939 24.4276C107.939 20.7072 97.2411 21.0959 97.2411 14.7378C97.2411 10.9341 100.376 9.04616 103.841 9.04616C106.344 9.04616 108.819 10.129 110.606 11.9059Z" fill="#FFFEFE"/>
<path d="M93.0427 11.9059L92.2452 17.3477H91.8877C91.8877 17.0423 91.8602 16.6813 91.8052 16.2371C91.3102 13.544 89.6327 12.3223 86.1677 12.3223C84.5177 12.3223 82.9227 12.9054 82.9227 14.8489C82.9227 18.1806 93.6202 17.7364 93.6202 24.5386C93.6202 28.3146 89.9352 30.0915 86.6352 30.0915C83.8027 30.0915 80.8877 29.0642 79.1277 26.7042H79.1002L80.4202 21.318H80.7777C80.9427 23.8168 82.2077 26.8153 86.7452 26.8153C88.2027 26.8153 90.3752 26.26 90.3752 24.4276C90.3752 20.7072 79.6777 21.0959 79.6777 14.7378C79.6777 10.9341 82.8127 9.04616 86.2777 9.04616C88.7802 9.04616 91.2552 10.129 93.0427 11.9059Z" fill="#FFFEFE"/>
<path d="M62.1614 9.85133H76.0488V14.4047H75.6913C75.6913 12.9609 74.2338 12.9609 72.0613 12.9609H66.8914V19.1801H71.4563C73.6288 19.1801 75.4988 19.1801 75.4988 17.7364H75.8563L75.4438 22.2897H62.1614V21.901C63.5914 21.901 63.5914 20.4295 63.5914 18.2639V13.8772C63.5914 11.6838 63.5914 10.2123 62.1614 10.2123V9.85133ZM76.5713 24.733L76.1588 29.2863H63.0689L62.6839 24.733H63.0414C63.0414 26.1767 64.8839 26.1767 67.0014 26.1767H72.2263C74.3713 26.1767 76.2138 26.1767 76.2138 24.733H76.5713Z" fill="#FFFEFE"/>
<path d="M48.3678 29.2863H42.2079V28.9254C43.6379 28.9254 43.6379 27.4539 43.6379 25.2605V13.8772C43.6379 11.6838 43.6379 10.2123 42.2079 10.2123V9.85133H48.3678V10.2123C46.9378 10.2123 46.9378 11.6838 46.9378 13.8772V18.014H56.1503V13.8772C56.1503 11.6838 56.1503 10.2123 54.7203 10.2123V9.85133H60.8528V10.2123C59.4503 10.2123 59.4503 11.6838 59.4503 13.8772V25.2605C59.4503 27.4539 59.4503 28.9254 60.8528 28.9254V29.2863H54.7203V28.9254C56.1503 28.9254 56.1503 27.4539 56.1503 25.2605V21.1236H46.9378V25.2605C46.9378 27.4539 46.9378 28.9254 48.3678 28.9254V29.2863Z" fill="#FFFEFE"/>
<path d="M39.7249 11.3784V11.4061L38.6525 17.3477H38.295C38.295 16.9867 38.2675 16.4315 38.2125 15.8484C37.7175 13.6273 35.765 12.7943 34.17 12.7388H34.0875C29.715 12.711 27.515 16.1261 27.515 19.5688C27.515 22.9838 29.6875 26.3988 34.005 26.3988C35.875 26.3988 38.24 25.4549 38.7625 23.4558C38.7625 23.4003 38.7625 23.3448 38.7625 23.2615H39.1474L39.7249 27.7315C39.7249 27.7593 39.7249 27.7593 39.7249 27.7593H39.6974C38.24 28.9809 36.7 29.6195 34.445 29.7028C34.1425 29.7028 33.8675 29.7028 33.565 29.7028C27.2125 29.4807 24.05 24.5386 24.05 19.5688C24.05 14.488 27.35 9.43486 33.9775 9.43486C36.04 9.43486 38.075 10.1567 39.6974 11.3784H39.7249Z" fill="#FFFEFE"/>
<defs>
<linearGradient id="paint0_linear_3121_1822" x1="3.53127e-08" y1="9.99998" x2="26.2876" y2="10.0471" gradientUnits="userSpaceOnUse">
<stop stop-color="#67E4FF"/>
<stop offset="1" stop-color="#14C6FF"/>
</linearGradient>
</defs>
</svg>
