<svg width="622" height="220" viewBox="0 0 622 220" fill="none" xmlns="http://www.w3.org/2000/svg">
<path fill-rule="evenodd" clip-rule="evenodd" d="M0 12.2222C0 5.47208 5.52537 0 12.3413 0H98.7302C125.994 0 148.095 21.8883 148.095 48.8889V171.111C148.095 198.112 125.994 220 98.7302 220H12.3413C5.52537 220 0 214.528 0 207.778V12.2222ZM47.8841 51.8222H105.689L97.3456 75.0253H78.3275V97.011H97.3456V119.068H78.3275V144.563L97.3456 144.544L105.641 167.747L47.8841 167.766V51.8222ZM41.9603 139.842V78.5529L20.2397 71.8667L20.2397 147.644L41.9603 139.842Z" fill="white"/>
<path fill-rule="evenodd" clip-rule="evenodd" d="M0 12.2222C0 5.47208 5.52537 0 12.3413 0H98.7302C125.994 0 148.095 21.8883 148.095 48.8889V171.111C148.095 198.112 125.994 220 98.7302 220H12.3413C5.52537 220 0 214.528 0 207.778V12.2222ZM47.8841 51.8222H105.689L97.3456 75.0253H78.3275V97.011H97.3456V119.068H78.3275V144.563L97.3456 144.544L105.641 167.747L47.8841 167.766V51.8222ZM41.9603 139.842V78.5529L20.2397 71.8667L20.2397 147.644L41.9603 139.842Z" fill="url(#paint0_linear_1234_2086)" fill-opacity="0.7"/>
<path d="M538.359 94.2668C538.359 74.8745 554.714 61.1263 577.727 61.1263C600.74 61.1263 615.214 73.8615 615.214 94.1221H591.911C591.911 86.5967 586.266 81.9657 577.437 81.9657C567.885 81.9657 561.806 86.3073 561.806 93.3985C561.806 99.9108 565.135 103.095 572.661 104.687L588.727 108.015C607.832 111.922 616.95 121.04 616.95 137.972C616.95 158.667 600.74 172.125 576.135 172.125C552.253 172.125 536.766 159.245 536.766 139.13H560.069C560.069 146.944 565.858 151.286 576.28 151.286C586.845 151.286 593.503 147.089 593.503 140.287C593.503 134.354 590.753 131.315 583.661 129.868L567.306 126.539C548.201 122.632 538.359 111.778 538.359 94.2668Z" fill="white"/>
<path d="M538.359 94.2668C538.359 74.8745 554.714 61.1263 577.727 61.1263C600.74 61.1263 615.214 73.8615 615.214 94.1221H591.911C591.911 86.5967 586.266 81.9657 577.437 81.9657C567.885 81.9657 561.806 86.3073 561.806 93.3985C561.806 99.9108 565.135 103.095 572.661 104.687L588.727 108.015C607.832 111.922 616.95 121.04 616.95 137.972C616.95 158.667 600.74 172.125 576.135 172.125C552.253 172.125 536.766 159.245 536.766 139.13H560.069C560.069 146.944 565.858 151.286 576.28 151.286C586.845 151.286 593.503 147.089 593.503 140.287C593.503 134.354 590.753 131.315 583.661 129.868L567.306 126.539C548.201 122.632 538.359 111.778 538.359 94.2668Z" fill="white"/>
<path d="M448.746 94.2668C448.746 74.8745 465.102 61.1263 488.115 61.1263C511.128 61.1263 525.601 73.8615 525.601 94.1221H502.299C502.299 86.5967 496.654 81.9657 487.825 81.9657C478.273 81.9657 472.194 86.3073 472.194 93.3985C472.194 99.9108 475.523 103.095 483.049 104.687L499.115 108.015C518.22 111.922 527.338 121.04 527.338 137.972C527.338 158.667 511.128 172.125 486.523 172.125C462.641 172.125 447.154 159.245 447.154 139.13H470.457C470.457 146.944 476.246 151.286 486.667 151.286C497.233 151.286 503.891 147.089 503.891 140.287C503.891 134.354 501.141 131.315 494.049 129.868L477.694 126.539C458.588 122.632 448.746 111.778 448.746 94.2668Z" fill="white"/>
<path d="M448.746 94.2668C448.746 74.8745 465.102 61.1263 488.115 61.1263C511.128 61.1263 525.601 73.8615 525.601 94.1221H502.299C502.299 86.5967 496.654 81.9657 487.825 81.9657C478.273 81.9657 472.194 86.3073 472.194 93.3985C472.194 99.9108 475.523 103.095 483.049 104.687L499.115 108.015C518.22 111.922 527.338 121.04 527.338 137.972C527.338 158.667 511.128 172.125 486.523 172.125C462.641 172.125 447.154 159.245 447.154 139.13H470.457C470.457 146.944 476.246 151.286 486.667 151.286C497.233 151.286 503.891 147.089 503.891 140.287C503.891 134.354 501.141 131.315 494.049 129.868L477.694 126.539C458.588 122.632 448.746 111.778 448.746 94.2668Z" fill="white"/>
<path d="M435.497 170.244H367.471V63.1523H435.497V84.8601H390.919V105.844H430.432V126.394H390.919V148.536H435.497V170.244Z" fill="white"/>
<path d="M435.497 170.244H367.471V63.1523H435.497V84.8601H390.919V105.844H430.432V126.394H390.919V148.536H435.497V170.244Z" fill="white"/>
<path d="M280.388 170.244H256.94V63.1523H280.388V105.41H321.782V63.1523H345.229V170.244H321.782V127.118H280.388V170.244Z" fill="white"/>
<path d="M280.388 170.244H256.94V63.1523H280.388V105.41H321.782V63.1523H345.229V170.244H321.782V127.118H280.388V170.244Z" fill="white"/>
<path d="M190.746 171.981C158.615 171.981 138.496 150.707 138.496 116.843C138.496 83.4129 159.772 61.4157 191.759 61.4157C218.535 61.4157 237.785 76.7559 241.114 100.779H216.364C213.18 90.07 204.062 83.9918 191.18 83.9918C173.812 83.9918 163.246 96.2929 163.246 116.698C163.246 136.814 173.957 149.405 191.18 149.405C204.351 149.405 214.049 142.892 216.943 132.328H241.259C237.496 156.206 217.522 171.981 190.746 171.981Z" fill="white"/>
<path d="M190.746 171.981C158.615 171.981 138.496 150.707 138.496 116.843C138.496 83.4129 159.772 61.4157 191.759 61.4157C218.535 61.4157 237.785 76.7559 241.114 100.779H216.364C213.18 90.07 204.062 83.9918 191.18 83.9918C173.812 83.9918 163.246 96.2929 163.246 116.698C163.246 136.814 173.957 149.405 191.18 149.405C204.351 149.405 214.049 142.892 216.943 132.328H241.259C237.496 156.206 217.522 171.981 190.746 171.981Z" fill="white"/>
<defs>
<linearGradient id="paint0_linear_1234_2086" x1="1.96112e-07" y1="54.9999" x2="145.99" y2="55.2644" gradientUnits="userSpaceOnUse">
<stop stop-color="#67E4FF"/>
<stop offset="1" stop-color="#14C6FF"/>
</linearGradient>
</defs>
</svg>
