<svg width="20" height="20" viewBox="0 0 20 20" fill="none" xmlns="http://www.w3.org/2000/svg">
<g id="Objects">
<path id="Vector" d="M0.333336 4.72436L10.799 6.82524L19.5 5.06815L10.8179 9.53555L0.333336 4.72436Z" fill="#636363"/>
<path id="Vector_2" d="M10.193 19.5277C10.193 19.5277 2.8673 7.92777 0.333309 4.72436C0.333309 4.72436 4.32427 6.44674 10.1145 8.05452C10.1145 8.05452 14.8527 6.38076 19.5031 5.06815C19.5031 5.06815 12.2874 16.2514 10.1961 19.5277L10.193 19.5277Z" fill="#9E9E9E"/>
<path id="Vector_3" d="M5.75617 6.72801L9.46453 8.31148L10.193 15.9424L10.9184 8.2212L14.14 6.68808L11.7128 7.49891L10.1114 8.05452L5.75617 6.72801Z" fill="#7C7C7C"/>
<path id="Vector_4" d="M19.5 5.06815L10.149 17.5796L0.333336 4.72436L10.149 20L19.5 5.06815Z" fill="#D3D3D3"/>
<path id="Vector_5" d="M10.193 19.5277C10.193 19.5277 10.1113 18.8228 10.0485 17.762C10.0328 17.4963 10.0171 17.2098 10.0014 16.906C9.98889 16.6021 9.97633 16.2827 9.96377 15.951C9.95435 15.6194 9.94493 15.2774 9.93551 14.9301C9.92923 14.5829 9.92609 14.2287 9.91981 13.8762C9.91981 13.522 9.91981 13.1696 9.91981 12.8206C9.92295 12.4733 9.92609 12.1295 9.93237 11.7996C9.94179 11.468 9.94807 11.1485 9.95749 10.8447C9.97005 10.5409 9.98261 10.2544 9.99203 9.98872C10.0171 9.45916 10.0485 9.01642 10.0737 8.70736C10.1019 8.39831 10.1176 8.22121 10.1176 8.22121C10.1176 8.22121 10.1365 8.39831 10.1679 8.70736C10.1961 9.01642 10.2369 9.45742 10.2683 9.98872C10.284 10.2544 10.2997 10.5409 10.3154 10.8447C10.328 11.1485 10.3406 11.468 10.3531 11.7996C10.3625 12.1313 10.3688 12.4733 10.3782 12.8206C10.3814 13.1678 10.3877 13.522 10.3908 13.8745C10.3908 14.2269 10.3908 14.5811 10.3908 14.9284C10.3845 15.2756 10.3814 15.6177 10.3751 15.9493C10.3657 16.2809 10.3563 16.6004 10.35 16.9043C10.3374 17.2081 10.3249 17.4946 10.3154 17.7602C10.2683 18.8211 10.1961 19.5277 10.1961 19.5277L10.193 19.5277Z" fill="#494949"/>
<path id="Vector_6" d="M11.0031 15.1333C11.0031 15.1333 10.6609 8.49553 10.6609 8.33406C10.6609 8.17258 18.7025 5.46228 18.7025 5.46228C18.7025 5.46228 11.5746 14.4631 11.0031 15.1333Z" fill="url(#paint0_linear_2867_2871)"/>
<path id="Vector_7" d="M0.885984 5.0178C0.885984 5.0178 9.15051 8.24031 9.46451 8.30976C9.77851 8.37921 9.10341 14.4214 9.10341 14.4214C9.10341 14.4214 1.37269 5.45534 0.885984 5.01607L0.885984 5.0178Z" fill="url(#paint1_linear_2867_2871)"/>
<path id="Vector_8" d="M6.24915 6.57869C6.24915 6.57869 6.71387 6.63946 7.38897 6.761C7.55853 6.79225 7.74065 6.8235 7.93219 6.8617C8.12374 6.8999 8.32784 6.93636 8.53194 6.9815C8.73918 7.02491 8.9527 7.07005 9.16936 7.11519C9.38602 7.16381 9.60268 7.21243 9.82249 7.26104L9.92925 7.28708C9.95437 7.29229 9.95123 7.29229 9.95123 7.29229L10.3029 7.22111C10.5196 7.17596 10.7394 7.13777 10.9498 7.09957C11.1601 7.05963 11.3642 7.02491 11.5589 6.99366C11.7536 6.96067 11.9357 6.93115 12.1084 6.90511C12.4507 6.85128 12.7396 6.81308 12.9405 6.78878C13.1446 6.76447 13.2608 6.75232 13.2608 6.75232C13.2608 6.75232 13.1572 6.78357 12.9751 6.84087C12.7898 6.89469 12.5292 6.97108 12.2058 7.05443C12.0456 7.09783 11.8698 7.14124 11.6845 7.18638C11.4993 7.23326 11.3046 7.28014 11.0973 7.32528C10.8932 7.37216 10.6828 7.42078 10.4662 7.46592L9.93867 7.57704L9.63408 7.50759C9.41742 7.4555 9.20076 7.40341 8.98724 7.35306C8.77686 7.29924 8.56962 7.24715 8.36866 7.1968C8.1677 7.14645 7.97616 7.09262 7.79403 7.04401C7.61191 6.99539 7.44235 6.94504 7.28221 6.90163C6.65107 6.72106 6.24601 6.58043 6.24601 6.58043L6.24915 6.57869Z" fill="#353535"/>
</g>
<defs>
<linearGradient id="paint0_linear_2867_2871" x1="10.6609" y1="10.2978" x2="18.7025" y2="10.2978" gradientUnits="userSpaceOnUse">
<stop stop-color="#FEFEFF" stop-opacity="0"/>
<stop offset="0.16" stop-color="#FEFEFF" stop-opacity="0.01"/>
<stop offset="0.29" stop-color="#FEFEFF" stop-opacity="0.01"/>
<stop offset="0.41" stop-color="#FEFEFF" stop-opacity="0.0144"/>
<stop offset="0.52" stop-color="#FEFEFF" stop-opacity="0.0441"/>
<stop offset="0.63" stop-color="#FEFEFF" stop-opacity="0.1089"/>
<stop offset="0.74" stop-color="#FEFEFF" stop-opacity="0.2304"/>
<stop offset="0.84" stop-color="#FEFEFF" stop-opacity="0.4356"/>
<stop offset="0.94" stop-color="#FEFEFF" stop-opacity="0.7396"/>
<stop offset="1" stop-color="#FEFEFF"/>
</linearGradient>
<linearGradient id="paint1_linear_2867_2871" x1="10.5164" y1="11.8899" x2="2.64581" y2="0.979195" gradientUnits="userSpaceOnUse">
<stop stop-color="#FEFEFF" stop-opacity="0"/>
<stop offset="0.16" stop-color="#FEFEFF" stop-opacity="0.01"/>
<stop offset="0.29" stop-color="#FEFEFF" stop-opacity="0.01"/>
<stop offset="0.41" stop-color="#FEFEFF" stop-opacity="0.0144"/>
<stop offset="0.52" stop-color="#FEFEFF" stop-opacity="0.0441"/>
<stop offset="0.63" stop-color="#FEFEFF" stop-opacity="0.1089"/>
<stop offset="0.74" stop-color="#FEFEFF" stop-opacity="0.2304"/>
<stop offset="0.84" stop-color="#FEFEFF" stop-opacity="0.4356"/>
<stop offset="0.94" stop-color="#FEFEFF" stop-opacity="0.7396"/>
<stop offset="1" stop-color="#FEFEFF"/>
</linearGradient>
</defs>
</svg>
