<svg width="75" height="106" viewBox="0 0 75 106" fill="none" xmlns="http://www.w3.org/2000/svg">
<g id="layer" clip-path="url(#clip0_644_38446)">
<g id="Group">
<path id="Vector" d="M4.57 100.25L4.78 101.48C5.02 102.87 6.2 104.1 8.25 104.81C10.96 105.75 14.48 105.54 17.44 104.47V104.5C17.63 104.43 17.8 104.35 17.99 104.27C18.17 104.2 18.35 104.13 18.53 104.05C18.61 104.01 18.7 103.98 18.78 103.94C19.02 103.82 19.24 103.68 19.47 103.55C19.62 103.47 19.77 103.39 19.91 103.3C20.34 103.03 20.75 102.74 21.11 102.42C21.23 102.32 21.34 102.21 21.45 102.11C21.47 102.09 21.49 102.06 21.51 102.04C21.73 101.82 21.93 101.59 22.11 101.37C22.11 101.37 22.13 101.35 22.13 101.34C22.89 100.33 23.18 99.29 23.01 98.33L22.8 97.1C22.77 96.98 22.74 96.81 22.7 96.69C22.64 96.5 22.55 96.24 22.45 96.06C22.34 95.87 22.2 95.64 22.06 95.45C22.06 95.43 22.06 95.41 22.06 95.39C22.06 95.3 22.04 95.18 22.02 95.09C21.98 94.9 21.93 94.64 21.79 94.34C21.75 94.25 21.7 94.13 21.65 94.04C21.63 94 21.6 93.96 21.58 93.92C21.58 93.92 21.58 93.91 21.57 93.9C21.51 93.79 21.44 93.69 21.38 93.6C21.42 93.66 21.45 93.73 21.49 93.8C21.22 93.36 20.85 92.95 20.36 92.6C20.28 92.54 20.18 92.47 20.1 92.41C20.06 92.38 20.01 92.34 19.97 92.32C19.89 92.26 19.79 92.19 19.71 92.13C19.63 92.07 19.53 92 19.45 91.94C19.41 91.91 19.36 91.87 19.32 91.85C19.24 91.79 19.14 91.72 19.06 91.66C19.03 91.64 18.99 91.61 18.96 91.59C18.94 91.48 18.93 91.37 18.9 91.26C18.73 90.66 18.39 90.24 18.3 90.13C18.22 90.04 18.04 89.82 17.85 89.67C17.77 89.61 17.67 89.52 17.59 89.46C17.49 89.39 17.37 89.32 17.25 89.24C17.23 89.23 17.21 89.21 17.19 89.2C17.16 89.18 17.12 89.15 17.09 89.14C17.12 89.15 17.13 89.17 17.16 89.19C17.08 89.15 16.99 89.11 16.91 89.07C16.16 87.25 15.14 84.42 14.39 81.11C14.43 81.08 14.47 81.06 14.51 81.03C14.54 81.01 14.57 80.99 14.61 80.97C14.72 80.9 14.81 80.83 14.86 80.8C15.06 80.65 15.2 80.53 15.27 80.47C15.3 80.44 15.34 80.4 15.38 80.37C15.55 80.22 15.66 80.1 15.72 80.04C15.73 80.03 15.75 80.01 15.76 79.99C15.83 79.92 15.9 79.84 15.95 79.77C16.03 79.67 16.14 79.53 16.21 79.42C16.21 79.41 16.23 79.39 16.23 79.38L16.25 79.34C16.3 79.26 16.35 79.17 16.4 79.09L16.42 79.06C16.47 78.96 16.52 78.87 16.57 78.74C16.57 78.72 16.58 78.71 16.59 78.69C16.6 78.66 16.61 78.63 16.62 78.6C16.64 78.55 16.66 78.49 16.67 78.44V78.41C16.67 78.41 16.68 78.38 16.69 78.37C16.69 78.36 16.7 78.33 16.71 78.32C16.71 78.32 16.74 78.22 16.76 78.08C16.76 78.04 16.77 78.01 16.77 78C16.77 77.98 16.77 77.96 16.77 77.94C16.77 77.89 16.78 77.84 16.79 77.78C16.79 77.76 16.79 77.75 16.79 77.73V77.67C16.79 77.67 16.79 77.63 16.79 77.61C16.79 77.58 16.79 77.55 16.79 77.52C16.79 77.5 16.79 77.49 16.79 77.48C16.79 77.45 16.79 77.43 16.79 77.4C16.79 77.34 16.79 77.27 16.78 77.22C16.78 77.22 16.78 77.21 16.78 77.2V77.17C16.77 77.1 16.75 77.02 16.74 76.96V76.9C16.74 76.9 16.72 76.88 16.72 76.86C16.7 76.8 16.69 76.73 16.67 76.65C16.67 76.65 16.66 76.62 16.66 76.61C16.66 76.61 16.66 76.6 16.66 76.59C16.66 76.58 16.66 76.57 16.65 76.56C16.63 76.51 16.62 76.45 16.58 76.36C16.58 76.36 16.58 76.36 16.58 76.35L16.52 76.2C16.52 76.2 16.5 76.16 16.49 76.14L16.47 76.1C16.44 76.04 16.42 76 16.39 75.95C16.39 75.93 16.38 75.92 16.37 75.9C16.37 75.88 16.35 75.87 16.34 75.86C16.34 75.86 16.33 75.84 16.32 75.83C16.3 75.8 16.29 75.77 16.27 75.74C16.23 75.67 16.19 75.6 16.14 75.52C16.13 75.5 16.12 75.48 16.1 75.46C16.08 75.43 16.05 75.38 16.02 75.34C15.98 75.28 15.93 75.21 15.91 75.18C15.8 75.05 15.66 74.87 15.55 74.75L15.28 74.5C15.18 74.42 15.05 74.31 14.94 74.24L14.61 74.03L14.55 74C14.55 74 14.58 73.93 14.59 73.9L14.64 73.78C14.66 73.7 14.69 73.61 14.72 73.52C14.74 73.46 14.76 73.41 14.77 73.35C14.79 73.27 14.81 73.17 14.84 73.07C14.84 73.07 14.84 73.07 14.84 73.06C14.87 72.9 14.9 72.75 14.92 72.61C14.94 72.4 14.96 72.11 14.97 71.9C14.97 71.76 14.97 71.57 14.96 71.43C14.96 71.3 14.93 71.11 14.9 70.91C14.9 70.89 14.9 70.86 14.89 70.83V70.79C14.87 70.71 14.85 70.64 14.83 70.56L14.79 70.38C14.79 70.38 14.79 70.36 14.79 70.35C14.75 70.21 14.71 70.06 14.66 69.93C14.62 69.81 14.53 69.56 14.38 69.26C14.37 69.23 14.36 69.21 14.34 69.18L14.26 69.03C14.23 68.97 14.2 68.92 14.16 68.86L14.12 68.78C14.03 68.64 13.97 68.55 13.92 68.47C13.9 68.45 13.89 68.43 13.88 68.4C13.88 68.39 13.86 68.38 13.86 68.37C13.77 68.24 13.71 68.17 13.58 68.02L13.54 67.97C13.54 67.97 13.46 67.89 13.42 67.84L13.28 67.69C13.28 67.69 13.25 67.66 13.23 67.65C12.99 67.41 12.78 67.24 12.7 67.18C12.63 67.13 12.54 67.06 12.43 66.99L12.36 66.94C12.36 66.94 12.28 66.89 12.25 66.87C12.17 66.82 12.08 66.77 11.98 66.71C11.93 66.68 11.87 66.65 11.82 66.62L11.73 66.58C11.73 66.58 11.64 66.54 11.6 66.52L11.47 66.46C11.4 66.43 11.33 66.4 11.25 66.37C11.2 66.35 11.17 66.33 11.12 66.31C11.11 66.31 11.09 66.31 11.08 66.3C11.05 66.3 11.03 66.28 11 66.27L10.66 66.16C10.54 66.13 10.39 66.09 10.27 66.06H10.25C10.25 66.06 10.23 66.06 10.21 66.05L9.95 66C9.85 65.99 9.72 65.97 9.62 65.96L9.33 65.94C9.24 65.94 9.13 65.94 9.04 65.94C9.03 65.94 9.01 65.94 9 65.94C9.03 65.94 9.06 65.94 9.1 65.94C8.16 65.94 7.42 66.15 7.21 66.23C6.99 66.31 6.88 66.35 6.68 66.43C6.55 66.49 6.39 66.56 6.12 66.71C5.92 66.83 5.6 67.02 5.19 67.37C5.02 67.53 4.79 67.74 4.63 67.92C4.49 68.09 4.31 68.29 4.08 68.64C3.64 69.33 3.44 69.96 3.38 70.19C3.32 70.41 3.24 70.7 3.22 70.93C3.17334 71.35 3.15334 71.7433 3.16 72.11C3.17 72.5 3.27 73.15 3.47 73.73C3.52 73.87 3.63 74.18 3.83 74.56C3.83 74.55 3.81 74.54 3.81 74.53L3.88 74.65C3.91 74.71 3.94 74.76 3.98 74.82L4.04 74.93C4.07 74.98 4.12 75.04 4.15 75.1C4.19 75.15 4.21 75.21 4.25 75.26C4.3 75.33 4.35 75.38 4.4 75.44C4.45 75.51 4.5 75.58 4.55 75.64C4.57 75.66 4.57 75.67 4.59 75.68C4.63 75.72 4.66 75.76 4.7 75.8C4.24 76.27 3.94 76.77 3.8 77.25C3.78 77.32 3.74 77.48 3.7 77.64C3.7 77.66 3.7 77.67 3.69 77.69C3.67 77.79 3.65 77.88 3.63 77.97C3.63 77.98 3.63 78.01 3.63 78.02C3.63 78.04 3.63 78.06 3.62 78.08C3.6 78.2 3.58 78.38 3.58 78.61C3.58 78.67 3.58 78.72 3.58 78.77V78.79C3.58 78.79 3.58 78.8 3.58 78.81C3.58 78.83 3.58 78.85 3.58 78.87C3.58 78.96 3.6 79.06 3.61 79.17C3.62 79.26 3.64 79.34 3.66 79.41C3.66 79.45 3.66 79.47 3.68 79.51C3.68 79.53 3.69 79.54 3.7 79.56C3.77 79.82 3.86 80.01 3.91 80.11L3.93 80.15L3.95 80.19C3.95 80.2 3.97 80.21 3.97 80.22L4.07 80.39C4.13 80.49 4.21 80.6 4.33 80.74V80.76C4.33 80.76 4.37 80.79 4.38 80.8L4.57 81C4.66 81.09 4.75 81.17 4.84 81.24C4.84 81.24 4.87 81.26 4.87 81.27C4.87 81.27 4.88 81.28 4.89 81.29C4.91 81.31 4.96 81.34 5 81.37C5.04 81.4 5.06 81.41 5.11 81.45C5.13 81.46 5.15 81.48 5.17 81.49L5.21 81.52C5.29 81.57 5.38 81.62 5.47 81.67C5.5 81.69 5.52 81.7 5.56 81.72C5.57 81.72 5.58 81.73 5.6 81.74C5.75 81.82 5.83 81.86 5.96 81.91H5.98L6 81.93L6.05 81.95C6.05 81.95 6.07 81.95 6.08 81.95C6.17 81.98 6.26 82.02 6.39 82.07C6.39 82.07 6.42 82.08 6.47 82.1C6.5 82.1 6.54 82.12 6.59 82.14C6.61 82.14 6.62 82.14 6.64 82.16C6.7 82.18 6.77 82.2 6.85 82.22C6.88 82.22 6.9 82.23 6.93 82.24C7 82.26 7.07 82.28 7.15 82.29C7.18 82.29 7.2 82.3 7.23 82.31C7.63 85.69 7.61 88.69 7.52 90.66C7.44 90.74 7.35 90.83 7.28 90.91C7.32 90.87 7.34 90.82 7.37 90.78C7.32 90.84 7.25 90.92 7.19 91C7.19 91.01 7.17 91.02 7.17 91.03C7.09 91.13 7.01 91.24 6.94 91.34C6.77 91.62 6.7 91.74 6.55 92.11C6.49 92.25 6.32 92.77 6.36 93.39C6.36 93.53 6.39 93.67 6.41 93.79C6.41 93.78 6.41 93.76 6.4 93.75C6.07 94.22 5.75 94.69 5.42 95.15C5.06 95.67 4.85 96.19 4.75 96.7C4.77 96.61 4.77 96.52 4.8 96.44C4.76 96.59 4.72 96.8 4.69 96.95C4.67 97.06 4.66 97.2 4.66 97.3C4.66 97.61 4.66 97.87 4.75 98.32C4.75 98.35 4.77 98.37 4.78 98.4L4.68 98.75C4.66 98.86 4.64 98.99 4.62 99.11C4.62 99.13 4.61 99.16 4.61 99.18C4.61 99.2 4.61 99.22 4.61 99.24C4.61 99.24 4.61 99.26 4.61 99.27V99.3C4.6 99.43 4.59 99.58 4.6 99.7C4.6 99.86 4.63 100.07 4.65 100.23L4.57 100.25Z" fill="#1F1F1F"/>
<path id="Vector_2" d="M19.1 93.46C18.37 93.22 17.46 92.95 15.9 92.87C14.87 92.82 13.64 92.9 12.52 93.11C10.93 93.41 9.73998 93.89 9.30998 94.09C9.12998 94.17 8.88998 94.28 8.70998 94.37C8.53998 94.46 8.30998 94.58 8.13998 94.68C7.96998 94.77 7.75998 94.91 7.59998 95.01C7.59998 95.01 7.10998 95.31 6.56998 95.79C6.91998 95.48 7.99997 95.84 8.06997 95.86C10.43 93.81 14.79 93 17.81 94.05C20.83 95.1 21.36 97.62 19 99.66C16.64 101.7 12.28 102.52 9.25998 101.47C6.23998 100.42 5.70998 97.9 8.06997 95.86C7.99997 95.84 6.92998 95.49 6.56998 95.79C6.43998 95.91 6.25998 96.06 6.13998 96.19C5.93998 96.4 5.67998 96.7 5.49998 96.93C5.35998 97.1 5.06998 97.56 4.94998 97.83C4.87998 97.98 4.78998 98.18 4.73998 98.33C4.65998 98.58 4.57998 98.93 4.53998 99.19C4.51998 99.34 4.50998 99.55 4.51998 99.71C4.51998 99.87 4.54998 100.08 4.56998 100.24C4.80998 101.63 5.98998 102.86 8.03998 103.57C12.03 104.96 17.78 103.89 20.9 101.18C22.41 99.87 23.03 98.41 22.8 97.1C22.77 96.98 22.74 96.81 22.7 96.69C22.64 96.5 22.55 96.24 22.45 96.06C22.32 95.83 22.12 95.53 21.97 95.32C21.87 95.19 21.71 95.03 21.59 94.91C21.47 94.79 21.3 94.64 21.16 94.54C20.9 94.36 20.55 94.13 20.28 93.97C20.28 93.97 19.67 93.64 19.1 93.46Z" fill="#1F1F1F"/>
<path id="Vector_3" d="M6.56998 95.8C6.33998 96.01 6.04998 96.3 5.83998 96.52L5.49998 96.94C5.39998 97.08 5.26998 97.27 5.17998 97.42L4.94998 97.85C4.88998 98 4.79998 98.2 4.73998 98.35L4.61998 98.78C4.58998 98.94 4.54998 99.14 4.53998 99.3V99.73C4.53998 99.89 4.54998 100.1 4.57998 100.26C4.63998 100.61 4.75998 100.95 4.93998 101.27C4.79998 100.91 4.80998 100.83 4.81998 100.81C4.91998 100.71 5.12998 100.96 5.23998 101.05C6.71998 102.28 8.59998 103 10.85 103.2C13.25 103.41 15.02 103.13 17.07 102.82C17.33 102.78 17.54 102.8 17.54 102.8C17.58 102.8 17.65 102.84 17.66 102.88C17.67 102.95 17.6 103.01 17.25 103.28C18.65 102.78 19.91 102.08 20.91 101.21C21.32 100.86 21.66 100.5 21.93 100.13C21.91 100.15 21.89 100.17 21.87 100.18C21.78 100.24 21.59 100.41 21.54 100.32C21.46 100.2 21.65 100 21.72 99.87C23.87 95.85 20.77 94.12 19.34 93.56C19.1 93.47 18.77 93.37 18.52 93.29C18.33 93.24 18.07 93.17 17.87 93.13L17.24 93.02C17.04 93 16.77 92.96 16.57 92.94L15.91 92.89C15.71 92.89 15.44 92.87 15.23 92.88L14.56 92.9C14.36 92.91 14.08 92.93 13.88 92.95L13.2 93.03C13 93.06 12.73 93.1 12.53 93.14L11.86 93.28C11.66 93.33 11.4 93.39 11.2 93.45L10.56 93.65C10.37 93.72 10.11 93.8 9.92998 93.88L9.31998 94.13C9.13998 94.22 8.89998 94.32 8.71998 94.41L8.14998 94.72C7.97998 94.82 7.75998 94.96 7.58998 95.06L7.07998 95.42C6.92998 95.54 6.71998 95.7 6.57998 95.83C6.92998 95.52 8.00998 95.88 8.07998 95.9C10.44 93.85 14.8 93.04 17.82 94.09C20.84 95.14 21.37 97.66 19.01 99.7C16.65 101.74 12.29 102.56 9.26998 101.51C6.24998 100.46 5.71998 97.94 8.07998 95.9C8.00998 95.88 6.93998 95.53 6.57998 95.83L6.56998 95.8Z" fill="#171717"/>
<path id="Vector_4" d="M3.63 79.53C3.71 79.84 3.85 80.11 3.9 80.21C4.12 80.62 4.45 81 4.85 81.31C4.95 81.39 5.18 81.56 5.55 81.76C5.81 81.9 5.84 81.91 6.37 82.11C6.37 82.11 6.72 82.24 7.26 82.36C7.67 82.45 8.02 82.48 8.18 82.5C8.94 82.58 9.72 82.54 10.07 82.5C10.73 82.43 10.8 82.41 11.48 82.27C11.74 82.22 11.97 82.14 12.39 82.01C12.48 81.98 13.27 81.73 14.11 81.25C14.55 80.99 14.85 80.76 14.88 80.74C15.36 80.37 15.58 80.14 15.67 80.03C15.82 79.85 16.02 79.6 16.16 79.41C16.24 79.3 16.32 79.15 16.38 79.03C16.52 78.79 16.61 78.46 16.66 78.29C16.66 78.29 16.77 77.91 16.76 77.5C16.76 77.11 16.71 76.95 16.63 76.63C16.6 76.52 16.52 76.28 16.32 75.89C16.17 75.61 15.96 75.31 15.86 75.17C15.46 74.61 14.79 74.14 13.87 73.82C11.12 72.86 7.15 73.6 5 75.47C4.34 76.04 3.93 76.66 3.75 77.26C3.72 77.38 3.62 77.74 3.58 77.98C3.55 78.17 3.5 78.49 3.51 78.78C3.51 78.97 3.53 79.21 3.61 79.54L3.63 79.53Z" fill="#1A1A1A"/>
<path id="Vector_5" d="M7.43999 95.71C7.43999 95.71 7.46999 95.73 7.47999 95.75C7.46999 95.74 7.44999 95.73 7.43999 95.71ZM7.38999 95.65C7.38999 95.65 7.40999 95.67 7.41999 95.68C7.40999 95.67 7.39999 95.66 7.38999 95.65ZM7.32999 95.6C7.32999 95.6 7.34999 95.62 7.35999 95.63C7.34999 95.62 7.33999 95.61 7.32999 95.6ZM7.27999 95.54C7.27999 95.54 7.29999 95.56 7.30999 95.57C7.29999 95.56 7.28999 95.55 7.27999 95.54ZM7.22999 95.48C7.22999 95.48 7.24999 95.5 7.25999 95.51C7.25999 95.5 7.23999 95.49 7.22999 95.48ZM7.17999 95.42C7.17999 95.42 7.19999 95.44 7.20999 95.45C7.20999 95.44 7.18999 95.43 7.17999 95.42ZM7.12999 95.36C7.12999 95.36 7.14999 95.38 7.15999 95.39C7.15999 95.38 7.13999 95.37 7.12999 95.36ZM7.08999 95.3C7.08999 95.3 7.10999 95.32 7.11999 95.34C7.11999 95.33 7.09999 95.32 7.08999 95.3ZM7.03999 95.23C7.03999 95.23 7.05999 95.26 7.05999 95.27C7.05999 95.26 7.03999 95.24 7.03999 95.23ZM6.99999 95.16C6.99999 95.16 7.01999 95.19 7.02999 95.2C7.02999 95.19 7.00999 95.17 6.99999 95.16ZM6.94999 95.08C6.94999 95.08 6.96999 95.12 6.98999 95.14C6.97999 95.12 6.96999 95.1 6.94999 95.08ZM6.91999 95.02C6.91999 95.02 6.93999 95.06 6.94999 95.08C6.93999 95.06 6.92999 95.04 6.91999 95.02ZM6.88999 94.95C6.88999 94.95 6.89999 94.98 6.90999 94.99C6.90999 94.98 6.89999 94.96 6.88999 94.95ZM6.85999 94.89C6.85999 94.89 6.86999 94.92 6.87999 94.93C6.87999 94.92 6.86999 94.9 6.85999 94.89ZM6.82999 94.82C6.82999 94.82 6.83999 94.85 6.84999 94.86C6.84999 94.85 6.83999 94.83 6.82999 94.82ZM6.79999 94.76C6.79999 94.76 6.79999 94.78 6.80999 94.8C6.80999 94.79 6.80999 94.78 6.79999 94.76ZM6.77999 94.69C6.77999 94.69 6.77999 94.71 6.78999 94.73C6.78999 94.72 6.78999 94.71 6.77999 94.69ZM6.75999 94.62C6.75999 94.62 6.75999 94.65 6.76999 94.66C6.76999 94.65 6.76999 94.63 6.75999 94.62ZM6.73999 94.55C6.73999 94.55 6.73999 94.58 6.73999 94.59C6.73999 94.58 6.73999 94.56 6.73999 94.55ZM6.72999 94.48C6.72999 94.48 6.72999 94.51 6.72999 94.52C6.72999 94.51 6.72999 94.49 6.72999 94.48ZM7.93999 101.01C11.71 102.32 17.17 101.31 20.12 98.75C22.54 96.65 22.53 94.15 20.35 92.59C20.27 92.53 20.17 92.46 20.09 92.4C20.05 92.37 20 92.33 19.96 92.31C19.88 92.25 19.78 92.18 19.7 92.12C19.62 92.06 19.52 91.99 19.44 91.93C19.4 91.9 19.35 91.86 19.31 91.84C19.23 91.78 19.13 91.71 19.05 91.65C18.97 91.59 18.87 91.52 18.79 91.46C18.75 91.43 18.7 91.39 18.66 91.37C18.64 91.36 18.62 91.34 18.61 91.33C18.61 91.43 18.61 91.52 18.59 91.62C19.17 92.64 18.86 93.92 17.58 95.03C15.51 96.83 11.69 97.54 9.03999 96.61C8.46999 96.41 7.99999 96.15 7.62999 95.85C7.62999 95.85 7.63999 95.86 7.64999 95.87C7.64999 95.87 7.60999 95.83 7.58999 95.82C7.58999 95.82 7.57999 95.81 7.56999 95.8C7.36999 95.62 6.99999 95.28 6.70999 94.74C6.53999 94.42 6.42999 94.11 6.36999 93.77C6.03999 94.24 5.71999 94.71 5.38999 95.17C3.79999 97.45 4.75999 99.89 7.96999 101L7.93999 101.01ZM7.49999 95.77C7.49999 95.77 7.51999 95.79 7.53999 95.8C7.53999 95.8 7.50999 95.78 7.49999 95.77ZM6.70999 93.72C6.70999 93.72 6.70999 93.69 6.70999 93.68C6.70999 93.69 6.70999 93.71 6.70999 93.72ZM6.69999 93.79C6.69999 93.79 6.69999 93.76 6.69999 93.75C6.69999 93.76 6.69999 93.78 6.69999 93.79ZM6.68999 93.86C6.68999 93.86 6.68999 93.83 6.68999 93.82C6.68999 93.83 6.68999 93.85 6.68999 93.86ZM6.68999 93.93C6.68999 93.93 6.68999 93.9 6.68999 93.89C6.68999 93.9 6.68999 93.92 6.68999 93.93ZM6.67999 94.01C6.67999 94.01 6.67999 93.98 6.67999 93.97C6.67999 93.98 6.67999 94 6.67999 94.01ZM6.67999 94.08C6.67999 94.08 6.67999 94.05 6.67999 94.04C6.67999 94.05 6.67999 94.07 6.67999 94.08ZM6.68999 94.16C6.68999 94.16 6.68999 94.12 6.68999 94.1C6.68999 94.12 6.68999 94.14 6.68999 94.16ZM6.68999 94.25C6.68999 94.25 6.68999 94.2 6.68999 94.18C6.68999 94.2 6.68999 94.23 6.68999 94.25ZM6.69999 94.32C6.69999 94.32 6.69999 94.29 6.69999 94.27C6.69999 94.29 6.69999 94.3 6.69999 94.32ZM6.70999 94.39C6.70999 94.39 6.70999 94.36 6.70999 94.35C6.70999 94.36 6.70999 94.38 6.70999 94.39ZM6.71999 94.45C6.71999 94.45 6.71999 94.42 6.71999 94.41C6.71999 94.42 6.71999 94.44 6.71999 94.45Z" fill="#1F1F1F"/>
<path id="Vector_6" d="M9.98 96.88C10.15 96.91 10.33 96.94 10.51 96.96C11 97.02 11.51 97.04 12.02 97.02L12.22 101.58C11.49 101.61 10.76 101.58 10.07 101.5C9.81 101.47 9.56 101.43 9.31 101.38L9.98 96.88Z" fill="#5B5B5B"/>
<path id="Vector_7" d="M23.01 98.34L22.8 97.11C23.03 98.42 22.41 99.88 20.9 101.19C17.78 103.9 12.03 104.97 8.04001 103.58C5.99001 102.87 4.81001 101.64 4.57001 100.25L4.78001 101.48C5.02001 102.87 6.20001 104.1 8.25001 104.81C12.24 106.2 17.99 105.13 21.11 102.42C22.62 101.11 23.24 99.65 23.01 98.34Z" fill="#141414"/>
<path id="Vector_8" d="M20.09 99.5C20.29 99.32 20.55 99.08 20.73 98.88C21.01 98.57 21.21 98.3 21.25 98.22C21.31 98.13 21.39 98.02 21.44 97.93C21.52 97.79 21.62 97.6 21.69 97.46C21.78 97.25 21.9 96.99 21.99 96.54C21.99 96.54 22.06 96.18 22.07 95.88C22.07 95.74 22.07 95.55 22.05 95.41C22.05 95.32 22.03 95.2 22.01 95.11C21.97 94.92 21.92 94.66 21.78 94.36C21.74 94.27 21.69 94.15 21.64 94.06C21.56 93.92 21.45 93.75 21.37 93.62C22.44 95.13 22.07 97.08 20.12 98.77C17.17 101.33 11.72 102.34 7.93997 101.03C5.32997 100.12 4.20997 98.34 4.72997 96.49C4.68997 96.64 4.64997 96.85 4.61997 97C4.59997 97.11 4.58997 97.25 4.58997 97.35C4.58997 97.66 4.58997 97.92 4.67997 98.37C4.79997 98.93 5.10997 99.52 5.50997 99.99C6.05997 100.63 6.62997 101 7.23997 101.32C7.65997 101.54 8.20997 101.73 8.20997 101.73C8.35997 101.78 8.56997 101.85 8.71997 101.89C8.94997 101.95 9.26997 102.03 9.50997 102.08C12.49 102.67 16.13 102.03 18.73 100.49C19 100.32 19.36 100.08 19.62 99.89C19.77 99.79 19.95 99.63 20.09 99.51V99.5Z" fill="#141414"/>
<path id="Vector_9" d="M18.45 94.01C18.56 93.82 18.85 93.33 18.96 92.63C19.03 92.16 19.01 91.7 18.88 91.25C18.71 90.65 18.37 90.23 18.28 90.12C18.2 90.03 18.02 89.81 17.83 89.66C17.75 89.6 17.65 89.51 17.57 89.45C17.42 89.35 17.22 89.22 17.06 89.13C18.97 90.18 19.14 92.09 17.31 93.68C15.25 95.47 11.45 96.17 8.81998 95.26C6.39998 94.42 5.80998 92.5 7.31998 90.81C7.18998 90.97 6.99998 91.19 6.88998 91.37C6.71998 91.65 6.64998 91.77 6.49998 92.14C6.43998 92.28 6.26998 92.8 6.30998 93.42C6.34998 94.04 6.56998 94.52 6.66998 94.7C6.76998 94.89 7.04998 95.4 7.63998 95.88C7.99998 96.18 8.46998 96.43 9.02998 96.63C11.68 97.55 15.5 96.84 17.57 95.05C17.95 94.72 18.25 94.37 18.46 94.03L18.45 94.01Z" fill="#1F1F1F"/>
<path id="Vector_10" d="M7.76998 90.36L8.37998 90.69C6.57998 92.26 12.93 88.85 11.45 89.21L11.27 88.67C12.96 88.27 14.79 88.27 16.26 88.78C16.96 89.02 17.5 89.35 17.89 89.74C18.96 90.82 18.82 92.36 17.3 93.67C15.24 95.46 11.44 96.16 8.80998 95.25C6.17998 94.33 5.70998 92.14 7.76998 90.35V90.36Z" fill="#191919"/>
<path id="Vector_11" d="M5.93002 73.39C4.37002 74.74 4.72002 76.4 6.72002 77.1C8.72002 77.8 11.59 77.26 13.15 75.91C14.71 74.56 14.36 72.9 12.36 72.2C10.37 71.51 7.49002 72.04 5.93002 73.39Z" fill="#1A1A1A"/>
<path id="Vector_12" d="M9.93998 103.89C10.12 103.93 11.78 104.32 13.53 103.87C13.48 103.84 13.42 103.77 13.36 103.77C13.33 103.77 13.29 103.77 13.26 103.77C13.06 103.77 12.8 103.77 12.6 103.77C12.58 103.77 10.82 103.74 10.11 103.68C9.74332 103.647 9.51332 103.663 9.41998 103.73C9.57998 103.78 9.78998 103.85 9.94998 103.89H9.93998Z" fill="#5B5B5B"/>
<path id="Vector_13" d="M17.24 103.26C17.7 103.09 18.14 102.91 18.57 102.7C19.44 102.28 20.24 101.77 20.91 101.19C21.03 101.09 21.14 100.98 21.25 100.88C21.51 100.63 21.74 100.37 21.93 100.11L22.14 101.34C21.94 101.6 21.72 101.86 21.46 102.11C21.35 102.21 21.24 102.32 21.12 102.42C20.45 103 19.66 103.51 18.78 103.93C18.35 104.14 17.91 104.32 17.45 104.49L17.24 103.26Z" fill="#171717"/>
<path id="Vector_14" d="M21.12 97.68L18.26 94.29C18.13 94.47 17.98 94.64 17.81 94.81L20.48 98.43C20.73 98.19 20.94 97.94 21.13 97.69L21.12 97.68Z" fill="#171717"/>
<path id="Vector_15" d="M20.48 98.42L17.81 94.8C17.73 94.88 17.65 94.96 17.56 95.03C17.19 95.35 16.76 95.64 16.3 95.89L18.32 99.97C18.98 99.62 19.59 99.21 20.12 98.75C20.25 98.64 20.37 98.53 20.48 98.42Z" fill="#171717"/>
<path id="Vector_16" d="M18.32 99.97L16.3 95.89C15.97 96.07 15.62 96.22 15.26 96.36L16.84 100.64C17.36 100.45 17.85 100.22 18.32 99.97Z" fill="#171717"/>
<path id="Vector_17" d="M17.56 95.04C17.9 94.75 18.17 94.44 18.37 94.13C18.37 94.13 18.37 94.14 18.36 94.15C18.28 94.24 17.43 94.25 17.39 94.16C17.39 94.16 17.5067 93.86 17.74 93.26C17.61 93.4 17.46 93.55 17.3 93.69C16.9 94.03 16.44 94.34 15.94 94.6C16.34 94.69 16.49 94.73 16.37 94.97C16.05 95.61 15.44 96.06 15.1 96.27C14.73 96.5 14.38 96.64 14.15 96.71C14.12 96.71 14.09 96.73 14.06 96.74C15.4 96.42 16.65 95.84 17.56 95.05V95.04Z" fill="#171717"/>
<path id="Vector_18" d="M17.84 91.24C17.7 90.96 15.07 85.6 13.9 78.85C13.99 79.36 13.75 79.92 13.17 80.43C11.96 81.48 9.73998 81.89 8.18998 81.35C7.39998 81.07 6.93998 80.6 6.84998 80.06C8.00998 86.81 7.31998 92.74 7.27998 93.06C7.41998 93.87 8.09998 94.58 9.28998 94.99C11.6 95.79 14.93 95.18 16.74 93.61C17.62 92.85 17.97 92 17.84 91.25V91.24Z" fill="#1F1F1F"/>
<path id="Vector_19" d="M12.92 95.23C12.92 95.23 11.55 88.94 11.03 86.81C10.51 84.68 9.06999 81.47 9.14999 84.15C9.22999 86.83 9.50999 93.28 9.28999 94.98C9.24999 95.01 11 95.56 12.92 95.23Z" fill="#5B5B5B"/>
<path id="Vector_20" d="M11.91 82.06C13.44 89.73 14.79 94.43 14.84 94.63C14.84 94.65 14.83 94.7 14.85 94.71C15.56 94.43 16.21 94.05 16.73 93.6C16.88 93.47 17.02 93.33 17.14 93.2C17.14 93.2 14.8 87.51 13.56 80C13.45 80.14 13.32 80.28 13.16 80.42C12.77 80.76 12.28 81.03 11.74 81.22C11.79 81.47 11.86 81.8 11.91 82.06Z" fill="#171717"/>
<path id="Vector_21" d="M15.23 80.46C15.36 80.35 15.53 80.19 15.64 80.07C15.72 79.98 15.83 79.86 15.91 79.77C15.99 79.67 16.1 79.53 16.17 79.42C16.38 79.07 16.44 78.98 16.54 78.72C16.69 78.33 16.74 78.01 16.74 77.98C16.77 77.73 16.83 77.25 16.62 76.59C16.44 76 16.1 75.51 15.87 75.19C16.3 75.8 16.42 76.5 16.19 77.22C16.01 77.8 15.6 78.4 14.96 78.95C12.81 80.82 8.83998 81.55 6.08998 80.6C5.18998 80.29 4.53998 79.83 4.13998 79.3C3.68998 78.7 3.55998 78 3.75998 77.28C3.66998 77.6 3.61998 77.81 3.56998 78.1C3.54998 78.26 3.50998 78.49 3.51998 78.84C3.53998 79.5 3.75998 79.98 3.84998 80.15C3.95998 80.36 4.04998 80.52 4.26998 80.79C4.40998 80.96 4.61998 81.15 4.77998 81.29C4.87998 81.37 5.10998 81.55 5.48998 81.76C5.77998 81.91 5.89998 81.96 6.31998 82.12C6.31998 82.12 6.67998 82.26 7.22998 82.37C7.63998 82.46 7.98998 82.5 8.15998 82.51C8.85998 82.58 9.61998 82.56 10.06 82.51C10.2 82.49 10.39 82.48 10.53 82.45C10.67 82.43 10.86 82.4 11 82.37C11.14 82.34 11.33 82.3 11.46 82.27C11.72 82.22 11.92 82.15 12.37 82.02C12.4 82.01 13.23 81.75 14.08 81.27C14.69 80.92 15.07 80.59 15.21 80.47L15.23 80.46Z" fill="#1A1A1A"/>
<path id="Vector_22" d="M16.19 77.21C16.42 76.49 16.3 75.78 15.87 75.18C15.33 74.42 14.37 75.18 13.88 75.12C13.91 75.17 13.96 75.24 13.99 75.29C14.27 75.8 14.17 76.26 14.08 76.49C14.58 76.73 15.62 76.3 16.19 77.21Z" fill="#1A1A1A"/>
<path id="Vector_23" d="M15.86 75.18C15.75 75.05 15.61 74.87 15.5 74.75L15.23 74.5C15.13 74.42 15 74.31 14.89 74.24L14.56 74.03L14.42 73.95L14.05 73.77C13.93 73.72 13.76 73.65 13.64 73.61L13.23 73.48C13.1 73.45 12.93 73.4 12.8 73.37L12.37 73.29C12.24 73.27 12.06 73.25 11.92 73.23L11.47 73.2C11.33 73.2 11.15 73.19 11.02 73.2H10.57C10.43 73.22 10.25 73.23 10.11 73.24L9.64997 73.29C9.50997 73.31 9.32997 73.34 9.19997 73.36L8.74997 73.45C8.61997 73.48 8.43997 73.53 8.30997 73.56L7.86997 73.69C7.73997 73.74 7.56997 73.79 7.43997 73.84L7.01997 74.01C6.89997 74.07 6.73997 74.14 6.61997 74.2L6.22997 74.41C6.11997 74.48 5.95997 74.57 5.84997 74.64L5.49997 74.89C5.39997 74.97 5.25997 75.08 5.15997 75.17C5.51997 74.86 6.30997 75.45 6.53997 75.26C6.60997 75.21 6.68997 75.14 6.75997 75.08C6.82997 75.03 6.91997 74.96 6.99997 74.91L7.24997 74.75C7.32997 74.71 7.43997 74.65 7.51997 74.61L7.79997 74.48C7.88997 74.44 7.99997 74.39 8.08997 74.36L8.38997 74.25C8.47997 74.22 8.60997 74.18 8.69997 74.15L9.01997 74.07C9.11997 74.05 9.24997 74.02 9.33997 74L9.66997 73.95C9.76997 73.94 9.89997 73.92 9.99997 73.91L10.33 73.89H10.58H10.63C11.24 73.89 13.08 73.92 13.99 75.1C14.5 75.06 15.36 74.46 15.87 75.16L15.86 75.18Z" fill="#1A1A1A"/>
<path id="Vector_24" d="M4.14001 79.28C4.54001 79.81 5.20001 80.27 6.09001 80.58C8.84001 81.54 12.81 80.8 14.96 78.93C15.6 78.38 16.01 77.78 16.19 77.2C15.62 76.3 14.58 76.72 14.08 76.48C14.06 76.52 14.04 76.58 14.02 76.62C13.55 77.41 13.09 77.42 13.09 77.42C12.97 77.35 13.62 75.42 13.62 75.4C13.49 75.57 13.33 75.73 13.15 75.89C12.63 76.34 11.97 76.7 11.25 76.95C11.29 77.03 11.33 77.14 11.37 77.22C11.52 77.52 11.66 77.71 11.99 77.83C12.06 77.86 12.19 77.89 12.22 77.97C12.47 78.68 9.11001 79.81 6.91001 78.8C6.18001 78.47 5.95001 78.07 5.86001 77.92L5.74001 78C5.36001 78.2 4.92001 78.29 4.58001 78.56C4.20001 78.86 4.14001 79.27 4.14001 79.27V79.28Z" fill="#1A1A1A"/>
<path id="Vector_25" d="M16.19 77.21C16.42 76.49 16.3 75.78 15.87 75.18C15.72 74.98 15.55 74.88 15.36 74.85C15.4 74.92 15.46 75.01 15.51 75.08C15.61 75.27 15.92 75.84 15.72 76.76C15.9 76.85 16.06 76.99 16.2 77.21H16.19Z" fill="#242424"/>
<path id="Vector_26" d="M14.87 79.62C15.16 79.97 15.86 79.84 16.19 79.36L16.38 79.04C16.43 78.94 16.49 78.8 16.54 78.7L16.65 78.38C16.68 78.26 16.72 78.09 16.74 77.96L16.77 77.64C16.77 77.5 16.77 77.32 16.75 77.18L16.7 76.88C16.66 76.72 16.59 76.5 16.53 76.34L16.42 76.1C16.23 75.74 16.17 75.63 15.86 75.18C16.29 75.79 16.41 76.49 16.18 77.21C16 77.79 15.59 78.39 14.95 78.94C14.88 79.01 14.8 79.07 14.72 79.13C14.72 79.2 14.73 79.3 14.74 79.38C14.74 79.49 14.86 79.63 14.86 79.63L14.87 79.62Z" fill="#1C1C1C"/>
<path id="Vector_27" d="M3.59 78.65C3.52 79.09 3.59 79.37 3.67 79.67L3.78 79.97L3.86 80.13L4.02 80.42C4.1 80.53 4.2 80.67 4.28 80.77L4.52 81.03C4.62 81.12 4.75 81.23 4.85 81.31L5.16 81.53C5.28 81.6 5.43 81.69 5.55 81.76L5.93 81.94H5.95L6 81.97C9.89 83.44 14.57 81.59 14.08 79.93C14.06 79.85 13.99 79.75 13.94 79.67C11.71 80.98 8.45 81.41 6.1 80.59C5.2 80.28 4.55 79.82 4.15 79.29C3.9 78.96 3.75 78.6 3.7 78.22C3.69 78.28 3.67 78.35 3.65 78.4C3.63 78.48 3.61 78.57 3.6 78.65H3.59Z" fill="#1C1C1C"/>
<path id="Vector_28" d="M14.96 78.94C15.6 78.39 16.01 77.79 16.19 77.21C16.05 76.99 15.89 76.85 15.71 76.76C15.69 76.82 15.67 76.91 15.66 76.97C15.5933 77.2167 15.5333 77.4033 15.48 77.53C15.44 77.62 15.39 77.75 15.35 77.84C15.24 78.08 15.08 78.3 14.96 78.55C14.88 78.72 14.83 78.97 14.74 79.13C14.82 79.07 14.9 79 14.97 78.94H14.96Z" fill="#242424"/>
<path id="Vector_29" d="M4.14001 79.28C4.54001 79.81 5.20001 80.27 6.09001 80.58C8.44001 81.4 11.7 80.98 13.93 79.66C13.84 79.63 13.73 79.59 13.64 79.56C13.64 79.56 13.21 79.45 12.71 79.56C10.86 79.95 7.00001 80.75 4.52001 78.61C4.34001 78.76 4.20001 78.97 4.14001 79.27V79.28Z" fill="#242424"/>
<path id="Vector_30" d="M8.03002 78.75C8.79002 79.01 9.41002 78.89 9.79002 78.75C9.58002 78.69 8.50002 78.5 7.83002 78.67C7.89002 78.7 7.97002 78.73 8.03002 78.75Z" fill="#5B5B5B"/>
<path id="Vector_31" d="M12.88 76.28C13.22 75.98 14.25 75.05 14.71 73.35C14.77 73.13 14.83 72.84 14.86 72.61C14.88 72.4 14.9 72.11 14.91 71.9C14.91 71.76 14.91 71.57 14.9 71.43C14.89 71.09 14.78 70.44 14.6 69.92C14.52 69.69 14.31 69.09 13.82 68.4C13.34 67.72 12.8 67.29 12.65 67.18C12.4 66.99 11.88 66.6 11.08 66.31C10.5 66.09 9.90999 65.97 9.29999 65.95C8.24999 65.9 7.39999 66.16 7.16999 66.24C6.94999 66.32 6.83999 66.36 6.63999 66.44C6.50999 66.5 6.34999 66.57 6.07999 66.72C5.87999 66.83 5.55999 67.03 5.14999 67.38C5.60333 66.9867 5.60333 66.9867 5.14999 67.38C4.97999 67.54 4.74999 67.75 4.58999 67.93C4.44999 68.1 4.26999 68.3 4.03999 68.65C3.59999 69.34 3.39999 69.97 3.33999 70.2C3.27999 70.42 3.19999 70.71 3.17999 70.94C3.13333 71.36 3.11333 71.7533 3.11999 72.12C3.12999 72.51 3.22999 73.16 3.42999 73.74C3.50999 73.97 3.71999 74.57 4.20999 75.26C4.68999 75.94 5.22999 76.37 5.37999 76.48C5.62999 76.67 6.14999 77.06 6.94999 77.35C7.52999 77.57 8.11999 77.69 8.72999 77.71C9.77999 77.76 10.63 77.5 10.86 77.42C11.08 77.34 11.19 77.3 11.39 77.22C11.52 77.16 11.68 77.09 11.95 76.94C12.45 76.66 12.81 76.34 12.88 76.28Z" fill="#242424"/>
<path id="Vector_32" d="M4.52001 75.65C4.87001 76.03 4.95001 76.12 5.40001 76.49L5.73001 76.73C5.89001 76.83 6.10001 76.96 6.27001 77.05L6.62001 77.22C6.76001 77.28 6.95001 77.35 7.09001 77.41L7.43001 77.52C7.55001 77.55 7.70001 77.59 7.82001 77.62L8.13001 77.68C8.23001 77.69 8.36001 77.71 8.46001 77.72L8.75001 77.74C8.84001 77.74 8.95001 77.74 9.04001 77.74H9.31001C9.39001 77.73 9.50001 77.72 9.58001 77.71L9.84001 77.68C9.92001 77.67 10.02 77.65 10.1 77.64L10.36 77.59C10.44 77.57 10.54 77.55 10.62 77.52L10.88 77.44C10.96 77.41 11.07 77.38 11.14 77.35L11.41 77.24C11.49 77.2 11.61 77.15 11.69 77.11L11.97 76.96C12.06 76.9 12.19 76.83 12.28 76.77L12.57 76.57C12.67 76.49 12.81 76.38 12.91 76.29L13.19 76.03C13.52 75.68 13.58 75.62 13.84 75.27L14.07 74.92C14.19 74.71 14.34 74.42 14.45 74.2L14.61 73.79C14.68 73.58 14.76 73.29 14.81 73.08L14.89 72.63C14.91 72.42 14.93 72.13 14.94 71.92V71.45C14.91 71.27 14.88 71.03 14.85 70.85L14.75 70.39C14.59 69.86 14.55 69.73 14.3 69.19L14.08 68.79C13.75 68.29 13.75 68.28 13.53 68.03L13.24 67.71C13.07 67.55 12.84 67.34 12.66 67.19L12.33 66.95C12.17 66.85 11.96 66.72 11.79 66.63L11.44 66.46C11.3 66.4 11.11 66.33 10.97 66.27L10.63 66.16C10.51 66.13 10.36 66.09 10.24 66.06L9.93001 66C9.83001 65.99 9.70001 65.97 9.60001 65.96L9.31001 65.94C9.22001 65.94 9.11001 65.94 9.02001 65.94C8.96001 65.94 8.88001 65.94 8.82001 65.94C8.87001 65.94 8.93001 65.94 8.98001 65.94C13.62 66.04 15 71.91 11.22 75.45C9.07001 77.47 5.36001 77.51 3.79001 74.55L4.01001 74.94C4.16001 75.16 4.36001 75.45 4.53001 75.65H4.52001Z" fill="#171717"/>
<path id="Vector_33" d="M5.93002 70.98C5.97002 72.14 7.27002 72.89 8.33002 72C8.77002 71.64 8.95002 70.98 8.86002 70.58C8.70002 69.81 8.09002 69.47 7.79002 69.39C7.06002 69.22 5.89002 69.91 5.93002 70.97V70.98Z" fill="#5B5B5B"/>
<path id="Vector_34" d="M7.79999 81.17C7.80999 81.11 7.82999 81.02 7.84999 80.96C7.89999 80.95 7.96999 80.92 8.02999 80.92C8.27999 80.92 8.60999 80.92 8.84999 80.92C8.93999 80.92 9.04999 80.97 9.13999 81C9.16999 81.08 9.25999 81.17 9.23999 81.25C9.23999 81.25 9.01999 81.51 8.89999 81.53C8.81999 81.54 8.09999 81.47 8.04999 81.45C7.95999 81.41 7.82999 81.31 7.79999 81.21C7.79999 81.2 7.79999 81.18 7.79999 81.17Z" fill="#5B5B5B"/>
</g>
<g id="Group_2">
<path id="Vector_35" d="M0.349995 70.29C0.549995 72.59 1.40999 75.72 1.60999 76.08C1.80999 76.44 3.26999 76.75 4.15999 76.62C4.24999 76.62 4.33999 76.58 4.42999 76.54C5.19999 76.18 5.87999 74.84 6.27999 73.78C6.72999 72.6 6.64999 70.76 6.23999 68.95C5.81999 67.15 7.35999 62.76 7.35999 62.76C7.35999 62.76 7.41 62.92 7.50999 63.21C8.14999 65.16 10.69 72.81 11.21 73.75C11.81 74.83 14.67 77.27 15.16 77.43C15.65 77.59 17.12 77.27 18.07 75.9C18.08 75.88 18.1 75.86 18.11 75.84C19.06 74.41 18.19 71.74 17.49 70.71L16.79 69.67C16.79 69.67 16.21 66.44 16.05 65.49C15.88 64.54 15.51 62.75 15.51 62.75C15.51 62.75 16.81 58.45 16.81 57.74C16.81 57.07 17.32 55.25 17.4 55.01C17.34 55.48 16.52 61.71 17.68 63.23C18.89 64.81 20.6 65.06 21.49 65.13C22.39 65.19 23.76 64.04 24.35 63.52C24.94 62.99 25.46 61.84 25.46 61.84C25.46 61.84 25.25 63.27 27.01 63.98C28.78 64.7 31.07 64.14 32.17 63.08C33.28 62.03 34.68 61.34 35.01 58.55C35.33 55.75 35.33 55.51 35.33 55.51L37.66 51.88C37.66 51.88 39.68 49.24 41.69 47.53C43.71 45.82 46.5 40.39 48.61 38.19C50.72 35.99 73.07 19.72 73.07 19.72C73.07 19.72 76.25 15.94 74.18 9.62004C73.66 8.05004 72.82 6.32004 71.52 4.45004C65 -4.91996 55.94 3.58004 55.94 3.58004C55.94 3.58004 37.71 21.46 33.26 25.49C28.82 29.53 26.82 31.14 22.61 32.59C18.4 34.04 7.84999 37.26 6.64999 39.09C5.45 40.91 0.729995 55.35 0.229995 58.09C-0.270005 60.82 0.149995 67.99 0.339995 70.29H0.349995Z" fill="#F6A878"/>
<path id="Vector_36" d="M13.51 63.16C12.89 64.4 12.14 64.8 12.21 65.21C12.27 65.62 12.98 65.93 13.45 66.52C13.92 67.11 15.28 70.12 16.27 72.2C17.16 74.07 17.91 74.99 18.07 75.92C18.08 75.9 18.1 75.88 18.11 75.86C19.06 74.43 18.19 71.76 17.49 70.73L16.79 69.69C16.79 69.69 16.21 66.46 16.05 65.51C15.88 64.56 15.51 62.77 15.51 62.77C15.51 62.77 16.81 58.47 16.81 57.76C16.81 57.09 17.32 55.27 17.4 55.03C17.34 55.5 16.52 61.73 17.68 63.25C18.89 64.83 20.6 65.08 21.49 65.15C22.39 65.21 23.76 64.06 24.35 63.54C24.94 63.01 25.46 61.86 25.46 61.86C25.46 61.86 25.25 63.29 27.01 64C28.78 64.72 31.07 64.16 32.17 63.1C33.28 62.05 34.68 61.36 35.01 58.57C35.33 55.77 35.33 55.53 35.33 55.53L37.66 51.9C37.66 51.9 39.68 49.26 41.69 47.55C43.71 45.84 46.5 40.41 48.61 38.21C50.72 36.01 73.07 19.74 73.07 19.74C73.07 19.74 76.25 15.96 74.18 9.64001C66.52 18.56 50.93 30.29 48.45 32.4C45.18 35.17 45.97 36.32 43.79 40.47C42.28 43.34 36.36 46.67 36.36 46.67C36.36 46.67 35.36 47.44 34.77 47.98C34.18 48.51 34.39 49.87 34.39 50.83C34.39 51.79 34.24 52.29 34.02 53.9C33.8 55.51 33.33 61.69 31.6 63.09C29.86 64.49 27.47 64.46 26.45 63.34C25.43 62.22 25.68 60.8 26.2 57.91C26.73 55.02 27.44 51.61 27.44 51.61C27.44 51.61 27.16 51.49 26.82 51.33C26.48 51.18 26.29 49.78 26.29 49.78C26.29 49.78 26.32 50 26.29 51.02C26.26 52.04 25.2 54.8 25.2 57.12C25.2 59.44 25.02 61.7 23.69 63.38C22.36 65.05 20.32 64.97 19.06 64.24C17.8 63.52 17.66 62.57 17.48 60.05C17.3 57.53 18.2 54.06 18.11 52.78C18.02 51.51 17.39 49.12 17.39 49.12C17.39 49.12 15.34 55.36 14.78 57.34C14.22 59.33 14.13 61.9 13.51 63.15V63.16Z" fill="#D66545"/>
<path id="Vector_37" d="M5.25999 73.12C5.23999 74.28 4.77999 75.65 4.42999 76.54C5.19999 76.18 5.87999 74.84 6.27999 73.78C6.72999 72.6 6.64999 70.76 6.23999 68.95C5.81999 67.15 7.35999 62.76 7.35999 62.76C7.35999 62.76 7.40999 62.92 7.50999 63.21C7.38999 62.46 7.29999 61.86 7.24999 61.51C6.99999 59.87 10.11 48.75 10.18 47.97C10.25 47.19 10.18 45.55 10.18 45.55C10.18 45.55 9.57999 47.35 8.61999 50.58C7.65999 53.81 5.69999 57.5 5.01999 59.93C4.32999 62.35 4.29999 66.97 4.29999 68.62C4.29999 70.27 5.28999 71.23 5.25999 73.12Z" fill="#D66545"/>
<path id="Vector_38" d="M19.8 34.45C19.8 34.45 8.45 37.95 7.71 38.78C6.97 39.61 5.92 39.85 7.25 40.79C8.58 41.72 11.5 40.79 11.87 40.79C12.24 40.79 12.75 40.17 13.21 40.79C13.67 41.41 13.86 42.73 14.79 42.79C15.72 42.84 16.53 42.79 17.21 42.79C17.89 42.79 17.64 42.41 19.07 43.59C20.5 44.77 21.04 45.45 22.29 45.58C23.54 45.7 24.47 45.15 25.09 45.15C25.71 45.15 26.58 45.09 27.57 45.27C28.56 45.46 29.37 48.75 31.05 49.43C32.73 50.11 34.46 46.2 35.58 45.58C36.7 44.96 40.3 42.7 40.92 41.96C41.54 41.22 43.1 37.2 43.28 36.33C43.47 35.46 45.23 33.85 46.65 32.54C48.06 31.24 65.75 15.79 69.67 11.93C73.59 8.07002 73.27 8.21002 73.27 8.21002C73.27 8.21002 71.43 -3.71998 59.56 1.22002C49.86 11 33.35 26.71 31.74 28.82C30.13 30.93 19.81 34.47 19.81 34.47L19.8 34.45Z" fill="#FFBA89"/>
<path id="Vector_39" d="M12 43.74C11.27 44.5 11.13 46.13 10.92 47.01C10.46 48.85 10.01 50.7 9.56002 52.55C9.11002 54.38 8.67002 56.21 8.25002 58.04C8.01002 59.07 7.70002 60.12 7.58002 61.18C7.58002 61.22 7.58002 61.25 7.58002 61.29C7.58002 62.2 11.43 73.62 11.43 73.62L13 75.19L16.71 74.61C16.71 74.61 13.54 68.4 13 67.33C12.46 66.26 11.47 65.55 11.47 65.34C11.47 65.13 13.08 63.11 13.54 60C13.85 57.88 14.51 55.78 15.1 53.72C15.44 52.52 15.96 51.3 16.15 50.04C16.36 48.67 16.03 47.66 15.59 46.39C15.56 46.29 15.52 46.2 15.49 46.1C15.28 45.5 15.07 44.89 14.7 44.37C14.33 43.85 13.79 43.42 13.16 43.35C12.67 43.29 12.31 43.45 12.03 43.74H12Z" fill="#FFBA89"/>
<path id="Vector_40" d="M4.53999 45.56C4.53999 45.56 5.94999 42.54 7.05999 42C8.17999 41.46 9.53999 44.44 8.62999 47.26C7.71999 50.08 4.98999 59.55 3.98999 60.17C2.99999 60.79 0.379986 60.25 0.529986 58.27C0.669986 56.29 4.52999 45.56 4.52999 45.56H4.53999Z" fill="#FFBA89"/>
<path id="Vector_41" d="M2.79999 58.51C2.79999 58.51 3.95999 58.84 3.99999 60.17C4.03999 61.49 3.16999 69.52 3.20999 70.64C3.24999 71.76 2.00999 71.8 1.50999 71.26C1.00999 70.72 0.809988 70.68 0.809988 70.35C0.809988 70.02 0.189988 68.12 0.169988 67.79C0.149988 67.46 0.259988 58.67 0.529988 57.81C0.799988 56.95 2.79999 58.51 2.79999 58.51Z" fill="#FFBA89"/>
<path id="Vector_42" d="M18.54 52.14C18.54 52.14 18.81 48.54 19.44 47.26C20.06 45.98 22.59 46.02 22.83 47.8C23.08 49.58 22.09 56.78 22.04 57.36C22 57.94 22.66 62.66 21.71 63.24C20.76 63.82 20.61 64.07 19.8 63.41C18.98 62.75 18.11 57.65 18.16 57.14C18.2 56.63 18.55 52.16 18.55 52.16L18.54 52.14Z" fill="#FFBA89"/>
<path id="Vector_43" d="M26.31 61.74C26.31 61.74 27.18 63.15 27.68 63.35C28.18 63.56 30.12 61.85 30.74 60.41C31.36 58.97 32.89 52.19 32.89 51.17C32.89 50.15 28.63 49.64 27.92 51.17C27.22 52.7 26.31 61.74 26.31 61.74Z" fill="#FFBA89"/>
<path id="Vector_44" d="M1.02001 71.66C1.02001 71.66 2.99001 71.97 3.41001 72.85C3.83001 73.73 4.09001 75.99 3.69001 76.65C3.29001 77.31 1.81001 76.67 1.47001 76.41C1.13001 76.15 0.620008 72.74 0.650008 72.35C0.680008 71.96 0.690008 71.59 1.02001 71.66Z" fill="#EB6A6A"/>
<path id="Vector_45" d="M17.67 76.4C17.67 76.4 17.46 74.95 16.69 74.61C15.91 74.27 13.9 74.59 13.54 74.81C13.18 75.03 12.64 75.69 13.73 76.72C14.82 77.75 14.88 77.7 15.41 77.71C15.94 77.73 17.45 77.49 17.68 76.4H17.67Z" fill="#EB6A6A"/>
<path id="Vector_46" d="M30.55 49.49C30.55 49.49 28.47 48.63 28.84 46.15C29.21 43.67 32.35 44.54 33.09 45.06C33.83 45.59 33.03 47.48 32.5 48.07C31.97 48.66 31.1 49.5 30.54 49.48L30.55 49.49Z" fill="#FFC096"/>
<path id="Vector_47" d="M19.16 44.78C19.16 44.78 19.72 42.72 21.27 41.93C22.82 41.15 23.41 41.18 23.91 42.17C24.41 43.16 24.06 44.66 23.7 45.09C23.34 45.51 21.61 47.66 20.75 47.2C19.88 46.74 18.98 45.3 19.17 44.78H19.16Z" fill="#FFC096"/>
<path id="Vector_48" d="M11.8 42.77C11.8 42.77 12.27 40.37 13.88 39.59C15.49 38.81 16.43 39.19 16.86 39.59C17.29 39.99 17.54 40.9 16.8 41.38C16.06 41.86 14.44 44.47 14.44 44.47C14.44 44.47 12.08 46.88 11.8 42.77Z" fill="#FFC096"/>
<path id="Vector_49" d="M6.61002 39.85C6.61002 39.85 7.00002 38.54 9.23002 38.02C11.46 37.5 11.49 38.08 11.46 39.3C11.43 40.51 9.26002 41.66 8.51002 42.4C7.76002 43.14 6.77002 43.18 6.77002 43.18C6.77002 43.18 5.60002 42.44 6.60002 39.86L6.61002 39.85Z" fill="#FFC096"/>
</g>
</g>
<defs>
<clipPath id="clip0_644_38446">
<rect width="74.89" height="105.42" fill="white"/>
</clipPath>
</defs>
</svg>
