<svg width="24" height="24" viewBox="0 0 24 24" fill="none" xmlns="http://www.w3.org/2000/svg">
<path d="M21.3594 2.52806H19.1076V1.5225C19.1076 1.01048 18.5685 0.609375 17.8808 0.609375C17.1922 0.609375 16.6527 1.01048 16.6527 1.5225V2.52806H13.2281V1.5225C13.2281 1.01048 12.6886 0.609375 12 0.609375C11.3114 0.609375 10.7719 1.01048 10.7719 1.5225V2.52806H7.3485V1.5225C7.3485 1.01048 6.80911 0.609375 6.12037 0.609375C5.43164 0.609375 4.89225 1.01048 4.89225 1.5225V2.52806H2.64192C2.24695 2.5285 1.86828 2.68559 1.58898 2.96487C1.30969 3.24416 1.15259 3.62282 1.15214 4.0178V21.9008C1.1526 22.2958 1.30971 22.6745 1.58899 22.9538C1.86828 23.2331 2.24695 23.3902 2.64192 23.3906H21.3594C21.7542 23.3901 22.1327 23.2329 22.4117 22.9536C22.6908 22.6743 22.8476 22.2957 22.8479 21.9008V4.0178C22.8476 3.62299 22.6908 3.24439 22.4117 2.9651C22.1327 2.68581 21.7542 2.52863 21.3594 2.52806ZM17.4028 1.52812C17.4258 1.47891 17.5983 1.35938 17.8809 1.35938C18.1627 1.35938 18.3348 1.47909 18.3577 1.52812V2.52806H17.4028V1.52812ZM11.5219 1.52855C11.5453 1.47919 11.718 1.35938 12 1.35938C12.282 1.35938 12.4547 1.47919 12.4781 1.52855V2.52806H11.5219V1.52855ZM5.64234 1.52855C5.66578 1.47919 5.83842 1.35938 6.12047 1.35938C6.40252 1.35938 6.57516 1.47919 6.59859 1.52855V2.52806H5.64234V1.52855Z" fill="#EAE8E8"/>
<path d="M11.1619 9.61697V11.3004C11.1619 11.3999 11.1224 11.4953 11.052 11.5656C10.9817 11.6359 10.8863 11.6754 10.7869 11.6754H8.87906C8.77961 11.6754 8.68422 11.6359 8.6139 11.5656C8.54357 11.4953 8.50406 11.3999 8.50406 11.3004V9.61697C8.50406 9.51752 8.54357 9.42213 8.6139 9.35181C8.68422 9.28148 8.77961 9.24197 8.87906 9.24197H10.7869C10.8863 9.24197 10.9817 9.28148 11.052 9.35181C11.1224 9.42213 11.1619 9.51752 11.1619 9.61697ZM15.1211 9.24197H13.2133C13.1139 9.24197 13.0185 9.28148 12.9481 9.35181C12.8778 9.42213 12.8383 9.51752 12.8383 9.61697V11.3004C12.8383 11.3999 12.8778 11.4953 12.9481 11.5656C13.0185 11.6359 13.1139 11.6754 13.2133 11.6754H15.1211C15.2206 11.6754 15.316 11.6359 15.3863 11.5656C15.4566 11.4953 15.4961 11.3999 15.4961 11.3004V9.61697C15.4961 9.51752 15.4566 9.42213 15.3863 9.35181C15.316 9.28148 15.2206 9.24197 15.1211 9.24197ZM6.45394 13.3609H4.54463C4.44517 13.3609 4.34979 13.4004 4.27946 13.4708C4.20913 13.5411 4.16963 13.6365 4.16963 13.7359V15.4194C4.16963 15.5189 4.20913 15.6142 4.27946 15.6846C4.34979 15.7549 4.44517 15.7944 4.54463 15.7944H6.45398C6.55344 15.7944 6.64882 15.7549 6.71915 15.6846C6.78948 15.6142 6.82898 15.5189 6.82898 15.4194V13.7359C6.82898 13.6365 6.78948 13.5411 6.71915 13.4708C6.64882 13.4004 6.55339 13.3609 6.45394 13.3609ZM10.7868 13.3609H8.87902C8.77956 13.3609 8.68418 13.4004 8.61385 13.4708C8.54352 13.5411 8.50402 13.6365 8.50402 13.7359V15.4194C8.50402 15.5189 8.54352 15.6142 8.61385 15.6846C8.68418 15.7549 8.77956 15.7944 8.87902 15.7944H10.7868C10.8863 15.7944 10.9817 15.7549 11.052 15.6846C11.1223 15.6142 11.1618 15.5189 11.1618 15.4194V13.7359C11.1618 13.6365 11.1223 13.5411 11.052 13.4708C10.9817 13.4005 10.8863 13.3609 10.7869 13.3609H10.7868ZM15.1211 13.3609H13.2133C13.1138 13.3609 13.0184 13.4004 12.9481 13.4708C12.8778 13.5411 12.8383 13.6365 12.8383 13.7359V15.4194C12.8383 15.5189 12.8778 15.6142 12.9481 15.6846C13.0184 15.7549 13.1138 15.7944 13.2133 15.7944H15.1211C15.2205 15.7944 15.3159 15.7549 15.3862 15.6846C15.4566 15.6142 15.4961 15.5189 15.4961 15.4194V13.7359C15.4961 13.6365 15.4566 13.5411 15.3863 13.4708C15.3159 13.4005 15.2206 13.3609 15.1211 13.3609H15.1211ZM6.45389 17.4812H4.54463C4.44517 17.4812 4.34979 17.5207 4.27946 17.5911C4.20913 17.6614 4.16963 17.7568 4.16963 17.8562V19.5383C4.16963 19.6378 4.20913 19.7332 4.27946 19.8035C4.34979 19.8738 4.44517 19.9133 4.54463 19.9133H6.45398C6.55344 19.9133 6.64882 19.8738 6.71915 19.8035C6.78948 19.7332 6.82898 19.6378 6.82898 19.5383V17.8563C6.82898 17.7568 6.78948 17.6614 6.71915 17.5911C6.64882 17.5208 6.55344 17.4813 6.45398 17.4813L6.45389 17.4812ZM10.7868 17.4812H8.87897C8.77951 17.4812 8.68413 17.5207 8.6138 17.5911C8.54348 17.6614 8.50397 17.7568 8.50397 17.8562V19.5383C8.50397 19.6378 8.54348 19.7332 8.6138 19.8035C8.68413 19.8738 8.77951 19.9133 8.87897 19.9133H10.7868C10.8862 19.9133 10.9816 19.8738 11.0519 19.8035C11.1223 19.7332 11.1618 19.6378 11.1618 19.5383V17.8563C11.1618 17.7568 11.1223 17.6615 11.052 17.5912C10.9817 17.5208 10.8863 17.4813 10.7869 17.4813L10.7868 17.4812ZM6.45398 9.24197H4.54463C4.44517 9.24197 4.34979 9.28148 4.27946 9.35181C4.20913 9.42213 4.16963 9.51752 4.16963 9.61697V11.3004C4.16963 11.3999 4.20913 11.4953 4.27946 11.5656C4.34979 11.6359 4.44517 11.6754 4.54463 11.6754H6.45398C6.55344 11.6754 6.64882 11.6359 6.71915 11.5656C6.78948 11.4953 6.82898 11.3999 6.82898 11.3004V9.61697C6.82898 9.51752 6.78948 9.42213 6.71915 9.35181C6.64882 9.28148 6.55344 9.24197 6.45398 9.24197ZM19.4554 13.3609H17.5476C17.4481 13.3609 17.3527 13.4004 17.2824 13.4708C17.2121 13.5411 17.1726 13.6365 17.1726 13.7359V15.4194C17.1726 15.5189 17.2121 15.6142 17.2824 15.6846C17.3527 15.7549 17.4481 15.7944 17.5476 15.7944H19.4554C19.5548 15.7944 19.6502 15.7549 19.7205 15.6846C19.7909 15.6142 19.8304 15.5189 19.8304 15.4194V13.7359C19.8304 13.6365 19.7909 13.5411 19.7205 13.4708C19.6502 13.4004 19.5548 13.3609 19.4554 13.3609ZM15.1211 17.4812H13.2133C13.1139 17.4812 13.0185 17.5207 12.9481 17.5911C12.8778 17.6614 12.8383 17.7568 12.8383 17.8562V19.5383C12.8383 19.6378 12.8778 19.7332 12.9481 19.8035C13.0185 19.8738 13.1139 19.9133 13.2133 19.9133H15.1211C15.2206 19.9133 15.316 19.8738 15.3863 19.8035C15.4566 19.7332 15.4961 19.6378 15.4961 19.5383V17.8563C15.4961 17.7568 15.4566 17.6614 15.3863 17.5911C15.316 17.5208 15.2206 17.4812 15.1211 17.4812Z" fill="#484868"/>
<path d="M6.45398 9.24197H5.98523C6.08469 9.24197 6.18007 9.28148 6.2504 9.35181C6.32073 9.42213 6.36023 9.51752 6.36023 9.61697V11.3004C6.36023 11.3999 6.32073 11.4953 6.2504 11.5656C6.18007 11.6359 6.08469 11.6754 5.98523 11.6754H6.45398C6.55344 11.6754 6.64882 11.6359 6.71915 11.5656C6.78948 11.4953 6.82898 11.3999 6.82898 11.3004V9.61697C6.82898 9.51752 6.78948 9.42213 6.71915 9.35181C6.64882 9.28148 6.55344 9.24197 6.45398 9.24197Z" fill="#3D3D54"/>
<path d="M10.7869 17.4813H10.3181C10.4176 17.4813 10.513 17.5208 10.5833 17.5911C10.6536 17.6615 10.6931 17.7568 10.6931 17.8563V19.5384C10.6931 19.6379 10.6536 19.7332 10.5833 19.8036C10.513 19.8739 10.4176 19.9134 10.3181 19.9134H10.7869C10.8863 19.9134 10.9817 19.8739 11.052 19.8036C11.1224 19.7332 11.1619 19.6379 11.1619 19.5384V17.8563C11.1619 17.7568 11.1224 17.6615 11.052 17.5911C10.9817 17.5208 10.8863 17.4813 10.7869 17.4813Z" fill="#3D3D54"/>
<path d="M10.7869 13.3609H10.3181C10.4176 13.3609 10.513 13.4004 10.5833 13.4708C10.6536 13.5411 10.6931 13.6365 10.6931 13.7359V15.4194C10.6931 15.5189 10.6536 15.6142 10.5833 15.6846C10.513 15.7549 10.4176 15.7944 10.3181 15.7944H10.7869C10.8863 15.7944 10.9817 15.7549 11.052 15.6846C11.1224 15.6142 11.1619 15.5189 11.1619 15.4194V13.7359C11.1619 13.6365 11.1224 13.5411 11.052 13.4708C10.9817 13.4004 10.8863 13.3609 10.7869 13.3609Z" fill="#3D3D54"/>
<path d="M6.45398 17.4813H5.98523C6.08469 17.4813 6.18007 17.5208 6.2504 17.5911C6.32073 17.6615 6.36023 17.7568 6.36023 17.8563V19.5384C6.36023 19.6379 6.32073 19.7332 6.2504 19.8036C6.18007 19.8739 6.08469 19.9134 5.98523 19.9134H6.45398C6.55344 19.9134 6.64882 19.8739 6.71915 19.8036C6.78948 19.7332 6.82898 19.6379 6.82898 19.5384V17.8563C6.82898 17.7568 6.78948 17.6615 6.71915 17.5911C6.64882 17.5208 6.55344 17.4813 6.45398 17.4813Z" fill="#3D3D54"/>
<path d="M6.45398 13.3609H5.98523C6.08469 13.3609 6.18007 13.4004 6.2504 13.4708C6.32073 13.5411 6.36023 13.6365 6.36023 13.7359V15.4194C6.36023 15.5189 6.32073 15.6142 6.2504 15.6846C6.18007 15.7549 6.08469 15.7944 5.98523 15.7944H6.45398C6.55344 15.7944 6.64882 15.7549 6.71915 15.6846C6.78948 15.6142 6.82898 15.5189 6.82898 15.4194V13.7359C6.82898 13.6365 6.78948 13.5411 6.71915 13.4708C6.64882 13.4004 6.55344 13.3609 6.45398 13.3609Z" fill="#3D3D54"/>
<path d="M15.1211 17.4813H14.6524C14.7518 17.4813 14.8472 17.5208 14.9175 17.5911C14.9879 17.6615 15.0274 17.7568 15.0274 17.8563V19.5384C15.0274 19.6379 14.9879 19.7332 14.9175 19.8036C14.8472 19.8739 14.7518 19.9134 14.6524 19.9134H15.1211C15.2206 19.9134 15.316 19.8739 15.3863 19.8036C15.4566 19.7332 15.4961 19.6379 15.4961 19.5384V17.8563C15.4961 17.7568 15.4566 17.6615 15.3863 17.5911C15.316 17.5208 15.2206 17.4813 15.1211 17.4813Z" fill="#3D3D54"/>
<path d="M15.1211 9.24197H14.6524C14.7518 9.24197 14.8472 9.28148 14.9175 9.35181C14.9879 9.42213 15.0274 9.51752 15.0274 9.61697V11.3004C15.0274 11.3999 14.9879 11.4953 14.9175 11.5656C14.8472 11.6359 14.7518 11.6754 14.6524 11.6754H15.1211C15.2206 11.6754 15.316 11.6359 15.3863 11.5656C15.4566 11.4953 15.4961 11.3999 15.4961 11.3004V9.61697C15.4961 9.51752 15.4566 9.42213 15.3863 9.35181C15.316 9.28148 15.2206 9.24197 15.1211 9.24197Z" fill="#3D3D54"/>
<path d="M10.7869 9.24197H10.3181C10.4176 9.24197 10.513 9.28148 10.5833 9.35181C10.6536 9.42213 10.6931 9.51752 10.6931 9.61697V11.3004C10.6931 11.3999 10.6536 11.4953 10.5833 11.5656C10.513 11.6359 10.4176 11.6754 10.3181 11.6754H10.7869C10.8863 11.6754 10.9817 11.6359 11.052 11.5656C11.1224 11.4953 11.1619 11.3999 11.1619 11.3004V9.61697C11.1619 9.51752 11.1224 9.42213 11.052 9.35181C10.9817 9.28148 10.8863 9.24197 10.7869 9.24197Z" fill="#3D3D54"/>
<path d="M19.4554 13.3609H18.9866C19.0861 13.3609 19.1815 13.4004 19.2518 13.4708C19.3221 13.5411 19.3616 13.6365 19.3616 13.7359V15.4194C19.3616 15.5189 19.3221 15.6142 19.2518 15.6846C19.1815 15.7549 19.0861 15.7944 18.9866 15.7944H19.4554C19.5548 15.7944 19.6502 15.7549 19.7205 15.6846C19.7909 15.6142 19.8304 15.5189 19.8304 15.4194V13.7359C19.8304 13.6365 19.7909 13.5411 19.7205 13.4708C19.6502 13.4004 19.5548 13.3609 19.4554 13.3609Z" fill="#3D3D54"/>
<path d="M15.1211 13.3609H14.6524C14.7518 13.3609 14.8472 13.4004 14.9175 13.4708C14.9879 13.5411 15.0274 13.6365 15.0274 13.7359V15.4194C15.0274 15.5189 14.9879 15.6142 14.9175 15.6846C14.8472 15.7549 14.7518 15.7944 14.6524 15.7944H15.1211C15.2206 15.7944 15.316 15.7549 15.3863 15.6846C15.4566 15.6142 15.4961 15.5189 15.4961 15.4194V13.7359C15.4961 13.6365 15.4566 13.5411 15.3863 13.4708C15.316 13.4004 15.2206 13.3609 15.1211 13.3609Z" fill="#3D3D54"/>
<path d="M18.2648 11.5678C18.1659 11.5678 18.071 11.5288 18.0008 11.4592L17.2302 10.6951C17.16 10.625 17.1206 10.5299 17.1203 10.4307C17.1201 10.3316 17.1592 10.2363 17.229 10.1659C17.2989 10.0955 17.3938 10.0556 17.4929 10.0549C17.5921 10.0543 17.6875 10.093 17.7582 10.1625L18.241 10.641L19.2225 9.4822C19.2868 9.40631 19.3786 9.35906 19.4778 9.35086C19.5769 9.34265 19.6752 9.37416 19.7511 9.43844C19.827 9.50273 19.8742 9.59453 19.8824 9.69365C19.8906 9.79277 19.8591 9.89109 19.7948 9.96698L18.5512 11.4352C18.5177 11.4747 18.4765 11.5068 18.43 11.5295C18.3836 11.5523 18.3329 11.5652 18.2812 11.5674C18.2757 11.5677 18.2702 11.5678 18.2648 11.5678Z" fill="#D22E2E"/>
<path d="M19.5678 22.1832C19.533 22.2181 19.4916 22.2457 19.4461 22.2646C19.4006 22.2834 19.3518 22.2931 19.3026 22.2931H2.64192C2.24695 22.2927 1.86828 22.1356 1.58899 21.8563C1.30971 21.577 1.1526 21.1983 1.15214 20.8034V21.9008C1.1526 22.2958 1.30971 22.6745 1.58899 22.9538C1.86828 23.2331 2.24695 23.3902 2.64192 23.3906H21.3594C21.7542 23.3901 22.1327 23.2329 22.4117 22.9536C22.6908 22.6743 22.8476 22.2957 22.8479 21.9008V18.7465C22.8478 18.8459 22.8084 18.9413 22.7381 19.0116L19.5678 22.1832Z" fill="#D1C9C9"/>
<path d="M22.8479 18.7465V18.6973H20.0129C19.8139 18.6973 19.6232 18.7763 19.4825 18.917C19.3419 19.0576 19.2629 19.2484 19.2629 19.4473V22.2931H19.3026C19.3518 22.2931 19.4006 22.2834 19.4461 22.2646C19.4916 22.2457 19.533 22.2181 19.5678 22.1832L22.7381 19.0116C22.8084 18.9412 22.8478 18.8459 22.8479 18.7465Z" fill="#BCB3B3"/>
<path d="M21.3594 2.52806H17.4028V3.94753C17.4248 3.99675 17.5968 4.11717 17.8809 4.11717C17.9804 4.11717 18.0758 4.15668 18.1461 4.22701C18.2164 4.29733 18.2559 4.39271 18.2559 4.49217C18.2559 4.59163 18.2164 4.68701 18.1461 4.75734C18.0758 4.82766 17.9804 4.86717 17.8809 4.86717C17.1923 4.86717 16.6528 4.4655 16.6528 3.95269V2.52806H11.5219V3.94725C11.5443 3.99665 11.7165 4.11717 12 4.11717C12.0995 4.11717 12.1948 4.15668 12.2652 4.22701C12.3355 4.29733 12.375 4.39271 12.375 4.49217C12.375 4.59163 12.3355 4.68701 12.2652 4.75734C12.1948 4.82766 12.0995 4.86717 12 4.86717C11.3114 4.86717 10.7719 4.4655 10.7719 3.95269V2.52806H5.64244V3.94725C5.66484 3.99665 5.83702 4.11717 6.12056 4.11717C6.22002 4.11717 6.3154 4.15668 6.38573 4.22701C6.45605 4.29733 6.49556 4.39271 6.49556 4.49217C6.49556 4.59163 6.45605 4.68701 6.38573 4.75734C6.3154 4.82766 6.22002 4.86717 6.12056 4.86717C5.43197 4.86717 4.89244 4.4655 4.89244 3.95269V2.52806H2.64192C2.24695 2.5285 1.86828 2.68559 1.58898 2.96487C1.30969 3.24415 1.15259 3.62282 1.15214 4.0178V7.215H22.8479V4.0178C22.8476 3.62298 22.6908 3.24439 22.4117 2.9651C22.1327 2.68581 21.7542 2.52863 21.3594 2.52806Z" fill="#D22E2E"/>
<path d="M1.15214 7.215H22.8479V7.80056H1.15214V7.215Z" fill="#D1C9C9"/>
<path d="M12.375 4.49217C12.375 4.59163 12.3355 4.68701 12.2652 4.75734C12.1948 4.82766 12.0995 4.86717 12 4.86717C11.3114 4.86717 10.7719 4.4655 10.7719 3.95269V1.5225C10.7719 1.01048 11.3114 0.609375 12 0.609375C12.6886 0.609375 13.2281 1.01048 13.2281 1.5225V2.52806H12.4781V1.52855C12.4547 1.47919 12.282 1.35938 12 1.35938C11.718 1.35938 11.5453 1.47919 11.5219 1.52855V3.9473C11.5443 3.9967 11.7165 4.11722 12 4.11722C12.0994 4.11722 12.1948 4.15672 12.2651 4.22704C12.3355 4.29735 12.375 4.39272 12.375 4.49217ZM6.12047 4.11717C5.83702 4.11717 5.66484 3.99666 5.64234 3.94725V1.5285C5.66578 1.47914 5.83842 1.35933 6.12047 1.35933C6.40252 1.35933 6.57516 1.47914 6.59859 1.5285V2.52806H7.34859V1.5225C7.34859 1.01048 6.8092 0.609375 6.12047 0.609375C5.43173 0.609375 4.89234 1.01048 4.89234 1.5225V3.95269C4.89234 4.4655 5.43178 4.86717 6.12047 4.86717C6.21993 4.86717 6.31531 4.82766 6.38563 4.75734C6.45596 4.68701 6.49547 4.59163 6.49547 4.49217C6.49547 4.39272 6.45596 4.29733 6.38563 4.22701C6.31531 4.15668 6.21993 4.11717 6.12047 4.11717ZM17.8808 4.11717C17.5968 4.11717 17.4248 3.99675 17.4027 3.94753V1.52812C17.4257 1.47891 17.5982 1.35938 17.8808 1.35938C18.1627 1.35938 18.3347 1.47909 18.3576 1.52812V2.52806H19.1076V1.5225C19.1076 1.01048 18.5685 0.609375 17.8808 0.609375C17.1922 0.609375 16.6527 1.01048 16.6527 1.5225V3.95269C16.6527 4.4655 17.1921 4.86717 17.8808 4.86717C17.9803 4.86717 18.0757 4.82766 18.146 4.75734C18.2163 4.68701 18.2558 4.59163 18.2558 4.49217C18.2558 4.39272 18.2163 4.29733 18.146 4.22701C18.0757 4.15668 17.9803 4.11717 17.8808 4.11717Z" fill="#484868"/>
<path d="M6.12281 3.78909C5.95074 3.7891 5.78471 3.85252 5.65645 3.96722C5.70652 4.02319 5.86987 4.11722 6.12052 4.11722C6.21997 4.11722 6.31535 4.15673 6.38568 4.22705C6.45601 4.29738 6.49552 4.39276 6.49552 4.49222C6.49552 4.59167 6.45601 4.68706 6.38568 4.75738C6.31535 4.82771 6.21997 4.86722 6.12052 4.86722C5.89331 4.86929 5.66837 4.82185 5.46136 4.72819C5.50466 4.84944 5.58045 4.95647 5.68044 5.03759C5.78043 5.11871 5.90079 5.1708 6.02837 5.18817C6.15595 5.20554 6.28585 5.18752 6.40389 5.13609C6.52193 5.08466 6.62357 5.00179 6.69771 4.89652C6.77186 4.79125 6.81566 4.66764 6.82433 4.53917C6.833 4.41071 6.80621 4.28233 6.74689 4.16805C6.68756 4.05378 6.59798 3.958 6.48793 3.89117C6.37787 3.82434 6.25157 3.78903 6.12281 3.78909Z" fill="#AD1E1E"/>
<path d="M12 3.78909C11.8286 3.78905 11.6631 3.85195 11.535 3.96586C11.5837 4.02169 11.7475 4.11717 12 4.11717C12.0995 4.11717 12.1948 4.15668 12.2652 4.22701C12.3355 4.29733 12.375 4.39272 12.375 4.49217C12.375 4.59163 12.3355 4.68701 12.2652 4.75734C12.1948 4.82766 12.0995 4.86717 12 4.86717C11.7717 4.86927 11.5458 4.82137 11.338 4.72683C11.381 4.84826 11.4566 4.95552 11.5565 5.03689C11.6564 5.11827 11.7767 5.17062 11.9043 5.18823C12.0319 5.20584 12.1619 5.18803 12.2801 5.13675C12.3983 5.08546 12.5001 5.00268 12.5744 4.89744C12.6487 4.79221 12.6927 4.66857 12.7015 4.54004C12.7103 4.41151 12.6836 4.28304 12.6243 4.16866C12.565 4.05428 12.4754 3.95841 12.3653 3.89151C12.2552 3.82461 12.1288 3.78926 12 3.78933V3.78909Z" fill="#AD1E1E"/>
<path d="M17.8802 3.78909C17.7089 3.78903 17.5435 3.85187 17.4154 3.96567C17.4633 4.02127 17.6272 4.11717 17.8808 4.11717C17.9803 4.11717 18.0757 4.15668 18.146 4.22701C18.2163 4.29733 18.2558 4.39272 18.2558 4.49217C18.2558 4.59163 18.2163 4.68701 18.146 4.75734C18.0757 4.82766 17.9803 4.86717 17.8808 4.86717C17.6523 4.86931 17.426 4.8213 17.218 4.72655C17.2611 4.84797 17.3366 4.95523 17.4365 5.0366C17.5364 5.11797 17.6567 5.17033 17.7843 5.18795C17.9119 5.20556 18.0419 5.18776 18.1601 5.13649C18.2783 5.08522 18.3801 5.00245 18.4544 4.89722C18.5287 4.792 18.5727 4.66837 18.5815 4.53985C18.5903 4.41132 18.5636 4.28285 18.5044 4.16847C18.4451 4.05409 18.3555 3.95821 18.2454 3.89129C18.1354 3.82438 18.009 3.78905 17.8802 3.78909Z" fill="#AD1E1E"/>
</svg>
