<?xml version="1.0" standalone="no"?>
<!DOCTYPE svg PUBLIC "-//W3C//DTD SVG 20010904//EN"
 "http://www.w3.org/TR/2001/REC-SVG-20010904/DTD/svg10.dtd">
<svg version="1.0" xmlns="http://www.w3.org/2000/svg"
 width="1280.000000pt" height="1280.000000pt" viewBox="0 0 1280.000000 1280.000000"
 preserveAspectRatio="xMidYMid meet">
<metadata>
Created by potrace 1.14, written by Peter Selinger 2001-2017
</metadata>
<g transform="translate(0.000000,1280.000000) scale(0.100000,-0.100000)"
fill="#000000" stroke="none">
<path d="M2645 12785 c-133 -29 -252 -94 -348 -188 -98 -97 -158 -199 -195
-331 -16 -57 -17 -452 -17 -5851 0 -3185 3 -5808 7 -5830 12 -64 15 -78 29
-110 6 -16 13 -35 15 -41 7 -35 91 -159 146 -215 95 -97 203 -161 333 -197 55
-16 265 -17 2705 -17 1455 0 2677 4 2715 8 39 4 88 10 109 12 58 6 116 16 226
40 60 12 95 18 95 15 0 -2 10 2 23 9 13 7 33 14 44 16 22 5 83 23 108 32 8 4
21 5 28 4 6 -1 12 3 12 9 0 5 3 9 8 8 13 -4 102 26 102 34 0 4 3 7 8 7 4 -1
10 0 15 1 4 1 10 3 15 4 23 4 202 89 291 138 58 32 106 58 108 58 3 0 19 11
37 25 18 14 36 25 39 25 6 0 98 60 107 70 3 3 21 17 40 30 33 24 59 43 84 65
6 6 34 28 61 50 28 22 59 49 71 60 11 11 49 47 84 79 106 101 350 387 350 412
0 2 18 29 40 59 22 30 40 57 40 61 0 4 6 15 14 23 24 28 186 338 186 356 0 3
8 24 18 48 17 38 40 97 70 182 15 39 63 213 68 245 3 14 11 52 19 85 8 33 17
79 20 102 3 23 8 57 11 75 7 47 11 89 20 203 9 122 10 7311 1 7480 -4 66 -9
131 -11 145 -5 27 -14 92 -22 150 -2 19 -7 49 -11 65 -4 17 -8 35 -9 40 -9 43
-15 65 -22 95 -5 19 -10 40 -11 45 -9 43 -62 215 -80 260 -5 11 -21 52 -36 90
-66 166 -209 427 -312 570 -65 90 -75 105 -92 125 -9 10 -32 38 -51 62 -19 23
-48 57 -65 74 -16 18 -44 47 -61 65 -57 62 -264 253 -264 243 0 -2 -8 4 -18
14 -100 95 -411 286 -612 375 -19 8 -61 26 -92 40 -31 14 -59 23 -62 19 -3 -3
-6 1 -6 8 0 7 -3 11 -6 7 -3 -3 -36 6 -72 20 -37 13 -68 24 -70 23 -2 -1 -15
2 -30 8 -37 13 -103 33 -127 37 -11 2 -20 4 -20 5 0 2 -15 5 -90 19 -33 6 -71
13 -85 16 -43 9 -73 13 -135 21 -33 3 -69 9 -80 13 -11 3 -1219 6 -2685 7
-2188 2 -2676 0 -2725 -11z m5517 -3004 c6 -1 -25 -94 -95 -283 -14 -37 -22
-69 -19 -72 3 -3 -1 -6 -8 -6 -7 0 -11 -2 -8 -6 3 -3 -3 -28 -14 -57 -11 -29
-40 -109 -64 -179 -25 -70 -49 -140 -56 -155 -6 -16 -13 -36 -15 -46 -1 -10
-10 -31 -18 -48 -9 -16 -13 -29 -9 -29 4 0 2 -6 -3 -12 -5 -7 -20 -44 -33 -83
-12 -38 -27 -81 -33 -95 -6 -14 -11 -28 -12 -32 -2 -5 -3 -9 -5 -10 -1 -2 -3
-10 -5 -18 -9 -37 -68 -196 -77 -205 -6 -6 -204 -10 -551 -10 l-542 0 -1 -638
c0 -350 2 -638 5 -638 3 -1 249 -2 546 -3 l540 -1 0 -640 0 -640 -500 -2
c-275 -1 -521 -2 -546 -2 l-45 -1 0 -740 0 -740 547 0 547 0 10 -27 c42 -111
66 -180 68 -189 4 -22 48 -139 56 -149 4 -5 8 -19 8 -30 0 -12 3 -25 8 -29 4
-4 8 -12 8 -17 1 -5 3 -11 4 -14 1 -3 3 -8 5 -12 1 -5 4 -15 8 -23 7 -18 101
-283 152 -430 20 -58 42 -118 48 -135 6 -16 12 -32 12 -35 0 -3 9 -27 19 -55
59 -161 72 -205 62 -202 -6 2 -21 0 -33 -4 -15 -5 -23 -5 -23 2 0 6 -5 7 -11
3 -14 -8 -124 -8 -138 0 -6 4 -11 3 -11 -3 0 -6 -11 -6 -29 -1 -16 4 -32 6
-35 2 -8 -7 -74 -7 -82 1 -3 3 -17 2 -30 -3 -13 -5 -25 -6 -28 -2 -3 5 -30 5
-61 2 -31 -3 -58 -3 -61 2 -3 4 -15 3 -28 -2 -13 -5 -27 -6 -30 -3 -7 7 -76
10 -76 3 0 -7 -59 -5 -66 2 -3 4 -18 3 -32 -1 -15 -5 -36 -5 -47 -1 -11 4 -24
5 -30 2 -8 -5 -96 -6 -122 -1 -4 1 -10 0 -13 -1 -14 -5 -72 -4 -76 2 -2 3 -16
3 -32 -1 -15 -4 -39 -4 -54 0 -16 4 -28 4 -28 -1 0 -5 -13 -5 -29 0 -16 4 -32
6 -35 3 -7 -8 -306 -9 -306 -2 0 4 -17 3 -38 -1 -21 -4 -48 -3 -60 1 -12 5
-24 4 -27 -1 -3 -6 -15 -6 -29 0 -13 5 -27 6 -30 3 -8 -9 -86 -9 -86 -1 0 4
-7 5 -15 2 -23 -9 -105 -10 -105 -1 0 5 -5 5 -11 1 -10 -6 -329 -10 -354 -4
-5 1 -12 2 -15 1 -7 -3 -262 -3 -275 -1 -5 2 -14 1 -20 0 -28 -6 -77 -4 -82 2
-2 5 -9 5 -15 2 -9 -6 -185 -9 -205 -4 -5 2 -12 1 -18 0 -28 -6 -77 -4 -82 2
-2 5 -9 5 -15 2 -16 -10 -69 -11 -75 -1 -2 4 -9 5 -14 1 -14 -8 -139 -10 -139
-2 0 4 -13 3 -30 -2 l-30 -9 0 52 c-1 70 -1 6668 0 6687 0 13 190 15 1658 14
911 -1 1660 -2 1664 -3z m-4857 -1180 c6 -3 15 -6 20 -7 6 -2 48 -14 95 -29
47 -14 92 -28 100 -30 8 -2 33 -10 55 -18 51 -18 178 -58 196 -60 8 -2 28 -8
44 -14 17 -6 84 -28 150 -48 66 -20 131 -40 145 -45 14 -4 66 -20 115 -35 50
-15 116 -36 149 -47 32 -11 66 -22 75 -23 9 -2 18 -4 21 -5 3 -1 8 -2 12 -1
12 2 18 -40 15 -117 -1 -41 1 -76 5 -79 5 -2 5 -9 1 -15 -9 -16 -10 -219 0
-225 4 -2 4 -9 0 -15 -9 -16 -10 -219 0 -225 4 -2 4 -9 0 -16 -3 -6 -7 -56 -7
-112 0 -56 4 -106 7 -112 4 -7 4 -14 0 -16 -10 -6 -9 -209 0 -225 4 -6 4 -13
0 -15 -10 -6 -9 -929 1 -945 3 -6 3 -13 -1 -15 -10 -6 -9 -209 0 -225 4 -6 4
-13 0 -15 -10 -6 -9 -209 0 -225 4 -6 4 -13 0 -15 -10 -6 -9 -209 0 -225 4 -6
4 -13 0 -15 -10 -6 -9 -209 0 -225 4 -6 4 -13 0 -15 -5 -3 -7 -113 -7 -244 l1
-240 -36 -14 c-20 -7 -39 -14 -43 -15 -5 -1 -11 -3 -15 -4 -5 -1 -11 -2 -15
-1 -5 0 -8 -4 -8 -10 0 -5 -5 -7 -10 -4 -6 4 -16 3 -23 -2 -7 -5 -66 -29 -132
-52 -66 -23 -135 -49 -153 -57 -18 -8 -37 -14 -42 -14 -5 0 -21 -5 -37 -12
-15 -6 -30 -12 -33 -13 -3 -1 -14 -5 -25 -9 -11 -4 -33 -12 -50 -18 -16 -5
-39 -14 -50 -19 -11 -5 -42 -16 -70 -25 -27 -9 -63 -22 -80 -29 -37 -16 -121
-46 -138 -49 -14 -3 -40 -13 -82 -31 -46 -19 -109 -39 -117 -37 -5 1 -8 -3 -8
-10 0 -6 -3 -9 -6 -6 -3 4 -21 0 -40 -8 -19 -8 -34 -11 -35 -7 -1 5 -2 997 -3
2205 l-1 2197 25 -6 c14 -3 30 -8 35 -12z"/>
</g>
</svg>
